G04 #@! TF.GenerationSoftware,KiCad,Pcbnew,5.1.4*
G04 #@! TF.CreationDate,2019-10-24T02:20:19+09:00*
G04 #@! TF.ProjectId,key_prac,6b65795f-7072-4616-932e-6b696361645f,rev?*
G04 #@! TF.SameCoordinates,PX3072580PY3dc4fd0*
G04 #@! TF.FileFunction,Legend,Top*
G04 #@! TF.FilePolarity,Positive*
%FSLAX46Y46*%
G04 Gerber Fmt 4.6, Leading zero omitted, Abs format (unit mm)*
G04 Created by KiCad (PCBNEW 5.1.4) date 2019-10-24 02:20:19*
%MOMM*%
%LPD*%
G04 APERTURE LIST*
%ADD10C,0.120000*%
%ADD11C,0.381000*%
%ADD12C,0.150000*%
%ADD13C,0.203200*%
G04 APERTURE END LIST*
D10*
X38735000Y-47625000D02*
X38735000Y-33655000D01*
X52705000Y-47625000D02*
X38735000Y-47625000D01*
X52705000Y-33655000D02*
X52705000Y-47625000D01*
X38735000Y-33655000D02*
X52705000Y-33655000D01*
X49530000Y-72390000D02*
X53340000Y-72390000D01*
X49530000Y-68580000D02*
X49530000Y-72390000D01*
X46990000Y-68580000D02*
X49530000Y-68580000D01*
X46990000Y-60960000D02*
X46990000Y-68580000D01*
X49530000Y-60960000D02*
X46990000Y-60960000D01*
X49530000Y-57150000D02*
X49530000Y-60960000D01*
X54610000Y-57150000D02*
X49530000Y-57150000D01*
X54610000Y-53340000D02*
X54610000Y-57150000D01*
X62230000Y-53340000D02*
X54610000Y-53340000D01*
X62230000Y-57150000D02*
X62230000Y-53340000D01*
X67310000Y-57150000D02*
X62230000Y-57150000D01*
X67310000Y-60960000D02*
X67310000Y-57150000D01*
X69850000Y-60960000D02*
X67310000Y-60960000D01*
X69850000Y-68580000D02*
X69850000Y-60960000D01*
X67310000Y-68580000D02*
X69850000Y-68580000D01*
X67310000Y-72390000D02*
X67310000Y-68580000D01*
X63500000Y-72390000D02*
X67310000Y-72390000D01*
X63500000Y-78740000D02*
X63500000Y-72390000D01*
X53340000Y-78740000D02*
X63500000Y-78740000D01*
X53340000Y-72390000D02*
X53340000Y-78740000D01*
X29845000Y-22225000D02*
X29845000Y-8255000D01*
X43815000Y-22225000D02*
X29845000Y-22225000D01*
X43815000Y-8255000D02*
X43815000Y-22225000D01*
X29845000Y-8255000D02*
X43815000Y-8255000D01*
D11*
X6350000Y-17780000D02*
X3810000Y-17780000D01*
X6350000Y-15240000D02*
X6350000Y-17780000D01*
X21590000Y-45720000D02*
X21590000Y-15240000D01*
X3810000Y-45720000D02*
X21590000Y-45720000D01*
X3810000Y-15240000D02*
X3810000Y-45720000D01*
X21590000Y-15240000D02*
X3810000Y-15240000D01*
D10*
X8890000Y-52070000D02*
X16510000Y-52070000D01*
X16510000Y-54610000D02*
X16510000Y-52070000D01*
X8890000Y-54610000D02*
X16510000Y-54610000D01*
X8890000Y-52070000D02*
X8890000Y-54610000D01*
X73025000Y-73025000D02*
X73025000Y-59055000D01*
X86995000Y-73025000D02*
X73025000Y-73025000D01*
X86995000Y-59055000D02*
X86995000Y-73025000D01*
X73025000Y-59055000D02*
X86995000Y-59055000D01*
X81915000Y-47625000D02*
X81915000Y-33655000D01*
X95885000Y-47625000D02*
X81915000Y-47625000D01*
X95885000Y-33655000D02*
X95885000Y-47625000D01*
X81915000Y-33655000D02*
X95885000Y-33655000D01*
X73025000Y-22225000D02*
X73025000Y-8255000D01*
X86995000Y-22225000D02*
X73025000Y-22225000D01*
X86995000Y-8255000D02*
X86995000Y-22225000D01*
X73025000Y-8255000D02*
X86995000Y-8255000D01*
X60325000Y-47625000D02*
X60325000Y-33655000D01*
X74295000Y-47625000D02*
X60325000Y-47625000D01*
X74295000Y-33655000D02*
X74295000Y-47625000D01*
X60325000Y-33655000D02*
X74295000Y-33655000D01*
X51435000Y-22225000D02*
X51435000Y-8255000D01*
X65405000Y-22225000D02*
X51435000Y-22225000D01*
X65405000Y-8255000D02*
X65405000Y-22225000D01*
X51435000Y-8255000D02*
X65405000Y-8255000D01*
X29845000Y-73025000D02*
X29845000Y-59055000D01*
X43815000Y-73025000D02*
X29845000Y-73025000D01*
X43815000Y-59055000D02*
X43815000Y-73025000D01*
X29845000Y-59055000D02*
X43815000Y-59055000D01*
X86390000Y-77320000D02*
X86390000Y-80160000D01*
X86630000Y-77320000D02*
X86630000Y-80160000D01*
X86510000Y-77320000D02*
X86510000Y-80160000D01*
X91470000Y-78740000D02*
X89350000Y-78740000D01*
X83790000Y-78740000D02*
X85910000Y-78740000D01*
X89350000Y-77320000D02*
X85910000Y-77320000D01*
X89350000Y-80160000D02*
X89350000Y-77320000D01*
X85910000Y-80160000D02*
X89350000Y-80160000D01*
X85910000Y-77320000D02*
X85910000Y-80160000D01*
X87660000Y-51920000D02*
X87660000Y-54760000D01*
X87900000Y-51920000D02*
X87900000Y-54760000D01*
X87780000Y-51920000D02*
X87780000Y-54760000D01*
X92740000Y-53340000D02*
X90620000Y-53340000D01*
X85060000Y-53340000D02*
X87180000Y-53340000D01*
X90620000Y-51920000D02*
X87180000Y-51920000D01*
X90620000Y-54760000D02*
X90620000Y-51920000D01*
X87180000Y-54760000D02*
X90620000Y-54760000D01*
X87180000Y-51920000D02*
X87180000Y-54760000D01*
X78770000Y-26520000D02*
X78770000Y-29360000D01*
X79010000Y-26520000D02*
X79010000Y-29360000D01*
X78890000Y-26520000D02*
X78890000Y-29360000D01*
X83850000Y-27940000D02*
X81730000Y-27940000D01*
X76170000Y-27940000D02*
X78290000Y-27940000D01*
X81730000Y-26520000D02*
X78290000Y-26520000D01*
X81730000Y-29360000D02*
X81730000Y-26520000D01*
X78290000Y-29360000D02*
X81730000Y-29360000D01*
X78290000Y-26520000D02*
X78290000Y-29360000D01*
X71150000Y-77320000D02*
X71150000Y-80160000D01*
X71390000Y-77320000D02*
X71390000Y-80160000D01*
X71270000Y-77320000D02*
X71270000Y-80160000D01*
X76230000Y-78740000D02*
X74110000Y-78740000D01*
X68550000Y-78740000D02*
X70670000Y-78740000D01*
X74110000Y-77320000D02*
X70670000Y-77320000D01*
X74110000Y-80160000D02*
X74110000Y-77320000D01*
X70670000Y-80160000D02*
X74110000Y-80160000D01*
X70670000Y-77320000D02*
X70670000Y-80160000D01*
X68610000Y-51920000D02*
X68610000Y-54760000D01*
X68850000Y-51920000D02*
X68850000Y-54760000D01*
X68730000Y-51920000D02*
X68730000Y-54760000D01*
X73690000Y-53340000D02*
X71570000Y-53340000D01*
X66010000Y-53340000D02*
X68130000Y-53340000D01*
X71570000Y-51920000D02*
X68130000Y-51920000D01*
X71570000Y-54760000D02*
X71570000Y-51920000D01*
X68130000Y-54760000D02*
X71570000Y-54760000D01*
X68130000Y-51920000D02*
X68130000Y-54760000D01*
X57180000Y-26520000D02*
X57180000Y-29360000D01*
X57420000Y-26520000D02*
X57420000Y-29360000D01*
X57300000Y-26520000D02*
X57300000Y-29360000D01*
X62260000Y-27940000D02*
X60140000Y-27940000D01*
X54580000Y-27940000D02*
X56700000Y-27940000D01*
X60140000Y-26520000D02*
X56700000Y-26520000D01*
X60140000Y-29360000D02*
X60140000Y-26520000D01*
X56700000Y-29360000D02*
X60140000Y-29360000D01*
X56700000Y-26520000D02*
X56700000Y-29360000D01*
X35590000Y-77320000D02*
X35590000Y-80160000D01*
X35830000Y-77320000D02*
X35830000Y-80160000D01*
X35710000Y-77320000D02*
X35710000Y-80160000D01*
X40670000Y-78740000D02*
X38550000Y-78740000D01*
X32990000Y-78740000D02*
X35110000Y-78740000D01*
X38550000Y-77320000D02*
X35110000Y-77320000D01*
X38550000Y-80160000D02*
X38550000Y-77320000D01*
X35110000Y-80160000D02*
X38550000Y-80160000D01*
X35110000Y-77320000D02*
X35110000Y-80160000D01*
X44480000Y-51920000D02*
X44480000Y-54760000D01*
X44720000Y-51920000D02*
X44720000Y-54760000D01*
X44600000Y-51920000D02*
X44600000Y-54760000D01*
X49560000Y-53340000D02*
X47440000Y-53340000D01*
X41880000Y-53340000D02*
X44000000Y-53340000D01*
X47440000Y-51920000D02*
X44000000Y-51920000D01*
X47440000Y-54760000D02*
X47440000Y-51920000D01*
X44000000Y-54760000D02*
X47440000Y-54760000D01*
X44000000Y-51920000D02*
X44000000Y-54760000D01*
X35590000Y-26520000D02*
X35590000Y-29360000D01*
X35830000Y-26520000D02*
X35830000Y-29360000D01*
X35710000Y-26520000D02*
X35710000Y-29360000D01*
X40670000Y-27940000D02*
X38550000Y-27940000D01*
X32990000Y-27940000D02*
X35110000Y-27940000D01*
X38550000Y-26520000D02*
X35110000Y-26520000D01*
X38550000Y-29360000D02*
X38550000Y-26520000D01*
X35110000Y-29360000D02*
X38550000Y-29360000D01*
X35110000Y-26520000D02*
X35110000Y-29360000D01*
D12*
X44386666Y-33170761D02*
X44529523Y-33218380D01*
X44767619Y-33218380D01*
X44862857Y-33170761D01*
X44910476Y-33123142D01*
X44958095Y-33027904D01*
X44958095Y-32932666D01*
X44910476Y-32837428D01*
X44862857Y-32789809D01*
X44767619Y-32742190D01*
X44577142Y-32694571D01*
X44481904Y-32646952D01*
X44434285Y-32599333D01*
X44386666Y-32504095D01*
X44386666Y-32408857D01*
X44434285Y-32313619D01*
X44481904Y-32266000D01*
X44577142Y-32218380D01*
X44815238Y-32218380D01*
X44958095Y-32266000D01*
X45291428Y-32218380D02*
X45529523Y-33218380D01*
X45720000Y-32504095D01*
X45910476Y-33218380D01*
X46148571Y-32218380D01*
X46481904Y-32313619D02*
X46529523Y-32266000D01*
X46624761Y-32218380D01*
X46862857Y-32218380D01*
X46958095Y-32266000D01*
X47005714Y-32313619D01*
X47053333Y-32408857D01*
X47053333Y-32504095D01*
X47005714Y-32646952D01*
X46434285Y-33218380D01*
X47053333Y-33218380D01*
X57658095Y-75652380D02*
X57658095Y-76461904D01*
X57705714Y-76557142D01*
X57753333Y-76604761D01*
X57848571Y-76652380D01*
X58039047Y-76652380D01*
X58134285Y-76604761D01*
X58181904Y-76557142D01*
X58229523Y-76461904D01*
X58229523Y-75652380D01*
X58658095Y-75747619D02*
X58705714Y-75700000D01*
X58800952Y-75652380D01*
X59039047Y-75652380D01*
X59134285Y-75700000D01*
X59181904Y-75747619D01*
X59229523Y-75842857D01*
X59229523Y-75938095D01*
X59181904Y-76080952D01*
X58610476Y-76652380D01*
X59229523Y-76652380D01*
X35496666Y-7770761D02*
X35639523Y-7818380D01*
X35877619Y-7818380D01*
X35972857Y-7770761D01*
X36020476Y-7723142D01*
X36068095Y-7627904D01*
X36068095Y-7532666D01*
X36020476Y-7437428D01*
X35972857Y-7389809D01*
X35877619Y-7342190D01*
X35687142Y-7294571D01*
X35591904Y-7246952D01*
X35544285Y-7199333D01*
X35496666Y-7104095D01*
X35496666Y-7008857D01*
X35544285Y-6913619D01*
X35591904Y-6866000D01*
X35687142Y-6818380D01*
X35925238Y-6818380D01*
X36068095Y-6866000D01*
X36401428Y-6818380D02*
X36639523Y-7818380D01*
X36830000Y-7104095D01*
X37020476Y-7818380D01*
X37258571Y-6818380D01*
X38163333Y-7818380D02*
X37591904Y-7818380D01*
X37877619Y-7818380D02*
X37877619Y-6818380D01*
X37782380Y-6961238D01*
X37687142Y-7056476D01*
X37591904Y-7104095D01*
D13*
X10379523Y-31641142D02*
X11407619Y-31641142D01*
X11528571Y-31568571D01*
X11589047Y-31496000D01*
X11649523Y-31350857D01*
X11649523Y-31060571D01*
X11589047Y-30915428D01*
X11528571Y-30842857D01*
X11407619Y-30770285D01*
X10379523Y-30770285D01*
X11649523Y-29246285D02*
X11649523Y-30117142D01*
X11649523Y-29681714D02*
X10379523Y-29681714D01*
X10560952Y-29826857D01*
X10681904Y-29972000D01*
X10742380Y-30117142D01*
D12*
X11366666Y-56284761D02*
X11509523Y-56332380D01*
X11747619Y-56332380D01*
X11842857Y-56284761D01*
X11890476Y-56237142D01*
X11938095Y-56141904D01*
X11938095Y-56046666D01*
X11890476Y-55951428D01*
X11842857Y-55903809D01*
X11747619Y-55856190D01*
X11557142Y-55808571D01*
X11461904Y-55760952D01*
X11414285Y-55713333D01*
X11366666Y-55618095D01*
X11366666Y-55522857D01*
X11414285Y-55427619D01*
X11461904Y-55380000D01*
X11557142Y-55332380D01*
X11795238Y-55332380D01*
X11938095Y-55380000D01*
X12271428Y-55332380D02*
X12509523Y-56332380D01*
X12700000Y-55618095D01*
X12890476Y-56332380D01*
X13128571Y-55332380D01*
X13557142Y-56332380D02*
X13747619Y-56332380D01*
X13842857Y-56284761D01*
X13890476Y-56237142D01*
X13985714Y-56094285D01*
X14033333Y-55903809D01*
X14033333Y-55522857D01*
X13985714Y-55427619D01*
X13938095Y-55380000D01*
X13842857Y-55332380D01*
X13652380Y-55332380D01*
X13557142Y-55380000D01*
X13509523Y-55427619D01*
X13461904Y-55522857D01*
X13461904Y-55760952D01*
X13509523Y-55856190D01*
X13557142Y-55903809D01*
X13652380Y-55951428D01*
X13842857Y-55951428D01*
X13938095Y-55903809D01*
X13985714Y-55856190D01*
X14033333Y-55760952D01*
X78676666Y-58570761D02*
X78819523Y-58618380D01*
X79057619Y-58618380D01*
X79152857Y-58570761D01*
X79200476Y-58523142D01*
X79248095Y-58427904D01*
X79248095Y-58332666D01*
X79200476Y-58237428D01*
X79152857Y-58189809D01*
X79057619Y-58142190D01*
X78867142Y-58094571D01*
X78771904Y-58046952D01*
X78724285Y-57999333D01*
X78676666Y-57904095D01*
X78676666Y-57808857D01*
X78724285Y-57713619D01*
X78771904Y-57666000D01*
X78867142Y-57618380D01*
X79105238Y-57618380D01*
X79248095Y-57666000D01*
X79581428Y-57618380D02*
X79819523Y-58618380D01*
X80010000Y-57904095D01*
X80200476Y-58618380D01*
X80438571Y-57618380D01*
X80962380Y-58046952D02*
X80867142Y-57999333D01*
X80819523Y-57951714D01*
X80771904Y-57856476D01*
X80771904Y-57808857D01*
X80819523Y-57713619D01*
X80867142Y-57666000D01*
X80962380Y-57618380D01*
X81152857Y-57618380D01*
X81248095Y-57666000D01*
X81295714Y-57713619D01*
X81343333Y-57808857D01*
X81343333Y-57856476D01*
X81295714Y-57951714D01*
X81248095Y-57999333D01*
X81152857Y-58046952D01*
X80962380Y-58046952D01*
X80867142Y-58094571D01*
X80819523Y-58142190D01*
X80771904Y-58237428D01*
X80771904Y-58427904D01*
X80819523Y-58523142D01*
X80867142Y-58570761D01*
X80962380Y-58618380D01*
X81152857Y-58618380D01*
X81248095Y-58570761D01*
X81295714Y-58523142D01*
X81343333Y-58427904D01*
X81343333Y-58237428D01*
X81295714Y-58142190D01*
X81248095Y-58094571D01*
X81152857Y-58046952D01*
X87566666Y-33170761D02*
X87709523Y-33218380D01*
X87947619Y-33218380D01*
X88042857Y-33170761D01*
X88090476Y-33123142D01*
X88138095Y-33027904D01*
X88138095Y-32932666D01*
X88090476Y-32837428D01*
X88042857Y-32789809D01*
X87947619Y-32742190D01*
X87757142Y-32694571D01*
X87661904Y-32646952D01*
X87614285Y-32599333D01*
X87566666Y-32504095D01*
X87566666Y-32408857D01*
X87614285Y-32313619D01*
X87661904Y-32266000D01*
X87757142Y-32218380D01*
X87995238Y-32218380D01*
X88138095Y-32266000D01*
X88471428Y-32218380D02*
X88709523Y-33218380D01*
X88900000Y-32504095D01*
X89090476Y-33218380D01*
X89328571Y-32218380D01*
X89614285Y-32218380D02*
X90280952Y-32218380D01*
X89852380Y-33218380D01*
X78676666Y-7770761D02*
X78819523Y-7818380D01*
X79057619Y-7818380D01*
X79152857Y-7770761D01*
X79200476Y-7723142D01*
X79248095Y-7627904D01*
X79248095Y-7532666D01*
X79200476Y-7437428D01*
X79152857Y-7389809D01*
X79057619Y-7342190D01*
X78867142Y-7294571D01*
X78771904Y-7246952D01*
X78724285Y-7199333D01*
X78676666Y-7104095D01*
X78676666Y-7008857D01*
X78724285Y-6913619D01*
X78771904Y-6866000D01*
X78867142Y-6818380D01*
X79105238Y-6818380D01*
X79248095Y-6866000D01*
X79581428Y-6818380D02*
X79819523Y-7818380D01*
X80010000Y-7104095D01*
X80200476Y-7818380D01*
X80438571Y-6818380D01*
X81248095Y-6818380D02*
X81057619Y-6818380D01*
X80962380Y-6866000D01*
X80914761Y-6913619D01*
X80819523Y-7056476D01*
X80771904Y-7246952D01*
X80771904Y-7627904D01*
X80819523Y-7723142D01*
X80867142Y-7770761D01*
X80962380Y-7818380D01*
X81152857Y-7818380D01*
X81248095Y-7770761D01*
X81295714Y-7723142D01*
X81343333Y-7627904D01*
X81343333Y-7389809D01*
X81295714Y-7294571D01*
X81248095Y-7246952D01*
X81152857Y-7199333D01*
X80962380Y-7199333D01*
X80867142Y-7246952D01*
X80819523Y-7294571D01*
X80771904Y-7389809D01*
X65976666Y-33170761D02*
X66119523Y-33218380D01*
X66357619Y-33218380D01*
X66452857Y-33170761D01*
X66500476Y-33123142D01*
X66548095Y-33027904D01*
X66548095Y-32932666D01*
X66500476Y-32837428D01*
X66452857Y-32789809D01*
X66357619Y-32742190D01*
X66167142Y-32694571D01*
X66071904Y-32646952D01*
X66024285Y-32599333D01*
X65976666Y-32504095D01*
X65976666Y-32408857D01*
X66024285Y-32313619D01*
X66071904Y-32266000D01*
X66167142Y-32218380D01*
X66405238Y-32218380D01*
X66548095Y-32266000D01*
X66881428Y-32218380D02*
X67119523Y-33218380D01*
X67310000Y-32504095D01*
X67500476Y-33218380D01*
X67738571Y-32218380D01*
X68595714Y-32218380D02*
X68119523Y-32218380D01*
X68071904Y-32694571D01*
X68119523Y-32646952D01*
X68214761Y-32599333D01*
X68452857Y-32599333D01*
X68548095Y-32646952D01*
X68595714Y-32694571D01*
X68643333Y-32789809D01*
X68643333Y-33027904D01*
X68595714Y-33123142D01*
X68548095Y-33170761D01*
X68452857Y-33218380D01*
X68214761Y-33218380D01*
X68119523Y-33170761D01*
X68071904Y-33123142D01*
X57086666Y-7770761D02*
X57229523Y-7818380D01*
X57467619Y-7818380D01*
X57562857Y-7770761D01*
X57610476Y-7723142D01*
X57658095Y-7627904D01*
X57658095Y-7532666D01*
X57610476Y-7437428D01*
X57562857Y-7389809D01*
X57467619Y-7342190D01*
X57277142Y-7294571D01*
X57181904Y-7246952D01*
X57134285Y-7199333D01*
X57086666Y-7104095D01*
X57086666Y-7008857D01*
X57134285Y-6913619D01*
X57181904Y-6866000D01*
X57277142Y-6818380D01*
X57515238Y-6818380D01*
X57658095Y-6866000D01*
X57991428Y-6818380D02*
X58229523Y-7818380D01*
X58420000Y-7104095D01*
X58610476Y-7818380D01*
X58848571Y-6818380D01*
X59658095Y-7151714D02*
X59658095Y-7818380D01*
X59420000Y-6770761D02*
X59181904Y-7485047D01*
X59800952Y-7485047D01*
X35496666Y-58570761D02*
X35639523Y-58618380D01*
X35877619Y-58618380D01*
X35972857Y-58570761D01*
X36020476Y-58523142D01*
X36068095Y-58427904D01*
X36068095Y-58332666D01*
X36020476Y-58237428D01*
X35972857Y-58189809D01*
X35877619Y-58142190D01*
X35687142Y-58094571D01*
X35591904Y-58046952D01*
X35544285Y-57999333D01*
X35496666Y-57904095D01*
X35496666Y-57808857D01*
X35544285Y-57713619D01*
X35591904Y-57666000D01*
X35687142Y-57618380D01*
X35925238Y-57618380D01*
X36068095Y-57666000D01*
X36401428Y-57618380D02*
X36639523Y-58618380D01*
X36830000Y-57904095D01*
X37020476Y-58618380D01*
X37258571Y-57618380D01*
X37544285Y-57618380D02*
X38163333Y-57618380D01*
X37830000Y-57999333D01*
X37972857Y-57999333D01*
X38068095Y-58046952D01*
X38115714Y-58094571D01*
X38163333Y-58189809D01*
X38163333Y-58427904D01*
X38115714Y-58523142D01*
X38068095Y-58570761D01*
X37972857Y-58618380D01*
X37687142Y-58618380D01*
X37591904Y-58570761D01*
X37544285Y-58523142D01*
X86891904Y-76772380D02*
X86891904Y-75772380D01*
X87130000Y-75772380D01*
X87272857Y-75820000D01*
X87368095Y-75915238D01*
X87415714Y-76010476D01*
X87463333Y-76200952D01*
X87463333Y-76343809D01*
X87415714Y-76534285D01*
X87368095Y-76629523D01*
X87272857Y-76724761D01*
X87130000Y-76772380D01*
X86891904Y-76772380D01*
X87939523Y-76772380D02*
X88130000Y-76772380D01*
X88225238Y-76724761D01*
X88272857Y-76677142D01*
X88368095Y-76534285D01*
X88415714Y-76343809D01*
X88415714Y-75962857D01*
X88368095Y-75867619D01*
X88320476Y-75820000D01*
X88225238Y-75772380D01*
X88034761Y-75772380D01*
X87939523Y-75820000D01*
X87891904Y-75867619D01*
X87844285Y-75962857D01*
X87844285Y-76200952D01*
X87891904Y-76296190D01*
X87939523Y-76343809D01*
X88034761Y-76391428D01*
X88225238Y-76391428D01*
X88320476Y-76343809D01*
X88368095Y-76296190D01*
X88415714Y-76200952D01*
X82288095Y-77192380D02*
X82288095Y-76192380D01*
X82859523Y-77192380D02*
X82430952Y-76620952D01*
X82859523Y-76192380D02*
X82288095Y-76763809D01*
X88161904Y-51372380D02*
X88161904Y-50372380D01*
X88400000Y-50372380D01*
X88542857Y-50420000D01*
X88638095Y-50515238D01*
X88685714Y-50610476D01*
X88733333Y-50800952D01*
X88733333Y-50943809D01*
X88685714Y-51134285D01*
X88638095Y-51229523D01*
X88542857Y-51324761D01*
X88400000Y-51372380D01*
X88161904Y-51372380D01*
X89304761Y-50800952D02*
X89209523Y-50753333D01*
X89161904Y-50705714D01*
X89114285Y-50610476D01*
X89114285Y-50562857D01*
X89161904Y-50467619D01*
X89209523Y-50420000D01*
X89304761Y-50372380D01*
X89495238Y-50372380D01*
X89590476Y-50420000D01*
X89638095Y-50467619D01*
X89685714Y-50562857D01*
X89685714Y-50610476D01*
X89638095Y-50705714D01*
X89590476Y-50753333D01*
X89495238Y-50800952D01*
X89304761Y-50800952D01*
X89209523Y-50848571D01*
X89161904Y-50896190D01*
X89114285Y-50991428D01*
X89114285Y-51181904D01*
X89161904Y-51277142D01*
X89209523Y-51324761D01*
X89304761Y-51372380D01*
X89495238Y-51372380D01*
X89590476Y-51324761D01*
X89638095Y-51277142D01*
X89685714Y-51181904D01*
X89685714Y-50991428D01*
X89638095Y-50896190D01*
X89590476Y-50848571D01*
X89495238Y-50800952D01*
X83558095Y-51792380D02*
X83558095Y-50792380D01*
X84129523Y-51792380D02*
X83700952Y-51220952D01*
X84129523Y-50792380D02*
X83558095Y-51363809D01*
X79271904Y-25972380D02*
X79271904Y-24972380D01*
X79510000Y-24972380D01*
X79652857Y-25020000D01*
X79748095Y-25115238D01*
X79795714Y-25210476D01*
X79843333Y-25400952D01*
X79843333Y-25543809D01*
X79795714Y-25734285D01*
X79748095Y-25829523D01*
X79652857Y-25924761D01*
X79510000Y-25972380D01*
X79271904Y-25972380D01*
X80176666Y-24972380D02*
X80843333Y-24972380D01*
X80414761Y-25972380D01*
X74668095Y-26392380D02*
X74668095Y-25392380D01*
X75239523Y-26392380D02*
X74810952Y-25820952D01*
X75239523Y-25392380D02*
X74668095Y-25963809D01*
X71651904Y-76772380D02*
X71651904Y-75772380D01*
X71890000Y-75772380D01*
X72032857Y-75820000D01*
X72128095Y-75915238D01*
X72175714Y-76010476D01*
X72223333Y-76200952D01*
X72223333Y-76343809D01*
X72175714Y-76534285D01*
X72128095Y-76629523D01*
X72032857Y-76724761D01*
X71890000Y-76772380D01*
X71651904Y-76772380D01*
X73080476Y-75772380D02*
X72890000Y-75772380D01*
X72794761Y-75820000D01*
X72747142Y-75867619D01*
X72651904Y-76010476D01*
X72604285Y-76200952D01*
X72604285Y-76581904D01*
X72651904Y-76677142D01*
X72699523Y-76724761D01*
X72794761Y-76772380D01*
X72985238Y-76772380D01*
X73080476Y-76724761D01*
X73128095Y-76677142D01*
X73175714Y-76581904D01*
X73175714Y-76343809D01*
X73128095Y-76248571D01*
X73080476Y-76200952D01*
X72985238Y-76153333D01*
X72794761Y-76153333D01*
X72699523Y-76200952D01*
X72651904Y-76248571D01*
X72604285Y-76343809D01*
X67048095Y-77192380D02*
X67048095Y-76192380D01*
X67619523Y-77192380D02*
X67190952Y-76620952D01*
X67619523Y-76192380D02*
X67048095Y-76763809D01*
X69111904Y-51372380D02*
X69111904Y-50372380D01*
X69350000Y-50372380D01*
X69492857Y-50420000D01*
X69588095Y-50515238D01*
X69635714Y-50610476D01*
X69683333Y-50800952D01*
X69683333Y-50943809D01*
X69635714Y-51134285D01*
X69588095Y-51229523D01*
X69492857Y-51324761D01*
X69350000Y-51372380D01*
X69111904Y-51372380D01*
X70588095Y-50372380D02*
X70111904Y-50372380D01*
X70064285Y-50848571D01*
X70111904Y-50800952D01*
X70207142Y-50753333D01*
X70445238Y-50753333D01*
X70540476Y-50800952D01*
X70588095Y-50848571D01*
X70635714Y-50943809D01*
X70635714Y-51181904D01*
X70588095Y-51277142D01*
X70540476Y-51324761D01*
X70445238Y-51372380D01*
X70207142Y-51372380D01*
X70111904Y-51324761D01*
X70064285Y-51277142D01*
X64508095Y-51792380D02*
X64508095Y-50792380D01*
X65079523Y-51792380D02*
X64650952Y-51220952D01*
X65079523Y-50792380D02*
X64508095Y-51363809D01*
X57681904Y-25972380D02*
X57681904Y-24972380D01*
X57920000Y-24972380D01*
X58062857Y-25020000D01*
X58158095Y-25115238D01*
X58205714Y-25210476D01*
X58253333Y-25400952D01*
X58253333Y-25543809D01*
X58205714Y-25734285D01*
X58158095Y-25829523D01*
X58062857Y-25924761D01*
X57920000Y-25972380D01*
X57681904Y-25972380D01*
X59110476Y-25305714D02*
X59110476Y-25972380D01*
X58872380Y-24924761D02*
X58634285Y-25639047D01*
X59253333Y-25639047D01*
X53078095Y-26392380D02*
X53078095Y-25392380D01*
X53649523Y-26392380D02*
X53220952Y-25820952D01*
X53649523Y-25392380D02*
X53078095Y-25963809D01*
X36091904Y-76772380D02*
X36091904Y-75772380D01*
X36330000Y-75772380D01*
X36472857Y-75820000D01*
X36568095Y-75915238D01*
X36615714Y-76010476D01*
X36663333Y-76200952D01*
X36663333Y-76343809D01*
X36615714Y-76534285D01*
X36568095Y-76629523D01*
X36472857Y-76724761D01*
X36330000Y-76772380D01*
X36091904Y-76772380D01*
X36996666Y-75772380D02*
X37615714Y-75772380D01*
X37282380Y-76153333D01*
X37425238Y-76153333D01*
X37520476Y-76200952D01*
X37568095Y-76248571D01*
X37615714Y-76343809D01*
X37615714Y-76581904D01*
X37568095Y-76677142D01*
X37520476Y-76724761D01*
X37425238Y-76772380D01*
X37139523Y-76772380D01*
X37044285Y-76724761D01*
X36996666Y-76677142D01*
X31488095Y-77192380D02*
X31488095Y-76192380D01*
X32059523Y-77192380D02*
X31630952Y-76620952D01*
X32059523Y-76192380D02*
X31488095Y-76763809D01*
X44981904Y-51372380D02*
X44981904Y-50372380D01*
X45220000Y-50372380D01*
X45362857Y-50420000D01*
X45458095Y-50515238D01*
X45505714Y-50610476D01*
X45553333Y-50800952D01*
X45553333Y-50943809D01*
X45505714Y-51134285D01*
X45458095Y-51229523D01*
X45362857Y-51324761D01*
X45220000Y-51372380D01*
X44981904Y-51372380D01*
X45934285Y-50467619D02*
X45981904Y-50420000D01*
X46077142Y-50372380D01*
X46315238Y-50372380D01*
X46410476Y-50420000D01*
X46458095Y-50467619D01*
X46505714Y-50562857D01*
X46505714Y-50658095D01*
X46458095Y-50800952D01*
X45886666Y-51372380D01*
X46505714Y-51372380D01*
X40378095Y-51792380D02*
X40378095Y-50792380D01*
X40949523Y-51792380D02*
X40520952Y-51220952D01*
X40949523Y-50792380D02*
X40378095Y-51363809D01*
X36091904Y-25972380D02*
X36091904Y-24972380D01*
X36330000Y-24972380D01*
X36472857Y-25020000D01*
X36568095Y-25115238D01*
X36615714Y-25210476D01*
X36663333Y-25400952D01*
X36663333Y-25543809D01*
X36615714Y-25734285D01*
X36568095Y-25829523D01*
X36472857Y-25924761D01*
X36330000Y-25972380D01*
X36091904Y-25972380D01*
X37615714Y-25972380D02*
X37044285Y-25972380D01*
X37330000Y-25972380D02*
X37330000Y-24972380D01*
X37234761Y-25115238D01*
X37139523Y-25210476D01*
X37044285Y-25258095D01*
X31488095Y-26392380D02*
X31488095Y-25392380D01*
X32059523Y-26392380D02*
X31630952Y-25820952D01*
X32059523Y-25392380D02*
X31488095Y-25963809D01*
M02*
