G04 #@! TF.GenerationSoftware,KiCad,Pcbnew,5.1.4*
G04 #@! TF.CreationDate,2019-10-24T02:20:19+09:00*
G04 #@! TF.ProjectId,key_prac,6b65795f-7072-4616-932e-6b696361645f,rev?*
G04 #@! TF.SameCoordinates,PX3072580PY3dc4fd0*
G04 #@! TF.FileFunction,Copper,L2,Bot*
G04 #@! TF.FilePolarity,Positive*
%FSLAX46Y46*%
G04 Gerber Fmt 4.6, Leading zero omitted, Abs format (unit mm)*
G04 Created by KiCad (PCBNEW 5.1.4) date 2019-10-24 02:20:19*
%MOMM*%
%LPD*%
G04 APERTURE LIST*
%ADD10C,2.200000*%
%ADD11C,1.524000*%
%ADD12C,1.752600*%
%ADD13R,1.752600X1.752600*%
%ADD14O,2.000000X2.000000*%
%ADD15R,2.000000X2.000000*%
%ADD16C,0.800000*%
%ADD17C,0.250000*%
G04 APERTURE END LIST*
D10*
X41910000Y-38100000D03*
X48260000Y-35560000D03*
D11*
X50546000Y-58013600D03*
X50546000Y-71526400D03*
X66294000Y-71526400D03*
X66294000Y-58013600D03*
X61722000Y-77622400D03*
X61722000Y-73152000D03*
X55118000Y-77622400D03*
X55118000Y-73152000D03*
X68326000Y-67310000D03*
X68326000Y-64770000D03*
X68326000Y-62230000D03*
X60960000Y-54864000D03*
X55880000Y-54864000D03*
X58420000Y-54864000D03*
D10*
X33020000Y-12700000D03*
X39370000Y-10160000D03*
D12*
X20320000Y-16510000D03*
X20320000Y-19050000D03*
X20320000Y-21590000D03*
X20320000Y-24130000D03*
X20320000Y-26670000D03*
X20320000Y-29210000D03*
X20320000Y-31750000D03*
X20320000Y-34290000D03*
X20320000Y-36830000D03*
X20320000Y-39370000D03*
X20320000Y-41910000D03*
X20320000Y-44450000D03*
X5080000Y-44450000D03*
X5080000Y-41910000D03*
X5080000Y-39370000D03*
X5080000Y-36830000D03*
X5080000Y-34290000D03*
X5080000Y-31750000D03*
X5080000Y-29210000D03*
X5080000Y-26670000D03*
X5080000Y-24130000D03*
X5080000Y-21590000D03*
X5080000Y-19050000D03*
D13*
X5080000Y-16510000D03*
D11*
X15240000Y-53340000D03*
X10160000Y-53340000D03*
D10*
X76200000Y-63500000D03*
X82550000Y-60960000D03*
X85090000Y-38100000D03*
X91440000Y-35560000D03*
X76200000Y-12700000D03*
X82550000Y-10160000D03*
X63500000Y-38100000D03*
X69850000Y-35560000D03*
X54610000Y-12700000D03*
X60960000Y-10160000D03*
X33020000Y-63500000D03*
X39370000Y-60960000D03*
D14*
X92710000Y-78740000D03*
D15*
X82550000Y-78740000D03*
D14*
X93980000Y-53340000D03*
D15*
X83820000Y-53340000D03*
D14*
X85090000Y-27940000D03*
D15*
X74930000Y-27940000D03*
D14*
X77470000Y-78740000D03*
D15*
X67310000Y-78740000D03*
D14*
X74930000Y-53340000D03*
D15*
X64770000Y-53340000D03*
D14*
X63500000Y-27940000D03*
D15*
X53340000Y-27940000D03*
D14*
X41910000Y-78740000D03*
D15*
X31750000Y-78740000D03*
D14*
X50800000Y-53340000D03*
D15*
X40640000Y-53340000D03*
D14*
X41910000Y-27940000D03*
D15*
X31750000Y-27940000D03*
D16*
X20320000Y-53340000D03*
D17*
X84090001Y-26940001D02*
X85090000Y-27940000D01*
X83764999Y-26614999D02*
X84090001Y-26940001D01*
X64825001Y-26614999D02*
X83764999Y-26614999D01*
X63500000Y-27940000D02*
X64825001Y-26614999D01*
X42909999Y-28939999D02*
X41910000Y-27940000D01*
X62174999Y-29265001D02*
X43235001Y-29265001D01*
X43235001Y-29265001D02*
X42909999Y-28939999D01*
X63500000Y-27940000D02*
X62174999Y-29265001D01*
X39370000Y-30480000D02*
X41910000Y-27940000D01*
X19050000Y-30480000D02*
X39370000Y-30480000D01*
X5080000Y-39370000D02*
X10160000Y-39370000D01*
X10160000Y-39370000D02*
X13335000Y-36195000D01*
X13335000Y-36195000D02*
X19050000Y-30480000D01*
X77470000Y-55880000D02*
X75929999Y-54339999D01*
X75929999Y-54339999D02*
X74930000Y-53340000D01*
X91440000Y-55880000D02*
X77470000Y-55880000D01*
X93980000Y-53340000D02*
X91440000Y-55880000D01*
X51799999Y-52340001D02*
X50800000Y-53340000D01*
X53340000Y-50800000D02*
X51799999Y-52340001D01*
X74930000Y-53340000D02*
X72390000Y-50800000D01*
X53340000Y-50800000D02*
X55880000Y-48260000D01*
X55880000Y-48260000D02*
X69850000Y-48260000D01*
X69850000Y-48260000D02*
X72390000Y-50800000D01*
X47625000Y-50165000D02*
X50800000Y-53340000D01*
X13335000Y-50165000D02*
X47625000Y-50165000D01*
X5080000Y-41910000D02*
X13335000Y-50165000D01*
X30489999Y-80065001D02*
X40584999Y-80065001D01*
X5080000Y-54655002D02*
X30489999Y-80065001D01*
X40910001Y-79739999D02*
X41910000Y-78740000D01*
X40584999Y-80065001D02*
X40910001Y-79739999D01*
X5080000Y-44450000D02*
X5080000Y-54655002D01*
X53340000Y-27940000D02*
X53340000Y-26690000D01*
X64770000Y-53340000D02*
X63500000Y-52070000D01*
X13970000Y-15240000D02*
X19050000Y-10160000D01*
X12700000Y-15240000D02*
X13970000Y-15240000D01*
X12700000Y-24130000D02*
X12700000Y-15240000D01*
X5080000Y-31750000D02*
X12700000Y-24130000D01*
X19050000Y-10160000D02*
X39370000Y-10160000D01*
X6319275Y-34290000D02*
X15240000Y-25369275D01*
X5080000Y-34290000D02*
X6319275Y-34290000D01*
X15240000Y-25369275D02*
X15240000Y-19812074D01*
X15240000Y-19812074D02*
X21082074Y-13970000D01*
X21082074Y-13970000D02*
X25400000Y-13970000D01*
X25400000Y-13970000D02*
X30480000Y-19050000D01*
X30480000Y-19050000D02*
X44450000Y-19050000D01*
X53340000Y-10160000D02*
X60960000Y-10160000D01*
X44450000Y-19050000D02*
X53340000Y-10160000D01*
X81450001Y-9060001D02*
X82550000Y-10160000D01*
X12218591Y-8734999D02*
X81124999Y-8734999D01*
X5587926Y-25400000D02*
X8439990Y-22547936D01*
X8439990Y-22547936D02*
X8439991Y-12513599D01*
X3878699Y-26093375D02*
X4572074Y-25400000D01*
X8439991Y-12513599D02*
X12218591Y-8734999D01*
X3878699Y-35628699D02*
X3878699Y-26093375D01*
X81124999Y-8734999D02*
X81450001Y-9060001D01*
X4572074Y-25400000D02*
X5587926Y-25400000D01*
X5080000Y-36830000D02*
X3878699Y-35628699D01*
X60960000Y-59944000D02*
X68326000Y-67310000D01*
X60960000Y-54864000D02*
X60960000Y-59944000D01*
X69087999Y-65531999D02*
X68326000Y-64770000D01*
X69413001Y-65857001D02*
X69087999Y-65531999D01*
X69413001Y-67831761D02*
X69413001Y-65857001D01*
X68847761Y-68397001D02*
X69413001Y-67831761D01*
X67804239Y-68397001D02*
X68847761Y-68397001D01*
X58507839Y-59100601D02*
X67804239Y-68397001D01*
X26080601Y-59100601D02*
X58507839Y-59100601D01*
X20320000Y-53340000D02*
X26080601Y-59100601D01*
M02*
