G04 #@! TF.GenerationSoftware,KiCad,Pcbnew,5.1.4*
G04 #@! TF.CreationDate,2019-10-24T02:20:19+09:00*
G04 #@! TF.ProjectId,key_prac,6b65795f-7072-4616-932e-6b696361645f,rev?*
G04 #@! TF.SameCoordinates,PX3072580PY3dc4fd0*
G04 #@! TF.FileFunction,Soldermask,Top*
G04 #@! TF.FilePolarity,Negative*
%FSLAX46Y46*%
G04 Gerber Fmt 4.6, Leading zero omitted, Abs format (unit mm)*
G04 Created by KiCad (PCBNEW 5.1.4) date 2019-10-24 02:20:19*
%MOMM*%
%LPD*%
G04 APERTURE LIST*
%ADD10C,0.100000*%
G04 APERTURE END LIST*
D10*
G36*
X92813097Y-77694069D02*
G01*
X92916032Y-77704207D01*
X93114146Y-77764305D01*
X93114149Y-77764306D01*
X93210975Y-77816061D01*
X93296729Y-77861897D01*
X93456765Y-77993235D01*
X93588103Y-78153271D01*
X93633939Y-78239025D01*
X93685694Y-78335851D01*
X93685695Y-78335854D01*
X93745793Y-78533968D01*
X93766085Y-78740000D01*
X93745793Y-78946032D01*
X93685695Y-79144146D01*
X93685694Y-79144149D01*
X93633939Y-79240975D01*
X93588103Y-79326729D01*
X93456765Y-79486765D01*
X93296729Y-79618103D01*
X93210975Y-79663939D01*
X93114149Y-79715694D01*
X93114146Y-79715695D01*
X92916032Y-79775793D01*
X92813097Y-79785931D01*
X92761631Y-79791000D01*
X92658369Y-79791000D01*
X92606903Y-79785931D01*
X92503968Y-79775793D01*
X92305854Y-79715695D01*
X92305851Y-79715694D01*
X92209025Y-79663939D01*
X92123271Y-79618103D01*
X91963235Y-79486765D01*
X91831897Y-79326729D01*
X91786061Y-79240975D01*
X91734306Y-79144149D01*
X91734305Y-79144146D01*
X91674207Y-78946032D01*
X91653915Y-78740000D01*
X91674207Y-78533968D01*
X91734305Y-78335854D01*
X91734306Y-78335851D01*
X91786061Y-78239025D01*
X91831897Y-78153271D01*
X91963235Y-77993235D01*
X92123271Y-77861897D01*
X92209025Y-77816061D01*
X92305851Y-77764306D01*
X92305854Y-77764305D01*
X92503968Y-77704207D01*
X92606903Y-77694069D01*
X92658369Y-77689000D01*
X92761631Y-77689000D01*
X92813097Y-77694069D01*
X92813097Y-77694069D01*
G37*
G36*
X42013097Y-77694069D02*
G01*
X42116032Y-77704207D01*
X42314146Y-77764305D01*
X42314149Y-77764306D01*
X42410975Y-77816061D01*
X42496729Y-77861897D01*
X42656765Y-77993235D01*
X42788103Y-78153271D01*
X42833939Y-78239025D01*
X42885694Y-78335851D01*
X42885695Y-78335854D01*
X42945793Y-78533968D01*
X42966085Y-78740000D01*
X42945793Y-78946032D01*
X42885695Y-79144146D01*
X42885694Y-79144149D01*
X42833939Y-79240975D01*
X42788103Y-79326729D01*
X42656765Y-79486765D01*
X42496729Y-79618103D01*
X42410975Y-79663939D01*
X42314149Y-79715694D01*
X42314146Y-79715695D01*
X42116032Y-79775793D01*
X42013097Y-79785931D01*
X41961631Y-79791000D01*
X41858369Y-79791000D01*
X41806903Y-79785931D01*
X41703968Y-79775793D01*
X41505854Y-79715695D01*
X41505851Y-79715694D01*
X41409025Y-79663939D01*
X41323271Y-79618103D01*
X41163235Y-79486765D01*
X41031897Y-79326729D01*
X40986061Y-79240975D01*
X40934306Y-79144149D01*
X40934305Y-79144146D01*
X40874207Y-78946032D01*
X40853915Y-78740000D01*
X40874207Y-78533968D01*
X40934305Y-78335854D01*
X40934306Y-78335851D01*
X40986061Y-78239025D01*
X41031897Y-78153271D01*
X41163235Y-77993235D01*
X41323271Y-77861897D01*
X41409025Y-77816061D01*
X41505851Y-77764306D01*
X41505854Y-77764305D01*
X41703968Y-77704207D01*
X41806903Y-77694069D01*
X41858369Y-77689000D01*
X41961631Y-77689000D01*
X42013097Y-77694069D01*
X42013097Y-77694069D01*
G37*
G36*
X32801000Y-79791000D02*
G01*
X30699000Y-79791000D01*
X30699000Y-77689000D01*
X32801000Y-77689000D01*
X32801000Y-79791000D01*
X32801000Y-79791000D01*
G37*
G36*
X68361000Y-79791000D02*
G01*
X66259000Y-79791000D01*
X66259000Y-77689000D01*
X68361000Y-77689000D01*
X68361000Y-79791000D01*
X68361000Y-79791000D01*
G37*
G36*
X83601000Y-79791000D02*
G01*
X81499000Y-79791000D01*
X81499000Y-77689000D01*
X83601000Y-77689000D01*
X83601000Y-79791000D01*
X83601000Y-79791000D01*
G37*
G36*
X77573097Y-77694069D02*
G01*
X77676032Y-77704207D01*
X77874146Y-77764305D01*
X77874149Y-77764306D01*
X77970975Y-77816061D01*
X78056729Y-77861897D01*
X78216765Y-77993235D01*
X78348103Y-78153271D01*
X78393939Y-78239025D01*
X78445694Y-78335851D01*
X78445695Y-78335854D01*
X78505793Y-78533968D01*
X78526085Y-78740000D01*
X78505793Y-78946032D01*
X78445695Y-79144146D01*
X78445694Y-79144149D01*
X78393939Y-79240975D01*
X78348103Y-79326729D01*
X78216765Y-79486765D01*
X78056729Y-79618103D01*
X77970975Y-79663939D01*
X77874149Y-79715694D01*
X77874146Y-79715695D01*
X77676032Y-79775793D01*
X77573097Y-79785931D01*
X77521631Y-79791000D01*
X77418369Y-79791000D01*
X77366903Y-79785931D01*
X77263968Y-79775793D01*
X77065854Y-79715695D01*
X77065851Y-79715694D01*
X76969025Y-79663939D01*
X76883271Y-79618103D01*
X76723235Y-79486765D01*
X76591897Y-79326729D01*
X76546061Y-79240975D01*
X76494306Y-79144149D01*
X76494305Y-79144146D01*
X76434207Y-78946032D01*
X76413915Y-78740000D01*
X76434207Y-78533968D01*
X76494305Y-78335854D01*
X76494306Y-78335851D01*
X76546061Y-78239025D01*
X76591897Y-78153271D01*
X76723235Y-77993235D01*
X76883271Y-77861897D01*
X76969025Y-77816061D01*
X77065851Y-77764306D01*
X77065854Y-77764305D01*
X77263968Y-77704207D01*
X77366903Y-77694069D01*
X77418369Y-77689000D01*
X77521631Y-77689000D01*
X77573097Y-77694069D01*
X77573097Y-77694069D01*
G37*
G36*
X61959142Y-76840642D02*
G01*
X62107101Y-76901929D01*
X62240255Y-76990899D01*
X62353501Y-77104145D01*
X62442471Y-77237299D01*
X62503758Y-77385258D01*
X62535000Y-77542325D01*
X62535000Y-77702475D01*
X62503758Y-77859542D01*
X62442471Y-78007501D01*
X62353501Y-78140655D01*
X62240255Y-78253901D01*
X62107101Y-78342871D01*
X61959142Y-78404158D01*
X61802075Y-78435400D01*
X61641925Y-78435400D01*
X61484858Y-78404158D01*
X61336899Y-78342871D01*
X61203745Y-78253901D01*
X61090499Y-78140655D01*
X61001529Y-78007501D01*
X60940242Y-77859542D01*
X60909000Y-77702475D01*
X60909000Y-77542325D01*
X60940242Y-77385258D01*
X61001529Y-77237299D01*
X61090499Y-77104145D01*
X61203745Y-76990899D01*
X61336899Y-76901929D01*
X61484858Y-76840642D01*
X61641925Y-76809400D01*
X61802075Y-76809400D01*
X61959142Y-76840642D01*
X61959142Y-76840642D01*
G37*
G36*
X55355142Y-76840642D02*
G01*
X55503101Y-76901929D01*
X55636255Y-76990899D01*
X55749501Y-77104145D01*
X55838471Y-77237299D01*
X55899758Y-77385258D01*
X55931000Y-77542325D01*
X55931000Y-77702475D01*
X55899758Y-77859542D01*
X55838471Y-78007501D01*
X55749501Y-78140655D01*
X55636255Y-78253901D01*
X55503101Y-78342871D01*
X55355142Y-78404158D01*
X55198075Y-78435400D01*
X55037925Y-78435400D01*
X54880858Y-78404158D01*
X54732899Y-78342871D01*
X54599745Y-78253901D01*
X54486499Y-78140655D01*
X54397529Y-78007501D01*
X54336242Y-77859542D01*
X54305000Y-77702475D01*
X54305000Y-77542325D01*
X54336242Y-77385258D01*
X54397529Y-77237299D01*
X54486499Y-77104145D01*
X54599745Y-76990899D01*
X54732899Y-76901929D01*
X54880858Y-76840642D01*
X55037925Y-76809400D01*
X55198075Y-76809400D01*
X55355142Y-76840642D01*
X55355142Y-76840642D01*
G37*
G36*
X55355142Y-72370242D02*
G01*
X55503101Y-72431529D01*
X55636255Y-72520499D01*
X55749501Y-72633745D01*
X55838471Y-72766899D01*
X55899758Y-72914858D01*
X55931000Y-73071925D01*
X55931000Y-73232075D01*
X55899758Y-73389142D01*
X55838471Y-73537101D01*
X55749501Y-73670255D01*
X55636255Y-73783501D01*
X55503101Y-73872471D01*
X55355142Y-73933758D01*
X55198075Y-73965000D01*
X55037925Y-73965000D01*
X54880858Y-73933758D01*
X54732899Y-73872471D01*
X54599745Y-73783501D01*
X54486499Y-73670255D01*
X54397529Y-73537101D01*
X54336242Y-73389142D01*
X54305000Y-73232075D01*
X54305000Y-73071925D01*
X54336242Y-72914858D01*
X54397529Y-72766899D01*
X54486499Y-72633745D01*
X54599745Y-72520499D01*
X54732899Y-72431529D01*
X54880858Y-72370242D01*
X55037925Y-72339000D01*
X55198075Y-72339000D01*
X55355142Y-72370242D01*
X55355142Y-72370242D01*
G37*
G36*
X61959142Y-72370242D02*
G01*
X62107101Y-72431529D01*
X62240255Y-72520499D01*
X62353501Y-72633745D01*
X62442471Y-72766899D01*
X62503758Y-72914858D01*
X62535000Y-73071925D01*
X62535000Y-73232075D01*
X62503758Y-73389142D01*
X62442471Y-73537101D01*
X62353501Y-73670255D01*
X62240255Y-73783501D01*
X62107101Y-73872471D01*
X61959142Y-73933758D01*
X61802075Y-73965000D01*
X61641925Y-73965000D01*
X61484858Y-73933758D01*
X61336899Y-73872471D01*
X61203745Y-73783501D01*
X61090499Y-73670255D01*
X61001529Y-73537101D01*
X60940242Y-73389142D01*
X60909000Y-73232075D01*
X60909000Y-73071925D01*
X60940242Y-72914858D01*
X61001529Y-72766899D01*
X61090499Y-72633745D01*
X61203745Y-72520499D01*
X61336899Y-72431529D01*
X61484858Y-72370242D01*
X61641925Y-72339000D01*
X61802075Y-72339000D01*
X61959142Y-72370242D01*
X61959142Y-72370242D01*
G37*
G36*
X66531142Y-70744642D02*
G01*
X66679101Y-70805929D01*
X66812255Y-70894899D01*
X66925501Y-71008145D01*
X67014471Y-71141299D01*
X67075758Y-71289258D01*
X67107000Y-71446325D01*
X67107000Y-71606475D01*
X67075758Y-71763542D01*
X67014471Y-71911501D01*
X66925501Y-72044655D01*
X66812255Y-72157901D01*
X66679101Y-72246871D01*
X66531142Y-72308158D01*
X66374075Y-72339400D01*
X66213925Y-72339400D01*
X66056858Y-72308158D01*
X65908899Y-72246871D01*
X65775745Y-72157901D01*
X65662499Y-72044655D01*
X65573529Y-71911501D01*
X65512242Y-71763542D01*
X65481000Y-71606475D01*
X65481000Y-71446325D01*
X65512242Y-71289258D01*
X65573529Y-71141299D01*
X65662499Y-71008145D01*
X65775745Y-70894899D01*
X65908899Y-70805929D01*
X66056858Y-70744642D01*
X66213925Y-70713400D01*
X66374075Y-70713400D01*
X66531142Y-70744642D01*
X66531142Y-70744642D01*
G37*
G36*
X50783142Y-70744642D02*
G01*
X50931101Y-70805929D01*
X51064255Y-70894899D01*
X51177501Y-71008145D01*
X51266471Y-71141299D01*
X51327758Y-71289258D01*
X51359000Y-71446325D01*
X51359000Y-71606475D01*
X51327758Y-71763542D01*
X51266471Y-71911501D01*
X51177501Y-72044655D01*
X51064255Y-72157901D01*
X50931101Y-72246871D01*
X50783142Y-72308158D01*
X50626075Y-72339400D01*
X50465925Y-72339400D01*
X50308858Y-72308158D01*
X50160899Y-72246871D01*
X50027745Y-72157901D01*
X49914499Y-72044655D01*
X49825529Y-71911501D01*
X49764242Y-71763542D01*
X49733000Y-71606475D01*
X49733000Y-71446325D01*
X49764242Y-71289258D01*
X49825529Y-71141299D01*
X49914499Y-71008145D01*
X50027745Y-70894899D01*
X50160899Y-70805929D01*
X50308858Y-70744642D01*
X50465925Y-70713400D01*
X50626075Y-70713400D01*
X50783142Y-70744642D01*
X50783142Y-70744642D01*
G37*
G36*
X68563142Y-66528242D02*
G01*
X68711101Y-66589529D01*
X68844255Y-66678499D01*
X68957501Y-66791745D01*
X69046471Y-66924899D01*
X69107758Y-67072858D01*
X69139000Y-67229925D01*
X69139000Y-67390075D01*
X69107758Y-67547142D01*
X69046471Y-67695101D01*
X68957501Y-67828255D01*
X68844255Y-67941501D01*
X68711101Y-68030471D01*
X68563142Y-68091758D01*
X68406075Y-68123000D01*
X68245925Y-68123000D01*
X68088858Y-68091758D01*
X67940899Y-68030471D01*
X67807745Y-67941501D01*
X67694499Y-67828255D01*
X67605529Y-67695101D01*
X67544242Y-67547142D01*
X67513000Y-67390075D01*
X67513000Y-67229925D01*
X67544242Y-67072858D01*
X67605529Y-66924899D01*
X67694499Y-66791745D01*
X67807745Y-66678499D01*
X67940899Y-66589529D01*
X68088858Y-66528242D01*
X68245925Y-66497000D01*
X68406075Y-66497000D01*
X68563142Y-66528242D01*
X68563142Y-66528242D01*
G37*
G36*
X37428254Y-64067818D02*
G01*
X37801511Y-64222426D01*
X37801513Y-64222427D01*
X38137436Y-64446884D01*
X38423116Y-64732564D01*
X38606584Y-65007142D01*
X38647574Y-65068489D01*
X38802182Y-65441746D01*
X38881000Y-65837993D01*
X38881000Y-66242007D01*
X38802182Y-66638254D01*
X38647574Y-67011511D01*
X38647573Y-67011513D01*
X38423116Y-67347436D01*
X38137436Y-67633116D01*
X37801513Y-67857573D01*
X37801512Y-67857574D01*
X37801511Y-67857574D01*
X37428254Y-68012182D01*
X37032007Y-68091000D01*
X36627993Y-68091000D01*
X36231746Y-68012182D01*
X35858489Y-67857574D01*
X35858488Y-67857574D01*
X35858487Y-67857573D01*
X35522564Y-67633116D01*
X35236884Y-67347436D01*
X35012427Y-67011513D01*
X35012426Y-67011511D01*
X34857818Y-66638254D01*
X34779000Y-66242007D01*
X34779000Y-65837993D01*
X34857818Y-65441746D01*
X35012426Y-65068489D01*
X35053417Y-65007142D01*
X35236884Y-64732564D01*
X35522564Y-64446884D01*
X35858487Y-64222427D01*
X35858489Y-64222426D01*
X36231746Y-64067818D01*
X36627993Y-63989000D01*
X37032007Y-63989000D01*
X37428254Y-64067818D01*
X37428254Y-64067818D01*
G37*
G36*
X80608254Y-64067818D02*
G01*
X80981511Y-64222426D01*
X80981513Y-64222427D01*
X81317436Y-64446884D01*
X81603116Y-64732564D01*
X81786584Y-65007142D01*
X81827574Y-65068489D01*
X81982182Y-65441746D01*
X82061000Y-65837993D01*
X82061000Y-66242007D01*
X81982182Y-66638254D01*
X81827574Y-67011511D01*
X81827573Y-67011513D01*
X81603116Y-67347436D01*
X81317436Y-67633116D01*
X80981513Y-67857573D01*
X80981512Y-67857574D01*
X80981511Y-67857574D01*
X80608254Y-68012182D01*
X80212007Y-68091000D01*
X79807993Y-68091000D01*
X79411746Y-68012182D01*
X79038489Y-67857574D01*
X79038488Y-67857574D01*
X79038487Y-67857573D01*
X78702564Y-67633116D01*
X78416884Y-67347436D01*
X78192427Y-67011513D01*
X78192426Y-67011511D01*
X78037818Y-66638254D01*
X77959000Y-66242007D01*
X77959000Y-65837993D01*
X78037818Y-65441746D01*
X78192426Y-65068489D01*
X78233417Y-65007142D01*
X78416884Y-64732564D01*
X78702564Y-64446884D01*
X79038487Y-64222427D01*
X79038489Y-64222426D01*
X79411746Y-64067818D01*
X79807993Y-63989000D01*
X80212007Y-63989000D01*
X80608254Y-64067818D01*
X80608254Y-64067818D01*
G37*
G36*
X31863512Y-65143927D02*
G01*
X32012812Y-65173624D01*
X32176784Y-65241544D01*
X32324354Y-65340147D01*
X32449853Y-65465646D01*
X32548456Y-65613216D01*
X32616376Y-65777188D01*
X32651000Y-65951259D01*
X32651000Y-66128741D01*
X32616376Y-66302812D01*
X32548456Y-66466784D01*
X32449853Y-66614354D01*
X32324354Y-66739853D01*
X32176784Y-66838456D01*
X32012812Y-66906376D01*
X31863512Y-66936073D01*
X31838742Y-66941000D01*
X31661258Y-66941000D01*
X31636488Y-66936073D01*
X31487188Y-66906376D01*
X31323216Y-66838456D01*
X31175646Y-66739853D01*
X31050147Y-66614354D01*
X30951544Y-66466784D01*
X30883624Y-66302812D01*
X30849000Y-66128741D01*
X30849000Y-65951259D01*
X30883624Y-65777188D01*
X30951544Y-65613216D01*
X31050147Y-65465646D01*
X31175646Y-65340147D01*
X31323216Y-65241544D01*
X31487188Y-65173624D01*
X31636488Y-65143927D01*
X31661258Y-65139000D01*
X31838742Y-65139000D01*
X31863512Y-65143927D01*
X31863512Y-65143927D01*
G37*
G36*
X42023512Y-65143927D02*
G01*
X42172812Y-65173624D01*
X42336784Y-65241544D01*
X42484354Y-65340147D01*
X42609853Y-65465646D01*
X42708456Y-65613216D01*
X42776376Y-65777188D01*
X42811000Y-65951259D01*
X42811000Y-66128741D01*
X42776376Y-66302812D01*
X42708456Y-66466784D01*
X42609853Y-66614354D01*
X42484354Y-66739853D01*
X42336784Y-66838456D01*
X42172812Y-66906376D01*
X42023512Y-66936073D01*
X41998742Y-66941000D01*
X41821258Y-66941000D01*
X41796488Y-66936073D01*
X41647188Y-66906376D01*
X41483216Y-66838456D01*
X41335646Y-66739853D01*
X41210147Y-66614354D01*
X41111544Y-66466784D01*
X41043624Y-66302812D01*
X41009000Y-66128741D01*
X41009000Y-65951259D01*
X41043624Y-65777188D01*
X41111544Y-65613216D01*
X41210147Y-65465646D01*
X41335646Y-65340147D01*
X41483216Y-65241544D01*
X41647188Y-65173624D01*
X41796488Y-65143927D01*
X41821258Y-65139000D01*
X41998742Y-65139000D01*
X42023512Y-65143927D01*
X42023512Y-65143927D01*
G37*
G36*
X75043512Y-65143927D02*
G01*
X75192812Y-65173624D01*
X75356784Y-65241544D01*
X75504354Y-65340147D01*
X75629853Y-65465646D01*
X75728456Y-65613216D01*
X75796376Y-65777188D01*
X75831000Y-65951259D01*
X75831000Y-66128741D01*
X75796376Y-66302812D01*
X75728456Y-66466784D01*
X75629853Y-66614354D01*
X75504354Y-66739853D01*
X75356784Y-66838456D01*
X75192812Y-66906376D01*
X75043512Y-66936073D01*
X75018742Y-66941000D01*
X74841258Y-66941000D01*
X74816488Y-66936073D01*
X74667188Y-66906376D01*
X74503216Y-66838456D01*
X74355646Y-66739853D01*
X74230147Y-66614354D01*
X74131544Y-66466784D01*
X74063624Y-66302812D01*
X74029000Y-66128741D01*
X74029000Y-65951259D01*
X74063624Y-65777188D01*
X74131544Y-65613216D01*
X74230147Y-65465646D01*
X74355646Y-65340147D01*
X74503216Y-65241544D01*
X74667188Y-65173624D01*
X74816488Y-65143927D01*
X74841258Y-65139000D01*
X75018742Y-65139000D01*
X75043512Y-65143927D01*
X75043512Y-65143927D01*
G37*
G36*
X85203512Y-65143927D02*
G01*
X85352812Y-65173624D01*
X85516784Y-65241544D01*
X85664354Y-65340147D01*
X85789853Y-65465646D01*
X85888456Y-65613216D01*
X85956376Y-65777188D01*
X85991000Y-65951259D01*
X85991000Y-66128741D01*
X85956376Y-66302812D01*
X85888456Y-66466784D01*
X85789853Y-66614354D01*
X85664354Y-66739853D01*
X85516784Y-66838456D01*
X85352812Y-66906376D01*
X85203512Y-66936073D01*
X85178742Y-66941000D01*
X85001258Y-66941000D01*
X84976488Y-66936073D01*
X84827188Y-66906376D01*
X84663216Y-66838456D01*
X84515646Y-66739853D01*
X84390147Y-66614354D01*
X84291544Y-66466784D01*
X84223624Y-66302812D01*
X84189000Y-66128741D01*
X84189000Y-65951259D01*
X84223624Y-65777188D01*
X84291544Y-65613216D01*
X84390147Y-65465646D01*
X84515646Y-65340147D01*
X84663216Y-65241544D01*
X84827188Y-65173624D01*
X84976488Y-65143927D01*
X85001258Y-65139000D01*
X85178742Y-65139000D01*
X85203512Y-65143927D01*
X85203512Y-65143927D01*
G37*
G36*
X68563142Y-63988242D02*
G01*
X68711101Y-64049529D01*
X68844255Y-64138499D01*
X68957501Y-64251745D01*
X69046471Y-64384899D01*
X69107758Y-64532858D01*
X69139000Y-64689925D01*
X69139000Y-64850075D01*
X69107758Y-65007142D01*
X69046471Y-65155101D01*
X68957501Y-65288255D01*
X68844255Y-65401501D01*
X68711101Y-65490471D01*
X68563142Y-65551758D01*
X68406075Y-65583000D01*
X68245925Y-65583000D01*
X68088858Y-65551758D01*
X67940899Y-65490471D01*
X67807745Y-65401501D01*
X67694499Y-65288255D01*
X67605529Y-65155101D01*
X67544242Y-65007142D01*
X67513000Y-64850075D01*
X67513000Y-64689925D01*
X67544242Y-64532858D01*
X67605529Y-64384899D01*
X67694499Y-64251745D01*
X67807745Y-64138499D01*
X67940899Y-64049529D01*
X68088858Y-63988242D01*
X68245925Y-63957000D01*
X68406075Y-63957000D01*
X68563142Y-63988242D01*
X68563142Y-63988242D01*
G37*
G36*
X76424549Y-62371116D02*
G01*
X76535734Y-62393232D01*
X76683850Y-62454584D01*
X76714169Y-62467142D01*
X76745203Y-62479997D01*
X76933720Y-62605960D01*
X77094040Y-62766280D01*
X77220003Y-62954797D01*
X77306768Y-63164266D01*
X77351000Y-63386636D01*
X77351000Y-63613364D01*
X77306768Y-63835734D01*
X77220003Y-64045203D01*
X77094040Y-64233720D01*
X76933720Y-64394040D01*
X76745203Y-64520003D01*
X76745202Y-64520004D01*
X76745201Y-64520004D01*
X76683850Y-64545416D01*
X76535734Y-64606768D01*
X76424549Y-64628884D01*
X76313365Y-64651000D01*
X76086635Y-64651000D01*
X75975451Y-64628884D01*
X75864266Y-64606768D01*
X75716150Y-64545416D01*
X75654799Y-64520004D01*
X75654798Y-64520004D01*
X75654797Y-64520003D01*
X75466280Y-64394040D01*
X75305960Y-64233720D01*
X75179997Y-64045203D01*
X75093232Y-63835734D01*
X75049000Y-63613364D01*
X75049000Y-63386636D01*
X75093232Y-63164266D01*
X75179997Y-62954797D01*
X75305960Y-62766280D01*
X75466280Y-62605960D01*
X75654797Y-62479997D01*
X75685832Y-62467142D01*
X75716150Y-62454584D01*
X75864266Y-62393232D01*
X75975451Y-62371116D01*
X76086635Y-62349000D01*
X76313365Y-62349000D01*
X76424549Y-62371116D01*
X76424549Y-62371116D01*
G37*
G36*
X33244549Y-62371116D02*
G01*
X33355734Y-62393232D01*
X33503850Y-62454584D01*
X33534169Y-62467142D01*
X33565203Y-62479997D01*
X33753720Y-62605960D01*
X33914040Y-62766280D01*
X34040003Y-62954797D01*
X34126768Y-63164266D01*
X34171000Y-63386636D01*
X34171000Y-63613364D01*
X34126768Y-63835734D01*
X34040003Y-64045203D01*
X33914040Y-64233720D01*
X33753720Y-64394040D01*
X33565203Y-64520003D01*
X33565202Y-64520004D01*
X33565201Y-64520004D01*
X33503850Y-64545416D01*
X33355734Y-64606768D01*
X33244549Y-64628884D01*
X33133365Y-64651000D01*
X32906635Y-64651000D01*
X32795451Y-64628884D01*
X32684266Y-64606768D01*
X32536150Y-64545416D01*
X32474799Y-64520004D01*
X32474798Y-64520004D01*
X32474797Y-64520003D01*
X32286280Y-64394040D01*
X32125960Y-64233720D01*
X31999997Y-64045203D01*
X31913232Y-63835734D01*
X31869000Y-63613364D01*
X31869000Y-63386636D01*
X31913232Y-63164266D01*
X31999997Y-62954797D01*
X32125960Y-62766280D01*
X32286280Y-62605960D01*
X32474797Y-62479997D01*
X32505832Y-62467142D01*
X32536150Y-62454584D01*
X32684266Y-62393232D01*
X32795451Y-62371116D01*
X32906635Y-62349000D01*
X33133365Y-62349000D01*
X33244549Y-62371116D01*
X33244549Y-62371116D01*
G37*
G36*
X68563142Y-61448242D02*
G01*
X68711101Y-61509529D01*
X68844255Y-61598499D01*
X68957501Y-61711745D01*
X69046471Y-61844899D01*
X69107758Y-61992858D01*
X69139000Y-62149925D01*
X69139000Y-62310075D01*
X69107758Y-62467142D01*
X69046471Y-62615101D01*
X68957501Y-62748255D01*
X68844255Y-62861501D01*
X68711101Y-62950471D01*
X68563142Y-63011758D01*
X68406075Y-63043000D01*
X68245925Y-63043000D01*
X68088858Y-63011758D01*
X67940899Y-62950471D01*
X67807745Y-62861501D01*
X67694499Y-62748255D01*
X67605529Y-62615101D01*
X67544242Y-62467142D01*
X67513000Y-62310075D01*
X67513000Y-62149925D01*
X67544242Y-61992858D01*
X67605529Y-61844899D01*
X67694499Y-61711745D01*
X67807745Y-61598499D01*
X67940899Y-61509529D01*
X68088858Y-61448242D01*
X68245925Y-61417000D01*
X68406075Y-61417000D01*
X68563142Y-61448242D01*
X68563142Y-61448242D01*
G37*
G36*
X82774549Y-59831116D02*
G01*
X82885734Y-59853232D01*
X83095203Y-59939997D01*
X83283720Y-60065960D01*
X83444040Y-60226280D01*
X83570003Y-60414797D01*
X83656768Y-60624266D01*
X83701000Y-60846636D01*
X83701000Y-61073364D01*
X83656768Y-61295734D01*
X83570003Y-61505203D01*
X83444040Y-61693720D01*
X83283720Y-61854040D01*
X83095203Y-61980003D01*
X83095202Y-61980004D01*
X83095201Y-61980004D01*
X83033850Y-62005416D01*
X82885734Y-62066768D01*
X82774549Y-62088884D01*
X82663365Y-62111000D01*
X82436635Y-62111000D01*
X82325451Y-62088884D01*
X82214266Y-62066768D01*
X82066150Y-62005416D01*
X82004799Y-61980004D01*
X82004798Y-61980004D01*
X82004797Y-61980003D01*
X81816280Y-61854040D01*
X81655960Y-61693720D01*
X81529997Y-61505203D01*
X81443232Y-61295734D01*
X81399000Y-61073364D01*
X81399000Y-60846636D01*
X81443232Y-60624266D01*
X81529997Y-60414797D01*
X81655960Y-60226280D01*
X81816280Y-60065960D01*
X82004797Y-59939997D01*
X82214266Y-59853232D01*
X82325451Y-59831116D01*
X82436635Y-59809000D01*
X82663365Y-59809000D01*
X82774549Y-59831116D01*
X82774549Y-59831116D01*
G37*
G36*
X39594549Y-59831116D02*
G01*
X39705734Y-59853232D01*
X39915203Y-59939997D01*
X40103720Y-60065960D01*
X40264040Y-60226280D01*
X40390003Y-60414797D01*
X40476768Y-60624266D01*
X40521000Y-60846636D01*
X40521000Y-61073364D01*
X40476768Y-61295734D01*
X40390003Y-61505203D01*
X40264040Y-61693720D01*
X40103720Y-61854040D01*
X39915203Y-61980003D01*
X39915202Y-61980004D01*
X39915201Y-61980004D01*
X39853850Y-62005416D01*
X39705734Y-62066768D01*
X39594549Y-62088884D01*
X39483365Y-62111000D01*
X39256635Y-62111000D01*
X39145451Y-62088884D01*
X39034266Y-62066768D01*
X38886150Y-62005416D01*
X38824799Y-61980004D01*
X38824798Y-61980004D01*
X38824797Y-61980003D01*
X38636280Y-61854040D01*
X38475960Y-61693720D01*
X38349997Y-61505203D01*
X38263232Y-61295734D01*
X38219000Y-61073364D01*
X38219000Y-60846636D01*
X38263232Y-60624266D01*
X38349997Y-60414797D01*
X38475960Y-60226280D01*
X38636280Y-60065960D01*
X38824797Y-59939997D01*
X39034266Y-59853232D01*
X39145451Y-59831116D01*
X39256635Y-59809000D01*
X39483365Y-59809000D01*
X39594549Y-59831116D01*
X39594549Y-59831116D01*
G37*
G36*
X50783142Y-57231842D02*
G01*
X50931101Y-57293129D01*
X51064255Y-57382099D01*
X51177501Y-57495345D01*
X51266471Y-57628499D01*
X51327758Y-57776458D01*
X51359000Y-57933525D01*
X51359000Y-58093675D01*
X51327758Y-58250742D01*
X51266471Y-58398701D01*
X51177501Y-58531855D01*
X51064255Y-58645101D01*
X50931101Y-58734071D01*
X50783142Y-58795358D01*
X50626075Y-58826600D01*
X50465925Y-58826600D01*
X50308858Y-58795358D01*
X50160899Y-58734071D01*
X50027745Y-58645101D01*
X49914499Y-58531855D01*
X49825529Y-58398701D01*
X49764242Y-58250742D01*
X49733000Y-58093675D01*
X49733000Y-57933525D01*
X49764242Y-57776458D01*
X49825529Y-57628499D01*
X49914499Y-57495345D01*
X50027745Y-57382099D01*
X50160899Y-57293129D01*
X50308858Y-57231842D01*
X50465925Y-57200600D01*
X50626075Y-57200600D01*
X50783142Y-57231842D01*
X50783142Y-57231842D01*
G37*
G36*
X66531142Y-57231842D02*
G01*
X66679101Y-57293129D01*
X66812255Y-57382099D01*
X66925501Y-57495345D01*
X67014471Y-57628499D01*
X67075758Y-57776458D01*
X67107000Y-57933525D01*
X67107000Y-58093675D01*
X67075758Y-58250742D01*
X67014471Y-58398701D01*
X66925501Y-58531855D01*
X66812255Y-58645101D01*
X66679101Y-58734071D01*
X66531142Y-58795358D01*
X66374075Y-58826600D01*
X66213925Y-58826600D01*
X66056858Y-58795358D01*
X65908899Y-58734071D01*
X65775745Y-58645101D01*
X65662499Y-58531855D01*
X65573529Y-58398701D01*
X65512242Y-58250742D01*
X65481000Y-58093675D01*
X65481000Y-57933525D01*
X65512242Y-57776458D01*
X65573529Y-57628499D01*
X65662499Y-57495345D01*
X65775745Y-57382099D01*
X65908899Y-57293129D01*
X66056858Y-57231842D01*
X66213925Y-57200600D01*
X66374075Y-57200600D01*
X66531142Y-57231842D01*
X66531142Y-57231842D01*
G37*
G36*
X58657142Y-54082242D02*
G01*
X58805101Y-54143529D01*
X58938255Y-54232499D01*
X59051501Y-54345745D01*
X59140471Y-54478899D01*
X59201758Y-54626858D01*
X59233000Y-54783925D01*
X59233000Y-54944075D01*
X59201758Y-55101142D01*
X59140471Y-55249101D01*
X59051501Y-55382255D01*
X58938255Y-55495501D01*
X58805101Y-55584471D01*
X58657142Y-55645758D01*
X58500075Y-55677000D01*
X58339925Y-55677000D01*
X58182858Y-55645758D01*
X58034899Y-55584471D01*
X57901745Y-55495501D01*
X57788499Y-55382255D01*
X57699529Y-55249101D01*
X57638242Y-55101142D01*
X57607000Y-54944075D01*
X57607000Y-54783925D01*
X57638242Y-54626858D01*
X57699529Y-54478899D01*
X57788499Y-54345745D01*
X57901745Y-54232499D01*
X58034899Y-54143529D01*
X58182858Y-54082242D01*
X58339925Y-54051000D01*
X58500075Y-54051000D01*
X58657142Y-54082242D01*
X58657142Y-54082242D01*
G37*
G36*
X61197142Y-54082242D02*
G01*
X61345101Y-54143529D01*
X61478255Y-54232499D01*
X61591501Y-54345745D01*
X61680471Y-54478899D01*
X61741758Y-54626858D01*
X61773000Y-54783925D01*
X61773000Y-54944075D01*
X61741758Y-55101142D01*
X61680471Y-55249101D01*
X61591501Y-55382255D01*
X61478255Y-55495501D01*
X61345101Y-55584471D01*
X61197142Y-55645758D01*
X61040075Y-55677000D01*
X60879925Y-55677000D01*
X60722858Y-55645758D01*
X60574899Y-55584471D01*
X60441745Y-55495501D01*
X60328499Y-55382255D01*
X60239529Y-55249101D01*
X60178242Y-55101142D01*
X60147000Y-54944075D01*
X60147000Y-54783925D01*
X60178242Y-54626858D01*
X60239529Y-54478899D01*
X60328499Y-54345745D01*
X60441745Y-54232499D01*
X60574899Y-54143529D01*
X60722858Y-54082242D01*
X60879925Y-54051000D01*
X61040075Y-54051000D01*
X61197142Y-54082242D01*
X61197142Y-54082242D01*
G37*
G36*
X56117142Y-54082242D02*
G01*
X56265101Y-54143529D01*
X56398255Y-54232499D01*
X56511501Y-54345745D01*
X56600471Y-54478899D01*
X56661758Y-54626858D01*
X56693000Y-54783925D01*
X56693000Y-54944075D01*
X56661758Y-55101142D01*
X56600471Y-55249101D01*
X56511501Y-55382255D01*
X56398255Y-55495501D01*
X56265101Y-55584471D01*
X56117142Y-55645758D01*
X55960075Y-55677000D01*
X55799925Y-55677000D01*
X55642858Y-55645758D01*
X55494899Y-55584471D01*
X55361745Y-55495501D01*
X55248499Y-55382255D01*
X55159529Y-55249101D01*
X55098242Y-55101142D01*
X55067000Y-54944075D01*
X55067000Y-54783925D01*
X55098242Y-54626858D01*
X55159529Y-54478899D01*
X55248499Y-54345745D01*
X55361745Y-54232499D01*
X55494899Y-54143529D01*
X55642858Y-54082242D01*
X55799925Y-54051000D01*
X55960075Y-54051000D01*
X56117142Y-54082242D01*
X56117142Y-54082242D01*
G37*
G36*
X94083097Y-52294069D02*
G01*
X94186032Y-52304207D01*
X94384146Y-52364305D01*
X94384149Y-52364306D01*
X94480975Y-52416061D01*
X94566729Y-52461897D01*
X94726765Y-52593235D01*
X94858103Y-52753271D01*
X94894702Y-52821743D01*
X94955694Y-52935851D01*
X94955695Y-52935854D01*
X95015793Y-53133968D01*
X95036085Y-53340000D01*
X95015793Y-53546032D01*
X94961472Y-53725101D01*
X94955694Y-53744149D01*
X94903939Y-53840975D01*
X94858103Y-53926729D01*
X94726765Y-54086765D01*
X94566729Y-54218103D01*
X94480975Y-54263939D01*
X94384149Y-54315694D01*
X94384146Y-54315695D01*
X94186032Y-54375793D01*
X94083097Y-54385931D01*
X94031631Y-54391000D01*
X93928369Y-54391000D01*
X93876903Y-54385931D01*
X93773968Y-54375793D01*
X93575854Y-54315695D01*
X93575851Y-54315694D01*
X93479025Y-54263939D01*
X93393271Y-54218103D01*
X93233235Y-54086765D01*
X93101897Y-53926729D01*
X93056061Y-53840975D01*
X93004306Y-53744149D01*
X92998528Y-53725101D01*
X92944207Y-53546032D01*
X92923915Y-53340000D01*
X92944207Y-53133968D01*
X93004305Y-52935854D01*
X93004306Y-52935851D01*
X93065298Y-52821743D01*
X93101897Y-52753271D01*
X93233235Y-52593235D01*
X93393271Y-52461897D01*
X93479025Y-52416061D01*
X93575851Y-52364306D01*
X93575854Y-52364305D01*
X93773968Y-52304207D01*
X93876903Y-52294069D01*
X93928369Y-52289000D01*
X94031631Y-52289000D01*
X94083097Y-52294069D01*
X94083097Y-52294069D01*
G37*
G36*
X84871000Y-54391000D02*
G01*
X82769000Y-54391000D01*
X82769000Y-52289000D01*
X84871000Y-52289000D01*
X84871000Y-54391000D01*
X84871000Y-54391000D01*
G37*
G36*
X41691000Y-54391000D02*
G01*
X39589000Y-54391000D01*
X39589000Y-52289000D01*
X41691000Y-52289000D01*
X41691000Y-54391000D01*
X41691000Y-54391000D01*
G37*
G36*
X50903097Y-52294069D02*
G01*
X51006032Y-52304207D01*
X51204146Y-52364305D01*
X51204149Y-52364306D01*
X51300975Y-52416061D01*
X51386729Y-52461897D01*
X51546765Y-52593235D01*
X51678103Y-52753271D01*
X51714702Y-52821743D01*
X51775694Y-52935851D01*
X51775695Y-52935854D01*
X51835793Y-53133968D01*
X51856085Y-53340000D01*
X51835793Y-53546032D01*
X51781472Y-53725101D01*
X51775694Y-53744149D01*
X51723939Y-53840975D01*
X51678103Y-53926729D01*
X51546765Y-54086765D01*
X51386729Y-54218103D01*
X51300975Y-54263939D01*
X51204149Y-54315694D01*
X51204146Y-54315695D01*
X51006032Y-54375793D01*
X50903097Y-54385931D01*
X50851631Y-54391000D01*
X50748369Y-54391000D01*
X50696903Y-54385931D01*
X50593968Y-54375793D01*
X50395854Y-54315695D01*
X50395851Y-54315694D01*
X50299025Y-54263939D01*
X50213271Y-54218103D01*
X50053235Y-54086765D01*
X49921897Y-53926729D01*
X49876061Y-53840975D01*
X49824306Y-53744149D01*
X49818528Y-53725101D01*
X49764207Y-53546032D01*
X49743915Y-53340000D01*
X49764207Y-53133968D01*
X49824305Y-52935854D01*
X49824306Y-52935851D01*
X49885298Y-52821743D01*
X49921897Y-52753271D01*
X50053235Y-52593235D01*
X50213271Y-52461897D01*
X50299025Y-52416061D01*
X50395851Y-52364306D01*
X50395854Y-52364305D01*
X50593968Y-52304207D01*
X50696903Y-52294069D01*
X50748369Y-52289000D01*
X50851631Y-52289000D01*
X50903097Y-52294069D01*
X50903097Y-52294069D01*
G37*
G36*
X65821000Y-54391000D02*
G01*
X63719000Y-54391000D01*
X63719000Y-52289000D01*
X65821000Y-52289000D01*
X65821000Y-54391000D01*
X65821000Y-54391000D01*
G37*
G36*
X75033097Y-52294069D02*
G01*
X75136032Y-52304207D01*
X75334146Y-52364305D01*
X75334149Y-52364306D01*
X75430975Y-52416061D01*
X75516729Y-52461897D01*
X75676765Y-52593235D01*
X75808103Y-52753271D01*
X75844702Y-52821743D01*
X75905694Y-52935851D01*
X75905695Y-52935854D01*
X75965793Y-53133968D01*
X75986085Y-53340000D01*
X75965793Y-53546032D01*
X75911472Y-53725101D01*
X75905694Y-53744149D01*
X75853939Y-53840975D01*
X75808103Y-53926729D01*
X75676765Y-54086765D01*
X75516729Y-54218103D01*
X75430975Y-54263939D01*
X75334149Y-54315694D01*
X75334146Y-54315695D01*
X75136032Y-54375793D01*
X75033097Y-54385931D01*
X74981631Y-54391000D01*
X74878369Y-54391000D01*
X74826903Y-54385931D01*
X74723968Y-54375793D01*
X74525854Y-54315695D01*
X74525851Y-54315694D01*
X74429025Y-54263939D01*
X74343271Y-54218103D01*
X74183235Y-54086765D01*
X74051897Y-53926729D01*
X74006061Y-53840975D01*
X73954306Y-53744149D01*
X73948528Y-53725101D01*
X73894207Y-53546032D01*
X73873915Y-53340000D01*
X73894207Y-53133968D01*
X73954305Y-52935854D01*
X73954306Y-52935851D01*
X74015298Y-52821743D01*
X74051897Y-52753271D01*
X74183235Y-52593235D01*
X74343271Y-52461897D01*
X74429025Y-52416061D01*
X74525851Y-52364306D01*
X74525854Y-52364305D01*
X74723968Y-52304207D01*
X74826903Y-52294069D01*
X74878369Y-52289000D01*
X74981631Y-52289000D01*
X75033097Y-52294069D01*
X75033097Y-52294069D01*
G37*
G36*
X15477142Y-52558242D02*
G01*
X15625101Y-52619529D01*
X15758255Y-52708499D01*
X15871501Y-52821745D01*
X15960471Y-52954899D01*
X16021758Y-53102858D01*
X16053000Y-53259925D01*
X16053000Y-53420075D01*
X16021758Y-53577142D01*
X15960471Y-53725101D01*
X15871501Y-53858255D01*
X15758255Y-53971501D01*
X15625101Y-54060471D01*
X15477142Y-54121758D01*
X15320075Y-54153000D01*
X15159925Y-54153000D01*
X15002858Y-54121758D01*
X14854899Y-54060471D01*
X14721745Y-53971501D01*
X14608499Y-53858255D01*
X14519529Y-53725101D01*
X14458242Y-53577142D01*
X14427000Y-53420075D01*
X14427000Y-53259925D01*
X14458242Y-53102858D01*
X14519529Y-52954899D01*
X14608499Y-52821745D01*
X14721745Y-52708499D01*
X14854899Y-52619529D01*
X15002858Y-52558242D01*
X15159925Y-52527000D01*
X15320075Y-52527000D01*
X15477142Y-52558242D01*
X15477142Y-52558242D01*
G37*
G36*
X10397142Y-52558242D02*
G01*
X10545101Y-52619529D01*
X10678255Y-52708499D01*
X10791501Y-52821745D01*
X10880471Y-52954899D01*
X10941758Y-53102858D01*
X10973000Y-53259925D01*
X10973000Y-53420075D01*
X10941758Y-53577142D01*
X10880471Y-53725101D01*
X10791501Y-53858255D01*
X10678255Y-53971501D01*
X10545101Y-54060471D01*
X10397142Y-54121758D01*
X10240075Y-54153000D01*
X10079925Y-54153000D01*
X9922858Y-54121758D01*
X9774899Y-54060471D01*
X9641745Y-53971501D01*
X9528499Y-53858255D01*
X9439529Y-53725101D01*
X9378242Y-53577142D01*
X9347000Y-53420075D01*
X9347000Y-53259925D01*
X9378242Y-53102858D01*
X9439529Y-52954899D01*
X9528499Y-52821745D01*
X9641745Y-52708499D01*
X9774899Y-52619529D01*
X9922858Y-52558242D01*
X10079925Y-52527000D01*
X10240075Y-52527000D01*
X10397142Y-52558242D01*
X10397142Y-52558242D01*
G37*
G36*
X20590483Y-43558335D02*
G01*
X20759240Y-43628236D01*
X20911118Y-43729718D01*
X21040282Y-43858882D01*
X21141764Y-44010760D01*
X21211665Y-44179517D01*
X21247300Y-44358668D01*
X21247300Y-44541332D01*
X21211665Y-44720483D01*
X21141764Y-44889240D01*
X21040282Y-45041118D01*
X20911118Y-45170282D01*
X20759240Y-45271764D01*
X20590483Y-45341665D01*
X20411332Y-45377300D01*
X20228668Y-45377300D01*
X20049517Y-45341665D01*
X19880760Y-45271764D01*
X19728882Y-45170282D01*
X19599718Y-45041118D01*
X19498236Y-44889240D01*
X19428335Y-44720483D01*
X19392700Y-44541332D01*
X19392700Y-44358668D01*
X19428335Y-44179517D01*
X19498236Y-44010760D01*
X19599718Y-43858882D01*
X19728882Y-43729718D01*
X19880760Y-43628236D01*
X20049517Y-43558335D01*
X20228668Y-43522700D01*
X20411332Y-43522700D01*
X20590483Y-43558335D01*
X20590483Y-43558335D01*
G37*
G36*
X5350483Y-43558335D02*
G01*
X5519240Y-43628236D01*
X5671118Y-43729718D01*
X5800282Y-43858882D01*
X5901764Y-44010760D01*
X5971665Y-44179517D01*
X6007300Y-44358668D01*
X6007300Y-44541332D01*
X5971665Y-44720483D01*
X5901764Y-44889240D01*
X5800282Y-45041118D01*
X5671118Y-45170282D01*
X5519240Y-45271764D01*
X5350483Y-45341665D01*
X5171332Y-45377300D01*
X4988668Y-45377300D01*
X4809517Y-45341665D01*
X4640760Y-45271764D01*
X4488882Y-45170282D01*
X4359718Y-45041118D01*
X4258236Y-44889240D01*
X4188335Y-44720483D01*
X4152700Y-44541332D01*
X4152700Y-44358668D01*
X4188335Y-44179517D01*
X4258236Y-44010760D01*
X4359718Y-43858882D01*
X4488882Y-43729718D01*
X4640760Y-43628236D01*
X4809517Y-43558335D01*
X4988668Y-43522700D01*
X5171332Y-43522700D01*
X5350483Y-43558335D01*
X5350483Y-43558335D01*
G37*
G36*
X20590483Y-41018335D02*
G01*
X20759240Y-41088236D01*
X20911118Y-41189718D01*
X21040282Y-41318882D01*
X21141764Y-41470760D01*
X21211665Y-41639517D01*
X21247300Y-41818668D01*
X21247300Y-42001332D01*
X21211665Y-42180483D01*
X21141764Y-42349240D01*
X21040282Y-42501118D01*
X20911118Y-42630282D01*
X20759240Y-42731764D01*
X20590483Y-42801665D01*
X20411332Y-42837300D01*
X20228668Y-42837300D01*
X20049517Y-42801665D01*
X19880760Y-42731764D01*
X19728882Y-42630282D01*
X19599718Y-42501118D01*
X19498236Y-42349240D01*
X19428335Y-42180483D01*
X19392700Y-42001332D01*
X19392700Y-41818668D01*
X19428335Y-41639517D01*
X19498236Y-41470760D01*
X19599718Y-41318882D01*
X19728882Y-41189718D01*
X19880760Y-41088236D01*
X20049517Y-41018335D01*
X20228668Y-40982700D01*
X20411332Y-40982700D01*
X20590483Y-41018335D01*
X20590483Y-41018335D01*
G37*
G36*
X5350483Y-41018335D02*
G01*
X5519240Y-41088236D01*
X5671118Y-41189718D01*
X5800282Y-41318882D01*
X5901764Y-41470760D01*
X5971665Y-41639517D01*
X6007300Y-41818668D01*
X6007300Y-42001332D01*
X5971665Y-42180483D01*
X5901764Y-42349240D01*
X5800282Y-42501118D01*
X5671118Y-42630282D01*
X5519240Y-42731764D01*
X5350483Y-42801665D01*
X5171332Y-42837300D01*
X4988668Y-42837300D01*
X4809517Y-42801665D01*
X4640760Y-42731764D01*
X4488882Y-42630282D01*
X4359718Y-42501118D01*
X4258236Y-42349240D01*
X4188335Y-42180483D01*
X4152700Y-42001332D01*
X4152700Y-41818668D01*
X4188335Y-41639517D01*
X4258236Y-41470760D01*
X4359718Y-41318882D01*
X4488882Y-41189718D01*
X4640760Y-41088236D01*
X4809517Y-41018335D01*
X4988668Y-40982700D01*
X5171332Y-40982700D01*
X5350483Y-41018335D01*
X5350483Y-41018335D01*
G37*
G36*
X89498254Y-38667818D02*
G01*
X89766386Y-38778882D01*
X89871513Y-38822427D01*
X90207436Y-39046884D01*
X90493116Y-39332564D01*
X90579156Y-39461331D01*
X90717574Y-39668489D01*
X90872182Y-40041746D01*
X90951000Y-40437993D01*
X90951000Y-40842007D01*
X90872182Y-41238254D01*
X90717574Y-41611511D01*
X90717573Y-41611513D01*
X90493116Y-41947436D01*
X90207436Y-42233116D01*
X89871513Y-42457573D01*
X89871512Y-42457574D01*
X89871511Y-42457574D01*
X89498254Y-42612182D01*
X89102007Y-42691000D01*
X88697993Y-42691000D01*
X88301746Y-42612182D01*
X87928489Y-42457574D01*
X87928488Y-42457574D01*
X87928487Y-42457573D01*
X87592564Y-42233116D01*
X87306884Y-41947436D01*
X87082427Y-41611513D01*
X87082426Y-41611511D01*
X86927818Y-41238254D01*
X86849000Y-40842007D01*
X86849000Y-40437993D01*
X86927818Y-40041746D01*
X87082426Y-39668489D01*
X87220845Y-39461331D01*
X87306884Y-39332564D01*
X87592564Y-39046884D01*
X87928487Y-38822427D01*
X88033614Y-38778882D01*
X88301746Y-38667818D01*
X88697993Y-38589000D01*
X89102007Y-38589000D01*
X89498254Y-38667818D01*
X89498254Y-38667818D01*
G37*
G36*
X67908254Y-38667818D02*
G01*
X68176386Y-38778882D01*
X68281513Y-38822427D01*
X68617436Y-39046884D01*
X68903116Y-39332564D01*
X68989156Y-39461331D01*
X69127574Y-39668489D01*
X69282182Y-40041746D01*
X69361000Y-40437993D01*
X69361000Y-40842007D01*
X69282182Y-41238254D01*
X69127574Y-41611511D01*
X69127573Y-41611513D01*
X68903116Y-41947436D01*
X68617436Y-42233116D01*
X68281513Y-42457573D01*
X68281512Y-42457574D01*
X68281511Y-42457574D01*
X67908254Y-42612182D01*
X67512007Y-42691000D01*
X67107993Y-42691000D01*
X66711746Y-42612182D01*
X66338489Y-42457574D01*
X66338488Y-42457574D01*
X66338487Y-42457573D01*
X66002564Y-42233116D01*
X65716884Y-41947436D01*
X65492427Y-41611513D01*
X65492426Y-41611511D01*
X65337818Y-41238254D01*
X65259000Y-40842007D01*
X65259000Y-40437993D01*
X65337818Y-40041746D01*
X65492426Y-39668489D01*
X65630845Y-39461331D01*
X65716884Y-39332564D01*
X66002564Y-39046884D01*
X66338487Y-38822427D01*
X66443614Y-38778882D01*
X66711746Y-38667818D01*
X67107993Y-38589000D01*
X67512007Y-38589000D01*
X67908254Y-38667818D01*
X67908254Y-38667818D01*
G37*
G36*
X46318254Y-38667818D02*
G01*
X46586386Y-38778882D01*
X46691513Y-38822427D01*
X47027436Y-39046884D01*
X47313116Y-39332564D01*
X47399156Y-39461331D01*
X47537574Y-39668489D01*
X47692182Y-40041746D01*
X47771000Y-40437993D01*
X47771000Y-40842007D01*
X47692182Y-41238254D01*
X47537574Y-41611511D01*
X47537573Y-41611513D01*
X47313116Y-41947436D01*
X47027436Y-42233116D01*
X46691513Y-42457573D01*
X46691512Y-42457574D01*
X46691511Y-42457574D01*
X46318254Y-42612182D01*
X45922007Y-42691000D01*
X45517993Y-42691000D01*
X45121746Y-42612182D01*
X44748489Y-42457574D01*
X44748488Y-42457574D01*
X44748487Y-42457573D01*
X44412564Y-42233116D01*
X44126884Y-41947436D01*
X43902427Y-41611513D01*
X43902426Y-41611511D01*
X43747818Y-41238254D01*
X43669000Y-40842007D01*
X43669000Y-40437993D01*
X43747818Y-40041746D01*
X43902426Y-39668489D01*
X44040845Y-39461331D01*
X44126884Y-39332564D01*
X44412564Y-39046884D01*
X44748487Y-38822427D01*
X44853614Y-38778882D01*
X45121746Y-38667818D01*
X45517993Y-38589000D01*
X45922007Y-38589000D01*
X46318254Y-38667818D01*
X46318254Y-38667818D01*
G37*
G36*
X40753512Y-39743927D02*
G01*
X40902812Y-39773624D01*
X41066784Y-39841544D01*
X41214354Y-39940147D01*
X41339853Y-40065646D01*
X41438456Y-40213216D01*
X41506376Y-40377188D01*
X41541000Y-40551259D01*
X41541000Y-40728741D01*
X41506376Y-40902812D01*
X41438456Y-41066784D01*
X41339853Y-41214354D01*
X41214354Y-41339853D01*
X41066784Y-41438456D01*
X40902812Y-41506376D01*
X40753512Y-41536073D01*
X40728742Y-41541000D01*
X40551258Y-41541000D01*
X40526488Y-41536073D01*
X40377188Y-41506376D01*
X40213216Y-41438456D01*
X40065646Y-41339853D01*
X39940147Y-41214354D01*
X39841544Y-41066784D01*
X39773624Y-40902812D01*
X39739000Y-40728741D01*
X39739000Y-40551259D01*
X39773624Y-40377188D01*
X39841544Y-40213216D01*
X39940147Y-40065646D01*
X40065646Y-39940147D01*
X40213216Y-39841544D01*
X40377188Y-39773624D01*
X40526488Y-39743927D01*
X40551258Y-39739000D01*
X40728742Y-39739000D01*
X40753512Y-39743927D01*
X40753512Y-39743927D01*
G37*
G36*
X62343512Y-39743927D02*
G01*
X62492812Y-39773624D01*
X62656784Y-39841544D01*
X62804354Y-39940147D01*
X62929853Y-40065646D01*
X63028456Y-40213216D01*
X63096376Y-40377188D01*
X63131000Y-40551259D01*
X63131000Y-40728741D01*
X63096376Y-40902812D01*
X63028456Y-41066784D01*
X62929853Y-41214354D01*
X62804354Y-41339853D01*
X62656784Y-41438456D01*
X62492812Y-41506376D01*
X62343512Y-41536073D01*
X62318742Y-41541000D01*
X62141258Y-41541000D01*
X62116488Y-41536073D01*
X61967188Y-41506376D01*
X61803216Y-41438456D01*
X61655646Y-41339853D01*
X61530147Y-41214354D01*
X61431544Y-41066784D01*
X61363624Y-40902812D01*
X61329000Y-40728741D01*
X61329000Y-40551259D01*
X61363624Y-40377188D01*
X61431544Y-40213216D01*
X61530147Y-40065646D01*
X61655646Y-39940147D01*
X61803216Y-39841544D01*
X61967188Y-39773624D01*
X62116488Y-39743927D01*
X62141258Y-39739000D01*
X62318742Y-39739000D01*
X62343512Y-39743927D01*
X62343512Y-39743927D01*
G37*
G36*
X72503512Y-39743927D02*
G01*
X72652812Y-39773624D01*
X72816784Y-39841544D01*
X72964354Y-39940147D01*
X73089853Y-40065646D01*
X73188456Y-40213216D01*
X73256376Y-40377188D01*
X73291000Y-40551259D01*
X73291000Y-40728741D01*
X73256376Y-40902812D01*
X73188456Y-41066784D01*
X73089853Y-41214354D01*
X72964354Y-41339853D01*
X72816784Y-41438456D01*
X72652812Y-41506376D01*
X72503512Y-41536073D01*
X72478742Y-41541000D01*
X72301258Y-41541000D01*
X72276488Y-41536073D01*
X72127188Y-41506376D01*
X71963216Y-41438456D01*
X71815646Y-41339853D01*
X71690147Y-41214354D01*
X71591544Y-41066784D01*
X71523624Y-40902812D01*
X71489000Y-40728741D01*
X71489000Y-40551259D01*
X71523624Y-40377188D01*
X71591544Y-40213216D01*
X71690147Y-40065646D01*
X71815646Y-39940147D01*
X71963216Y-39841544D01*
X72127188Y-39773624D01*
X72276488Y-39743927D01*
X72301258Y-39739000D01*
X72478742Y-39739000D01*
X72503512Y-39743927D01*
X72503512Y-39743927D01*
G37*
G36*
X94093512Y-39743927D02*
G01*
X94242812Y-39773624D01*
X94406784Y-39841544D01*
X94554354Y-39940147D01*
X94679853Y-40065646D01*
X94778456Y-40213216D01*
X94846376Y-40377188D01*
X94881000Y-40551259D01*
X94881000Y-40728741D01*
X94846376Y-40902812D01*
X94778456Y-41066784D01*
X94679853Y-41214354D01*
X94554354Y-41339853D01*
X94406784Y-41438456D01*
X94242812Y-41506376D01*
X94093512Y-41536073D01*
X94068742Y-41541000D01*
X93891258Y-41541000D01*
X93866488Y-41536073D01*
X93717188Y-41506376D01*
X93553216Y-41438456D01*
X93405646Y-41339853D01*
X93280147Y-41214354D01*
X93181544Y-41066784D01*
X93113624Y-40902812D01*
X93079000Y-40728741D01*
X93079000Y-40551259D01*
X93113624Y-40377188D01*
X93181544Y-40213216D01*
X93280147Y-40065646D01*
X93405646Y-39940147D01*
X93553216Y-39841544D01*
X93717188Y-39773624D01*
X93866488Y-39743927D01*
X93891258Y-39739000D01*
X94068742Y-39739000D01*
X94093512Y-39743927D01*
X94093512Y-39743927D01*
G37*
G36*
X83933512Y-39743927D02*
G01*
X84082812Y-39773624D01*
X84246784Y-39841544D01*
X84394354Y-39940147D01*
X84519853Y-40065646D01*
X84618456Y-40213216D01*
X84686376Y-40377188D01*
X84721000Y-40551259D01*
X84721000Y-40728741D01*
X84686376Y-40902812D01*
X84618456Y-41066784D01*
X84519853Y-41214354D01*
X84394354Y-41339853D01*
X84246784Y-41438456D01*
X84082812Y-41506376D01*
X83933512Y-41536073D01*
X83908742Y-41541000D01*
X83731258Y-41541000D01*
X83706488Y-41536073D01*
X83557188Y-41506376D01*
X83393216Y-41438456D01*
X83245646Y-41339853D01*
X83120147Y-41214354D01*
X83021544Y-41066784D01*
X82953624Y-40902812D01*
X82919000Y-40728741D01*
X82919000Y-40551259D01*
X82953624Y-40377188D01*
X83021544Y-40213216D01*
X83120147Y-40065646D01*
X83245646Y-39940147D01*
X83393216Y-39841544D01*
X83557188Y-39773624D01*
X83706488Y-39743927D01*
X83731258Y-39739000D01*
X83908742Y-39739000D01*
X83933512Y-39743927D01*
X83933512Y-39743927D01*
G37*
G36*
X50913512Y-39743927D02*
G01*
X51062812Y-39773624D01*
X51226784Y-39841544D01*
X51374354Y-39940147D01*
X51499853Y-40065646D01*
X51598456Y-40213216D01*
X51666376Y-40377188D01*
X51701000Y-40551259D01*
X51701000Y-40728741D01*
X51666376Y-40902812D01*
X51598456Y-41066784D01*
X51499853Y-41214354D01*
X51374354Y-41339853D01*
X51226784Y-41438456D01*
X51062812Y-41506376D01*
X50913512Y-41536073D01*
X50888742Y-41541000D01*
X50711258Y-41541000D01*
X50686488Y-41536073D01*
X50537188Y-41506376D01*
X50373216Y-41438456D01*
X50225646Y-41339853D01*
X50100147Y-41214354D01*
X50001544Y-41066784D01*
X49933624Y-40902812D01*
X49899000Y-40728741D01*
X49899000Y-40551259D01*
X49933624Y-40377188D01*
X50001544Y-40213216D01*
X50100147Y-40065646D01*
X50225646Y-39940147D01*
X50373216Y-39841544D01*
X50537188Y-39773624D01*
X50686488Y-39743927D01*
X50711258Y-39739000D01*
X50888742Y-39739000D01*
X50913512Y-39743927D01*
X50913512Y-39743927D01*
G37*
G36*
X20590483Y-38478335D02*
G01*
X20759240Y-38548236D01*
X20911118Y-38649718D01*
X21040282Y-38778882D01*
X21141764Y-38930760D01*
X21211665Y-39099517D01*
X21247300Y-39278668D01*
X21247300Y-39461332D01*
X21211665Y-39640483D01*
X21141764Y-39809240D01*
X21040282Y-39961118D01*
X20911118Y-40090282D01*
X20759240Y-40191764D01*
X20590483Y-40261665D01*
X20411332Y-40297300D01*
X20228668Y-40297300D01*
X20049517Y-40261665D01*
X19880760Y-40191764D01*
X19728882Y-40090282D01*
X19599718Y-39961118D01*
X19498236Y-39809240D01*
X19428335Y-39640483D01*
X19392700Y-39461332D01*
X19392700Y-39278668D01*
X19428335Y-39099517D01*
X19498236Y-38930760D01*
X19599718Y-38778882D01*
X19728882Y-38649718D01*
X19880760Y-38548236D01*
X20049517Y-38478335D01*
X20228668Y-38442700D01*
X20411332Y-38442700D01*
X20590483Y-38478335D01*
X20590483Y-38478335D01*
G37*
G36*
X5350483Y-38478335D02*
G01*
X5519240Y-38548236D01*
X5671118Y-38649718D01*
X5800282Y-38778882D01*
X5901764Y-38930760D01*
X5971665Y-39099517D01*
X6007300Y-39278668D01*
X6007300Y-39461332D01*
X5971665Y-39640483D01*
X5901764Y-39809240D01*
X5800282Y-39961118D01*
X5671118Y-40090282D01*
X5519240Y-40191764D01*
X5350483Y-40261665D01*
X5171332Y-40297300D01*
X4988668Y-40297300D01*
X4809517Y-40261665D01*
X4640760Y-40191764D01*
X4488882Y-40090282D01*
X4359718Y-39961118D01*
X4258236Y-39809240D01*
X4188335Y-39640483D01*
X4152700Y-39461332D01*
X4152700Y-39278668D01*
X4188335Y-39099517D01*
X4258236Y-38930760D01*
X4359718Y-38778882D01*
X4488882Y-38649718D01*
X4640760Y-38548236D01*
X4809517Y-38478335D01*
X4988668Y-38442700D01*
X5171332Y-38442700D01*
X5350483Y-38478335D01*
X5350483Y-38478335D01*
G37*
G36*
X63724549Y-36971116D02*
G01*
X63835734Y-36993232D01*
X64045203Y-37079997D01*
X64233720Y-37205960D01*
X64394040Y-37366280D01*
X64520003Y-37554797D01*
X64606768Y-37764266D01*
X64651000Y-37986636D01*
X64651000Y-38213364D01*
X64606768Y-38435734D01*
X64520003Y-38645203D01*
X64394040Y-38833720D01*
X64233720Y-38994040D01*
X64045203Y-39120003D01*
X63835734Y-39206768D01*
X63724549Y-39228884D01*
X63613365Y-39251000D01*
X63386635Y-39251000D01*
X63275451Y-39228884D01*
X63164266Y-39206768D01*
X62954797Y-39120003D01*
X62766280Y-38994040D01*
X62605960Y-38833720D01*
X62479997Y-38645203D01*
X62393232Y-38435734D01*
X62349000Y-38213364D01*
X62349000Y-37986636D01*
X62393232Y-37764266D01*
X62479997Y-37554797D01*
X62605960Y-37366280D01*
X62766280Y-37205960D01*
X62954797Y-37079997D01*
X63164266Y-36993232D01*
X63275451Y-36971116D01*
X63386635Y-36949000D01*
X63613365Y-36949000D01*
X63724549Y-36971116D01*
X63724549Y-36971116D01*
G37*
G36*
X42134549Y-36971116D02*
G01*
X42245734Y-36993232D01*
X42455203Y-37079997D01*
X42643720Y-37205960D01*
X42804040Y-37366280D01*
X42930003Y-37554797D01*
X43016768Y-37764266D01*
X43061000Y-37986636D01*
X43061000Y-38213364D01*
X43016768Y-38435734D01*
X42930003Y-38645203D01*
X42804040Y-38833720D01*
X42643720Y-38994040D01*
X42455203Y-39120003D01*
X42245734Y-39206768D01*
X42134549Y-39228884D01*
X42023365Y-39251000D01*
X41796635Y-39251000D01*
X41685451Y-39228884D01*
X41574266Y-39206768D01*
X41364797Y-39120003D01*
X41176280Y-38994040D01*
X41015960Y-38833720D01*
X40889997Y-38645203D01*
X40803232Y-38435734D01*
X40759000Y-38213364D01*
X40759000Y-37986636D01*
X40803232Y-37764266D01*
X40889997Y-37554797D01*
X41015960Y-37366280D01*
X41176280Y-37205960D01*
X41364797Y-37079997D01*
X41574266Y-36993232D01*
X41685451Y-36971116D01*
X41796635Y-36949000D01*
X42023365Y-36949000D01*
X42134549Y-36971116D01*
X42134549Y-36971116D01*
G37*
G36*
X85314549Y-36971116D02*
G01*
X85425734Y-36993232D01*
X85635203Y-37079997D01*
X85823720Y-37205960D01*
X85984040Y-37366280D01*
X86110003Y-37554797D01*
X86196768Y-37764266D01*
X86241000Y-37986636D01*
X86241000Y-38213364D01*
X86196768Y-38435734D01*
X86110003Y-38645203D01*
X85984040Y-38833720D01*
X85823720Y-38994040D01*
X85635203Y-39120003D01*
X85425734Y-39206768D01*
X85314549Y-39228884D01*
X85203365Y-39251000D01*
X84976635Y-39251000D01*
X84865451Y-39228884D01*
X84754266Y-39206768D01*
X84544797Y-39120003D01*
X84356280Y-38994040D01*
X84195960Y-38833720D01*
X84069997Y-38645203D01*
X83983232Y-38435734D01*
X83939000Y-38213364D01*
X83939000Y-37986636D01*
X83983232Y-37764266D01*
X84069997Y-37554797D01*
X84195960Y-37366280D01*
X84356280Y-37205960D01*
X84544797Y-37079997D01*
X84754266Y-36993232D01*
X84865451Y-36971116D01*
X84976635Y-36949000D01*
X85203365Y-36949000D01*
X85314549Y-36971116D01*
X85314549Y-36971116D01*
G37*
G36*
X5350483Y-35938335D02*
G01*
X5519240Y-36008236D01*
X5671118Y-36109718D01*
X5800282Y-36238882D01*
X5901764Y-36390760D01*
X5971665Y-36559517D01*
X6007300Y-36738668D01*
X6007300Y-36921332D01*
X5971665Y-37100483D01*
X5901764Y-37269240D01*
X5800282Y-37421118D01*
X5671118Y-37550282D01*
X5519240Y-37651764D01*
X5350483Y-37721665D01*
X5171332Y-37757300D01*
X4988668Y-37757300D01*
X4809517Y-37721665D01*
X4640760Y-37651764D01*
X4488882Y-37550282D01*
X4359718Y-37421118D01*
X4258236Y-37269240D01*
X4188335Y-37100483D01*
X4152700Y-36921332D01*
X4152700Y-36738668D01*
X4188335Y-36559517D01*
X4258236Y-36390760D01*
X4359718Y-36238882D01*
X4488882Y-36109718D01*
X4640760Y-36008236D01*
X4809517Y-35938335D01*
X4988668Y-35902700D01*
X5171332Y-35902700D01*
X5350483Y-35938335D01*
X5350483Y-35938335D01*
G37*
G36*
X20590483Y-35938335D02*
G01*
X20759240Y-36008236D01*
X20911118Y-36109718D01*
X21040282Y-36238882D01*
X21141764Y-36390760D01*
X21211665Y-36559517D01*
X21247300Y-36738668D01*
X21247300Y-36921332D01*
X21211665Y-37100483D01*
X21141764Y-37269240D01*
X21040282Y-37421118D01*
X20911118Y-37550282D01*
X20759240Y-37651764D01*
X20590483Y-37721665D01*
X20411332Y-37757300D01*
X20228668Y-37757300D01*
X20049517Y-37721665D01*
X19880760Y-37651764D01*
X19728882Y-37550282D01*
X19599718Y-37421118D01*
X19498236Y-37269240D01*
X19428335Y-37100483D01*
X19392700Y-36921332D01*
X19392700Y-36738668D01*
X19428335Y-36559517D01*
X19498236Y-36390760D01*
X19599718Y-36238882D01*
X19728882Y-36109718D01*
X19880760Y-36008236D01*
X20049517Y-35938335D01*
X20228668Y-35902700D01*
X20411332Y-35902700D01*
X20590483Y-35938335D01*
X20590483Y-35938335D01*
G37*
G36*
X91664549Y-34431116D02*
G01*
X91775734Y-34453232D01*
X91985203Y-34539997D01*
X92173720Y-34665960D01*
X92334040Y-34826280D01*
X92460003Y-35014797D01*
X92546768Y-35224266D01*
X92591000Y-35446636D01*
X92591000Y-35673364D01*
X92546768Y-35895734D01*
X92460003Y-36105203D01*
X92334040Y-36293720D01*
X92173720Y-36454040D01*
X91985203Y-36580003D01*
X91775734Y-36666768D01*
X91664549Y-36688884D01*
X91553365Y-36711000D01*
X91326635Y-36711000D01*
X91215451Y-36688884D01*
X91104266Y-36666768D01*
X90894797Y-36580003D01*
X90706280Y-36454040D01*
X90545960Y-36293720D01*
X90419997Y-36105203D01*
X90333232Y-35895734D01*
X90289000Y-35673364D01*
X90289000Y-35446636D01*
X90333232Y-35224266D01*
X90419997Y-35014797D01*
X90545960Y-34826280D01*
X90706280Y-34665960D01*
X90894797Y-34539997D01*
X91104266Y-34453232D01*
X91215451Y-34431116D01*
X91326635Y-34409000D01*
X91553365Y-34409000D01*
X91664549Y-34431116D01*
X91664549Y-34431116D01*
G37*
G36*
X48484549Y-34431116D02*
G01*
X48595734Y-34453232D01*
X48805203Y-34539997D01*
X48993720Y-34665960D01*
X49154040Y-34826280D01*
X49280003Y-35014797D01*
X49366768Y-35224266D01*
X49411000Y-35446636D01*
X49411000Y-35673364D01*
X49366768Y-35895734D01*
X49280003Y-36105203D01*
X49154040Y-36293720D01*
X48993720Y-36454040D01*
X48805203Y-36580003D01*
X48595734Y-36666768D01*
X48484549Y-36688884D01*
X48373365Y-36711000D01*
X48146635Y-36711000D01*
X48035451Y-36688884D01*
X47924266Y-36666768D01*
X47714797Y-36580003D01*
X47526280Y-36454040D01*
X47365960Y-36293720D01*
X47239997Y-36105203D01*
X47153232Y-35895734D01*
X47109000Y-35673364D01*
X47109000Y-35446636D01*
X47153232Y-35224266D01*
X47239997Y-35014797D01*
X47365960Y-34826280D01*
X47526280Y-34665960D01*
X47714797Y-34539997D01*
X47924266Y-34453232D01*
X48035451Y-34431116D01*
X48146635Y-34409000D01*
X48373365Y-34409000D01*
X48484549Y-34431116D01*
X48484549Y-34431116D01*
G37*
G36*
X70074549Y-34431116D02*
G01*
X70185734Y-34453232D01*
X70395203Y-34539997D01*
X70583720Y-34665960D01*
X70744040Y-34826280D01*
X70870003Y-35014797D01*
X70956768Y-35224266D01*
X71001000Y-35446636D01*
X71001000Y-35673364D01*
X70956768Y-35895734D01*
X70870003Y-36105203D01*
X70744040Y-36293720D01*
X70583720Y-36454040D01*
X70395203Y-36580003D01*
X70185734Y-36666768D01*
X70074549Y-36688884D01*
X69963365Y-36711000D01*
X69736635Y-36711000D01*
X69625451Y-36688884D01*
X69514266Y-36666768D01*
X69304797Y-36580003D01*
X69116280Y-36454040D01*
X68955960Y-36293720D01*
X68829997Y-36105203D01*
X68743232Y-35895734D01*
X68699000Y-35673364D01*
X68699000Y-35446636D01*
X68743232Y-35224266D01*
X68829997Y-35014797D01*
X68955960Y-34826280D01*
X69116280Y-34665960D01*
X69304797Y-34539997D01*
X69514266Y-34453232D01*
X69625451Y-34431116D01*
X69736635Y-34409000D01*
X69963365Y-34409000D01*
X70074549Y-34431116D01*
X70074549Y-34431116D01*
G37*
G36*
X5350483Y-33398335D02*
G01*
X5519240Y-33468236D01*
X5671118Y-33569718D01*
X5800282Y-33698882D01*
X5901764Y-33850760D01*
X5971665Y-34019517D01*
X6007300Y-34198668D01*
X6007300Y-34381332D01*
X5971665Y-34560483D01*
X5901764Y-34729240D01*
X5800282Y-34881118D01*
X5671118Y-35010282D01*
X5519240Y-35111764D01*
X5350483Y-35181665D01*
X5171332Y-35217300D01*
X4988668Y-35217300D01*
X4809517Y-35181665D01*
X4640760Y-35111764D01*
X4488882Y-35010282D01*
X4359718Y-34881118D01*
X4258236Y-34729240D01*
X4188335Y-34560483D01*
X4152700Y-34381332D01*
X4152700Y-34198668D01*
X4188335Y-34019517D01*
X4258236Y-33850760D01*
X4359718Y-33698882D01*
X4488882Y-33569718D01*
X4640760Y-33468236D01*
X4809517Y-33398335D01*
X4988668Y-33362700D01*
X5171332Y-33362700D01*
X5350483Y-33398335D01*
X5350483Y-33398335D01*
G37*
G36*
X20590483Y-33398335D02*
G01*
X20759240Y-33468236D01*
X20911118Y-33569718D01*
X21040282Y-33698882D01*
X21141764Y-33850760D01*
X21211665Y-34019517D01*
X21247300Y-34198668D01*
X21247300Y-34381332D01*
X21211665Y-34560483D01*
X21141764Y-34729240D01*
X21040282Y-34881118D01*
X20911118Y-35010282D01*
X20759240Y-35111764D01*
X20590483Y-35181665D01*
X20411332Y-35217300D01*
X20228668Y-35217300D01*
X20049517Y-35181665D01*
X19880760Y-35111764D01*
X19728882Y-35010282D01*
X19599718Y-34881118D01*
X19498236Y-34729240D01*
X19428335Y-34560483D01*
X19392700Y-34381332D01*
X19392700Y-34198668D01*
X19428335Y-34019517D01*
X19498236Y-33850760D01*
X19599718Y-33698882D01*
X19728882Y-33569718D01*
X19880760Y-33468236D01*
X20049517Y-33398335D01*
X20228668Y-33362700D01*
X20411332Y-33362700D01*
X20590483Y-33398335D01*
X20590483Y-33398335D01*
G37*
G36*
X5350483Y-30858335D02*
G01*
X5519240Y-30928236D01*
X5671118Y-31029718D01*
X5800282Y-31158882D01*
X5901764Y-31310760D01*
X5971665Y-31479517D01*
X6007300Y-31658668D01*
X6007300Y-31841332D01*
X5971665Y-32020483D01*
X5901764Y-32189240D01*
X5800282Y-32341118D01*
X5671118Y-32470282D01*
X5519240Y-32571764D01*
X5350483Y-32641665D01*
X5171332Y-32677300D01*
X4988668Y-32677300D01*
X4809517Y-32641665D01*
X4640760Y-32571764D01*
X4488882Y-32470282D01*
X4359718Y-32341118D01*
X4258236Y-32189240D01*
X4188335Y-32020483D01*
X4152700Y-31841332D01*
X4152700Y-31658668D01*
X4188335Y-31479517D01*
X4258236Y-31310760D01*
X4359718Y-31158882D01*
X4488882Y-31029718D01*
X4640760Y-30928236D01*
X4809517Y-30858335D01*
X4988668Y-30822700D01*
X5171332Y-30822700D01*
X5350483Y-30858335D01*
X5350483Y-30858335D01*
G37*
G36*
X20590483Y-30858335D02*
G01*
X20759240Y-30928236D01*
X20911118Y-31029718D01*
X21040282Y-31158882D01*
X21141764Y-31310760D01*
X21211665Y-31479517D01*
X21247300Y-31658668D01*
X21247300Y-31841332D01*
X21211665Y-32020483D01*
X21141764Y-32189240D01*
X21040282Y-32341118D01*
X20911118Y-32470282D01*
X20759240Y-32571764D01*
X20590483Y-32641665D01*
X20411332Y-32677300D01*
X20228668Y-32677300D01*
X20049517Y-32641665D01*
X19880760Y-32571764D01*
X19728882Y-32470282D01*
X19599718Y-32341118D01*
X19498236Y-32189240D01*
X19428335Y-32020483D01*
X19392700Y-31841332D01*
X19392700Y-31658668D01*
X19428335Y-31479517D01*
X19498236Y-31310760D01*
X19599718Y-31158882D01*
X19728882Y-31029718D01*
X19880760Y-30928236D01*
X20049517Y-30858335D01*
X20228668Y-30822700D01*
X20411332Y-30822700D01*
X20590483Y-30858335D01*
X20590483Y-30858335D01*
G37*
G36*
X20590483Y-28318335D02*
G01*
X20759240Y-28388236D01*
X20911118Y-28489718D01*
X21040282Y-28618882D01*
X21141764Y-28770760D01*
X21211665Y-28939517D01*
X21247300Y-29118668D01*
X21247300Y-29301332D01*
X21211665Y-29480483D01*
X21141764Y-29649240D01*
X21040282Y-29801118D01*
X20911118Y-29930282D01*
X20759240Y-30031764D01*
X20590483Y-30101665D01*
X20411332Y-30137300D01*
X20228668Y-30137300D01*
X20049517Y-30101665D01*
X19880760Y-30031764D01*
X19728882Y-29930282D01*
X19599718Y-29801118D01*
X19498236Y-29649240D01*
X19428335Y-29480483D01*
X19392700Y-29301332D01*
X19392700Y-29118668D01*
X19428335Y-28939517D01*
X19498236Y-28770760D01*
X19599718Y-28618882D01*
X19728882Y-28489718D01*
X19880760Y-28388236D01*
X20049517Y-28318335D01*
X20228668Y-28282700D01*
X20411332Y-28282700D01*
X20590483Y-28318335D01*
X20590483Y-28318335D01*
G37*
G36*
X5350483Y-28318335D02*
G01*
X5519240Y-28388236D01*
X5671118Y-28489718D01*
X5800282Y-28618882D01*
X5901764Y-28770760D01*
X5971665Y-28939517D01*
X6007300Y-29118668D01*
X6007300Y-29301332D01*
X5971665Y-29480483D01*
X5901764Y-29649240D01*
X5800282Y-29801118D01*
X5671118Y-29930282D01*
X5519240Y-30031764D01*
X5350483Y-30101665D01*
X5171332Y-30137300D01*
X4988668Y-30137300D01*
X4809517Y-30101665D01*
X4640760Y-30031764D01*
X4488882Y-29930282D01*
X4359718Y-29801118D01*
X4258236Y-29649240D01*
X4188335Y-29480483D01*
X4152700Y-29301332D01*
X4152700Y-29118668D01*
X4188335Y-28939517D01*
X4258236Y-28770760D01*
X4359718Y-28618882D01*
X4488882Y-28489718D01*
X4640760Y-28388236D01*
X4809517Y-28318335D01*
X4988668Y-28282700D01*
X5171332Y-28282700D01*
X5350483Y-28318335D01*
X5350483Y-28318335D01*
G37*
G36*
X85193097Y-26894069D02*
G01*
X85296032Y-26904207D01*
X85494146Y-26964305D01*
X85494149Y-26964306D01*
X85590975Y-27016061D01*
X85676729Y-27061897D01*
X85836765Y-27193235D01*
X85968103Y-27353271D01*
X86013939Y-27439025D01*
X86065694Y-27535851D01*
X86065695Y-27535854D01*
X86125793Y-27733968D01*
X86146085Y-27940000D01*
X86125793Y-28146032D01*
X86073525Y-28318335D01*
X86065694Y-28344149D01*
X86042129Y-28388236D01*
X85968103Y-28526729D01*
X85836765Y-28686765D01*
X85676729Y-28818103D01*
X85590975Y-28863939D01*
X85494149Y-28915694D01*
X85494146Y-28915695D01*
X85296032Y-28975793D01*
X85193097Y-28985931D01*
X85141631Y-28991000D01*
X85038369Y-28991000D01*
X84986903Y-28985931D01*
X84883968Y-28975793D01*
X84685854Y-28915695D01*
X84685851Y-28915694D01*
X84589025Y-28863939D01*
X84503271Y-28818103D01*
X84343235Y-28686765D01*
X84211897Y-28526729D01*
X84137871Y-28388236D01*
X84114306Y-28344149D01*
X84106475Y-28318335D01*
X84054207Y-28146032D01*
X84033915Y-27940000D01*
X84054207Y-27733968D01*
X84114305Y-27535854D01*
X84114306Y-27535851D01*
X84166061Y-27439025D01*
X84211897Y-27353271D01*
X84343235Y-27193235D01*
X84503271Y-27061897D01*
X84589025Y-27016061D01*
X84685851Y-26964306D01*
X84685854Y-26964305D01*
X84883968Y-26904207D01*
X84986903Y-26894069D01*
X85038369Y-26889000D01*
X85141631Y-26889000D01*
X85193097Y-26894069D01*
X85193097Y-26894069D01*
G37*
G36*
X75981000Y-28991000D02*
G01*
X73879000Y-28991000D01*
X73879000Y-26889000D01*
X75981000Y-26889000D01*
X75981000Y-28991000D01*
X75981000Y-28991000D01*
G37*
G36*
X63603097Y-26894069D02*
G01*
X63706032Y-26904207D01*
X63904146Y-26964305D01*
X63904149Y-26964306D01*
X64000975Y-27016061D01*
X64086729Y-27061897D01*
X64246765Y-27193235D01*
X64378103Y-27353271D01*
X64423939Y-27439025D01*
X64475694Y-27535851D01*
X64475695Y-27535854D01*
X64535793Y-27733968D01*
X64556085Y-27940000D01*
X64535793Y-28146032D01*
X64483525Y-28318335D01*
X64475694Y-28344149D01*
X64452129Y-28388236D01*
X64378103Y-28526729D01*
X64246765Y-28686765D01*
X64086729Y-28818103D01*
X64000975Y-28863939D01*
X63904149Y-28915694D01*
X63904146Y-28915695D01*
X63706032Y-28975793D01*
X63603097Y-28985931D01*
X63551631Y-28991000D01*
X63448369Y-28991000D01*
X63396903Y-28985931D01*
X63293968Y-28975793D01*
X63095854Y-28915695D01*
X63095851Y-28915694D01*
X62999025Y-28863939D01*
X62913271Y-28818103D01*
X62753235Y-28686765D01*
X62621897Y-28526729D01*
X62547871Y-28388236D01*
X62524306Y-28344149D01*
X62516475Y-28318335D01*
X62464207Y-28146032D01*
X62443915Y-27940000D01*
X62464207Y-27733968D01*
X62524305Y-27535854D01*
X62524306Y-27535851D01*
X62576061Y-27439025D01*
X62621897Y-27353271D01*
X62753235Y-27193235D01*
X62913271Y-27061897D01*
X62999025Y-27016061D01*
X63095851Y-26964306D01*
X63095854Y-26964305D01*
X63293968Y-26904207D01*
X63396903Y-26894069D01*
X63448369Y-26889000D01*
X63551631Y-26889000D01*
X63603097Y-26894069D01*
X63603097Y-26894069D01*
G37*
G36*
X54391000Y-28991000D02*
G01*
X52289000Y-28991000D01*
X52289000Y-26889000D01*
X54391000Y-26889000D01*
X54391000Y-28991000D01*
X54391000Y-28991000D01*
G37*
G36*
X42013097Y-26894069D02*
G01*
X42116032Y-26904207D01*
X42314146Y-26964305D01*
X42314149Y-26964306D01*
X42410975Y-27016061D01*
X42496729Y-27061897D01*
X42656765Y-27193235D01*
X42788103Y-27353271D01*
X42833939Y-27439025D01*
X42885694Y-27535851D01*
X42885695Y-27535854D01*
X42945793Y-27733968D01*
X42966085Y-27940000D01*
X42945793Y-28146032D01*
X42893525Y-28318335D01*
X42885694Y-28344149D01*
X42862129Y-28388236D01*
X42788103Y-28526729D01*
X42656765Y-28686765D01*
X42496729Y-28818103D01*
X42410975Y-28863939D01*
X42314149Y-28915694D01*
X42314146Y-28915695D01*
X42116032Y-28975793D01*
X42013097Y-28985931D01*
X41961631Y-28991000D01*
X41858369Y-28991000D01*
X41806903Y-28985931D01*
X41703968Y-28975793D01*
X41505854Y-28915695D01*
X41505851Y-28915694D01*
X41409025Y-28863939D01*
X41323271Y-28818103D01*
X41163235Y-28686765D01*
X41031897Y-28526729D01*
X40957871Y-28388236D01*
X40934306Y-28344149D01*
X40926475Y-28318335D01*
X40874207Y-28146032D01*
X40853915Y-27940000D01*
X40874207Y-27733968D01*
X40934305Y-27535854D01*
X40934306Y-27535851D01*
X40986061Y-27439025D01*
X41031897Y-27353271D01*
X41163235Y-27193235D01*
X41323271Y-27061897D01*
X41409025Y-27016061D01*
X41505851Y-26964306D01*
X41505854Y-26964305D01*
X41703968Y-26904207D01*
X41806903Y-26894069D01*
X41858369Y-26889000D01*
X41961631Y-26889000D01*
X42013097Y-26894069D01*
X42013097Y-26894069D01*
G37*
G36*
X32801000Y-28991000D02*
G01*
X30699000Y-28991000D01*
X30699000Y-26889000D01*
X32801000Y-26889000D01*
X32801000Y-28991000D01*
X32801000Y-28991000D01*
G37*
G36*
X5350483Y-25778335D02*
G01*
X5519240Y-25848236D01*
X5671118Y-25949718D01*
X5800282Y-26078882D01*
X5901764Y-26230760D01*
X5971665Y-26399517D01*
X6007300Y-26578668D01*
X6007300Y-26761332D01*
X5971665Y-26940483D01*
X5901764Y-27109240D01*
X5800282Y-27261118D01*
X5671118Y-27390282D01*
X5519240Y-27491764D01*
X5350483Y-27561665D01*
X5171332Y-27597300D01*
X4988668Y-27597300D01*
X4809517Y-27561665D01*
X4640760Y-27491764D01*
X4488882Y-27390282D01*
X4359718Y-27261118D01*
X4258236Y-27109240D01*
X4188335Y-26940483D01*
X4152700Y-26761332D01*
X4152700Y-26578668D01*
X4188335Y-26399517D01*
X4258236Y-26230760D01*
X4359718Y-26078882D01*
X4488882Y-25949718D01*
X4640760Y-25848236D01*
X4809517Y-25778335D01*
X4988668Y-25742700D01*
X5171332Y-25742700D01*
X5350483Y-25778335D01*
X5350483Y-25778335D01*
G37*
G36*
X20590483Y-25778335D02*
G01*
X20759240Y-25848236D01*
X20911118Y-25949718D01*
X21040282Y-26078882D01*
X21141764Y-26230760D01*
X21211665Y-26399517D01*
X21247300Y-26578668D01*
X21247300Y-26761332D01*
X21211665Y-26940483D01*
X21141764Y-27109240D01*
X21040282Y-27261118D01*
X20911118Y-27390282D01*
X20759240Y-27491764D01*
X20590483Y-27561665D01*
X20411332Y-27597300D01*
X20228668Y-27597300D01*
X20049517Y-27561665D01*
X19880760Y-27491764D01*
X19728882Y-27390282D01*
X19599718Y-27261118D01*
X19498236Y-27109240D01*
X19428335Y-26940483D01*
X19392700Y-26761332D01*
X19392700Y-26578668D01*
X19428335Y-26399517D01*
X19498236Y-26230760D01*
X19599718Y-26078882D01*
X19728882Y-25949718D01*
X19880760Y-25848236D01*
X20049517Y-25778335D01*
X20228668Y-25742700D01*
X20411332Y-25742700D01*
X20590483Y-25778335D01*
X20590483Y-25778335D01*
G37*
G36*
X5350483Y-23238335D02*
G01*
X5519240Y-23308236D01*
X5671118Y-23409718D01*
X5800282Y-23538882D01*
X5901764Y-23690760D01*
X5971665Y-23859517D01*
X6007300Y-24038668D01*
X6007300Y-24221332D01*
X5971665Y-24400483D01*
X5901764Y-24569240D01*
X5800282Y-24721118D01*
X5671118Y-24850282D01*
X5519240Y-24951764D01*
X5350483Y-25021665D01*
X5171332Y-25057300D01*
X4988668Y-25057300D01*
X4809517Y-25021665D01*
X4640760Y-24951764D01*
X4488882Y-24850282D01*
X4359718Y-24721118D01*
X4258236Y-24569240D01*
X4188335Y-24400483D01*
X4152700Y-24221332D01*
X4152700Y-24038668D01*
X4188335Y-23859517D01*
X4258236Y-23690760D01*
X4359718Y-23538882D01*
X4488882Y-23409718D01*
X4640760Y-23308236D01*
X4809517Y-23238335D01*
X4988668Y-23202700D01*
X5171332Y-23202700D01*
X5350483Y-23238335D01*
X5350483Y-23238335D01*
G37*
G36*
X20590483Y-23238335D02*
G01*
X20759240Y-23308236D01*
X20911118Y-23409718D01*
X21040282Y-23538882D01*
X21141764Y-23690760D01*
X21211665Y-23859517D01*
X21247300Y-24038668D01*
X21247300Y-24221332D01*
X21211665Y-24400483D01*
X21141764Y-24569240D01*
X21040282Y-24721118D01*
X20911118Y-24850282D01*
X20759240Y-24951764D01*
X20590483Y-25021665D01*
X20411332Y-25057300D01*
X20228668Y-25057300D01*
X20049517Y-25021665D01*
X19880760Y-24951764D01*
X19728882Y-24850282D01*
X19599718Y-24721118D01*
X19498236Y-24569240D01*
X19428335Y-24400483D01*
X19392700Y-24221332D01*
X19392700Y-24038668D01*
X19428335Y-23859517D01*
X19498236Y-23690760D01*
X19599718Y-23538882D01*
X19728882Y-23409718D01*
X19880760Y-23308236D01*
X20049517Y-23238335D01*
X20228668Y-23202700D01*
X20411332Y-23202700D01*
X20590483Y-23238335D01*
X20590483Y-23238335D01*
G37*
G36*
X5350483Y-20698335D02*
G01*
X5519240Y-20768236D01*
X5671118Y-20869718D01*
X5800282Y-20998882D01*
X5901764Y-21150760D01*
X5971665Y-21319517D01*
X6007300Y-21498668D01*
X6007300Y-21681332D01*
X5971665Y-21860483D01*
X5901764Y-22029240D01*
X5800282Y-22181118D01*
X5671118Y-22310282D01*
X5519240Y-22411764D01*
X5350483Y-22481665D01*
X5171332Y-22517300D01*
X4988668Y-22517300D01*
X4809517Y-22481665D01*
X4640760Y-22411764D01*
X4488882Y-22310282D01*
X4359718Y-22181118D01*
X4258236Y-22029240D01*
X4188335Y-21860483D01*
X4152700Y-21681332D01*
X4152700Y-21498668D01*
X4188335Y-21319517D01*
X4258236Y-21150760D01*
X4359718Y-20998882D01*
X4488882Y-20869718D01*
X4640760Y-20768236D01*
X4809517Y-20698335D01*
X4988668Y-20662700D01*
X5171332Y-20662700D01*
X5350483Y-20698335D01*
X5350483Y-20698335D01*
G37*
G36*
X20590483Y-20698335D02*
G01*
X20759240Y-20768236D01*
X20911118Y-20869718D01*
X21040282Y-20998882D01*
X21141764Y-21150760D01*
X21211665Y-21319517D01*
X21247300Y-21498668D01*
X21247300Y-21681332D01*
X21211665Y-21860483D01*
X21141764Y-22029240D01*
X21040282Y-22181118D01*
X20911118Y-22310282D01*
X20759240Y-22411764D01*
X20590483Y-22481665D01*
X20411332Y-22517300D01*
X20228668Y-22517300D01*
X20049517Y-22481665D01*
X19880760Y-22411764D01*
X19728882Y-22310282D01*
X19599718Y-22181118D01*
X19498236Y-22029240D01*
X19428335Y-21860483D01*
X19392700Y-21681332D01*
X19392700Y-21498668D01*
X19428335Y-21319517D01*
X19498236Y-21150760D01*
X19599718Y-20998882D01*
X19728882Y-20869718D01*
X19880760Y-20768236D01*
X20049517Y-20698335D01*
X20228668Y-20662700D01*
X20411332Y-20662700D01*
X20590483Y-20698335D01*
X20590483Y-20698335D01*
G37*
G36*
X20590483Y-18158335D02*
G01*
X20759240Y-18228236D01*
X20911118Y-18329718D01*
X21040282Y-18458882D01*
X21141764Y-18610760D01*
X21211665Y-18779517D01*
X21247300Y-18958668D01*
X21247300Y-19141332D01*
X21211665Y-19320483D01*
X21141764Y-19489240D01*
X21040282Y-19641118D01*
X20911118Y-19770282D01*
X20759240Y-19871764D01*
X20590483Y-19941665D01*
X20411332Y-19977300D01*
X20228668Y-19977300D01*
X20049517Y-19941665D01*
X19880760Y-19871764D01*
X19728882Y-19770282D01*
X19599718Y-19641118D01*
X19498236Y-19489240D01*
X19428335Y-19320483D01*
X19392700Y-19141332D01*
X19392700Y-18958668D01*
X19428335Y-18779517D01*
X19498236Y-18610760D01*
X19599718Y-18458882D01*
X19728882Y-18329718D01*
X19880760Y-18228236D01*
X20049517Y-18158335D01*
X20228668Y-18122700D01*
X20411332Y-18122700D01*
X20590483Y-18158335D01*
X20590483Y-18158335D01*
G37*
G36*
X5350483Y-18158335D02*
G01*
X5519240Y-18228236D01*
X5671118Y-18329718D01*
X5800282Y-18458882D01*
X5901764Y-18610760D01*
X5971665Y-18779517D01*
X6007300Y-18958668D01*
X6007300Y-19141332D01*
X5971665Y-19320483D01*
X5901764Y-19489240D01*
X5800282Y-19641118D01*
X5671118Y-19770282D01*
X5519240Y-19871764D01*
X5350483Y-19941665D01*
X5171332Y-19977300D01*
X4988668Y-19977300D01*
X4809517Y-19941665D01*
X4640760Y-19871764D01*
X4488882Y-19770282D01*
X4359718Y-19641118D01*
X4258236Y-19489240D01*
X4188335Y-19320483D01*
X4152700Y-19141332D01*
X4152700Y-18958668D01*
X4188335Y-18779517D01*
X4258236Y-18610760D01*
X4359718Y-18458882D01*
X4488882Y-18329718D01*
X4640760Y-18228236D01*
X4809517Y-18158335D01*
X4988668Y-18122700D01*
X5171332Y-18122700D01*
X5350483Y-18158335D01*
X5350483Y-18158335D01*
G37*
G36*
X20590483Y-15618335D02*
G01*
X20759240Y-15688236D01*
X20911118Y-15789718D01*
X21040282Y-15918882D01*
X21141764Y-16070760D01*
X21211665Y-16239517D01*
X21247300Y-16418668D01*
X21247300Y-16601332D01*
X21211665Y-16780483D01*
X21141764Y-16949240D01*
X21040282Y-17101118D01*
X20911118Y-17230282D01*
X20759240Y-17331764D01*
X20590483Y-17401665D01*
X20411332Y-17437300D01*
X20228668Y-17437300D01*
X20049517Y-17401665D01*
X19880760Y-17331764D01*
X19728882Y-17230282D01*
X19599718Y-17101118D01*
X19498236Y-16949240D01*
X19428335Y-16780483D01*
X19392700Y-16601332D01*
X19392700Y-16418668D01*
X19428335Y-16239517D01*
X19498236Y-16070760D01*
X19599718Y-15918882D01*
X19728882Y-15789718D01*
X19880760Y-15688236D01*
X20049517Y-15618335D01*
X20228668Y-15582700D01*
X20411332Y-15582700D01*
X20590483Y-15618335D01*
X20590483Y-15618335D01*
G37*
G36*
X6007300Y-17437300D02*
G01*
X4152700Y-17437300D01*
X4152700Y-15582700D01*
X6007300Y-15582700D01*
X6007300Y-17437300D01*
X6007300Y-17437300D01*
G37*
G36*
X80608254Y-13267818D02*
G01*
X80981511Y-13422426D01*
X80981513Y-13422427D01*
X81317436Y-13646884D01*
X81603116Y-13932564D01*
X81827574Y-14268489D01*
X81982182Y-14641746D01*
X82061000Y-15037993D01*
X82061000Y-15442007D01*
X81982182Y-15838254D01*
X81827574Y-16211511D01*
X81827573Y-16211513D01*
X81603116Y-16547436D01*
X81317436Y-16833116D01*
X80981513Y-17057573D01*
X80981512Y-17057574D01*
X80981511Y-17057574D01*
X80608254Y-17212182D01*
X80212007Y-17291000D01*
X79807993Y-17291000D01*
X79411746Y-17212182D01*
X79038489Y-17057574D01*
X79038488Y-17057574D01*
X79038487Y-17057573D01*
X78702564Y-16833116D01*
X78416884Y-16547436D01*
X78192427Y-16211513D01*
X78192426Y-16211511D01*
X78037818Y-15838254D01*
X77959000Y-15442007D01*
X77959000Y-15037993D01*
X78037818Y-14641746D01*
X78192426Y-14268489D01*
X78416884Y-13932564D01*
X78702564Y-13646884D01*
X79038487Y-13422427D01*
X79038489Y-13422426D01*
X79411746Y-13267818D01*
X79807993Y-13189000D01*
X80212007Y-13189000D01*
X80608254Y-13267818D01*
X80608254Y-13267818D01*
G37*
G36*
X37428254Y-13267818D02*
G01*
X37801511Y-13422426D01*
X37801513Y-13422427D01*
X38137436Y-13646884D01*
X38423116Y-13932564D01*
X38647574Y-14268489D01*
X38802182Y-14641746D01*
X38881000Y-15037993D01*
X38881000Y-15442007D01*
X38802182Y-15838254D01*
X38647574Y-16211511D01*
X38647573Y-16211513D01*
X38423116Y-16547436D01*
X38137436Y-16833116D01*
X37801513Y-17057573D01*
X37801512Y-17057574D01*
X37801511Y-17057574D01*
X37428254Y-17212182D01*
X37032007Y-17291000D01*
X36627993Y-17291000D01*
X36231746Y-17212182D01*
X35858489Y-17057574D01*
X35858488Y-17057574D01*
X35858487Y-17057573D01*
X35522564Y-16833116D01*
X35236884Y-16547436D01*
X35012427Y-16211513D01*
X35012426Y-16211511D01*
X34857818Y-15838254D01*
X34779000Y-15442007D01*
X34779000Y-15037993D01*
X34857818Y-14641746D01*
X35012426Y-14268489D01*
X35236884Y-13932564D01*
X35522564Y-13646884D01*
X35858487Y-13422427D01*
X35858489Y-13422426D01*
X36231746Y-13267818D01*
X36627993Y-13189000D01*
X37032007Y-13189000D01*
X37428254Y-13267818D01*
X37428254Y-13267818D01*
G37*
G36*
X59018254Y-13267818D02*
G01*
X59391511Y-13422426D01*
X59391513Y-13422427D01*
X59727436Y-13646884D01*
X60013116Y-13932564D01*
X60237574Y-14268489D01*
X60392182Y-14641746D01*
X60471000Y-15037993D01*
X60471000Y-15442007D01*
X60392182Y-15838254D01*
X60237574Y-16211511D01*
X60237573Y-16211513D01*
X60013116Y-16547436D01*
X59727436Y-16833116D01*
X59391513Y-17057573D01*
X59391512Y-17057574D01*
X59391511Y-17057574D01*
X59018254Y-17212182D01*
X58622007Y-17291000D01*
X58217993Y-17291000D01*
X57821746Y-17212182D01*
X57448489Y-17057574D01*
X57448488Y-17057574D01*
X57448487Y-17057573D01*
X57112564Y-16833116D01*
X56826884Y-16547436D01*
X56602427Y-16211513D01*
X56602426Y-16211511D01*
X56447818Y-15838254D01*
X56369000Y-15442007D01*
X56369000Y-15037993D01*
X56447818Y-14641746D01*
X56602426Y-14268489D01*
X56826884Y-13932564D01*
X57112564Y-13646884D01*
X57448487Y-13422427D01*
X57448489Y-13422426D01*
X57821746Y-13267818D01*
X58217993Y-13189000D01*
X58622007Y-13189000D01*
X59018254Y-13267818D01*
X59018254Y-13267818D01*
G37*
G36*
X75043512Y-14343927D02*
G01*
X75192812Y-14373624D01*
X75356784Y-14441544D01*
X75504354Y-14540147D01*
X75629853Y-14665646D01*
X75728456Y-14813216D01*
X75796376Y-14977188D01*
X75831000Y-15151259D01*
X75831000Y-15328741D01*
X75796376Y-15502812D01*
X75728456Y-15666784D01*
X75629853Y-15814354D01*
X75504354Y-15939853D01*
X75356784Y-16038456D01*
X75192812Y-16106376D01*
X75043512Y-16136073D01*
X75018742Y-16141000D01*
X74841258Y-16141000D01*
X74816488Y-16136073D01*
X74667188Y-16106376D01*
X74503216Y-16038456D01*
X74355646Y-15939853D01*
X74230147Y-15814354D01*
X74131544Y-15666784D01*
X74063624Y-15502812D01*
X74029000Y-15328741D01*
X74029000Y-15151259D01*
X74063624Y-14977188D01*
X74131544Y-14813216D01*
X74230147Y-14665646D01*
X74355646Y-14540147D01*
X74503216Y-14441544D01*
X74667188Y-14373624D01*
X74816488Y-14343927D01*
X74841258Y-14339000D01*
X75018742Y-14339000D01*
X75043512Y-14343927D01*
X75043512Y-14343927D01*
G37*
G36*
X31863512Y-14343927D02*
G01*
X32012812Y-14373624D01*
X32176784Y-14441544D01*
X32324354Y-14540147D01*
X32449853Y-14665646D01*
X32548456Y-14813216D01*
X32616376Y-14977188D01*
X32651000Y-15151259D01*
X32651000Y-15328741D01*
X32616376Y-15502812D01*
X32548456Y-15666784D01*
X32449853Y-15814354D01*
X32324354Y-15939853D01*
X32176784Y-16038456D01*
X32012812Y-16106376D01*
X31863512Y-16136073D01*
X31838742Y-16141000D01*
X31661258Y-16141000D01*
X31636488Y-16136073D01*
X31487188Y-16106376D01*
X31323216Y-16038456D01*
X31175646Y-15939853D01*
X31050147Y-15814354D01*
X30951544Y-15666784D01*
X30883624Y-15502812D01*
X30849000Y-15328741D01*
X30849000Y-15151259D01*
X30883624Y-14977188D01*
X30951544Y-14813216D01*
X31050147Y-14665646D01*
X31175646Y-14540147D01*
X31323216Y-14441544D01*
X31487188Y-14373624D01*
X31636488Y-14343927D01*
X31661258Y-14339000D01*
X31838742Y-14339000D01*
X31863512Y-14343927D01*
X31863512Y-14343927D01*
G37*
G36*
X42023512Y-14343927D02*
G01*
X42172812Y-14373624D01*
X42336784Y-14441544D01*
X42484354Y-14540147D01*
X42609853Y-14665646D01*
X42708456Y-14813216D01*
X42776376Y-14977188D01*
X42811000Y-15151259D01*
X42811000Y-15328741D01*
X42776376Y-15502812D01*
X42708456Y-15666784D01*
X42609853Y-15814354D01*
X42484354Y-15939853D01*
X42336784Y-16038456D01*
X42172812Y-16106376D01*
X42023512Y-16136073D01*
X41998742Y-16141000D01*
X41821258Y-16141000D01*
X41796488Y-16136073D01*
X41647188Y-16106376D01*
X41483216Y-16038456D01*
X41335646Y-15939853D01*
X41210147Y-15814354D01*
X41111544Y-15666784D01*
X41043624Y-15502812D01*
X41009000Y-15328741D01*
X41009000Y-15151259D01*
X41043624Y-14977188D01*
X41111544Y-14813216D01*
X41210147Y-14665646D01*
X41335646Y-14540147D01*
X41483216Y-14441544D01*
X41647188Y-14373624D01*
X41796488Y-14343927D01*
X41821258Y-14339000D01*
X41998742Y-14339000D01*
X42023512Y-14343927D01*
X42023512Y-14343927D01*
G37*
G36*
X63613512Y-14343927D02*
G01*
X63762812Y-14373624D01*
X63926784Y-14441544D01*
X64074354Y-14540147D01*
X64199853Y-14665646D01*
X64298456Y-14813216D01*
X64366376Y-14977188D01*
X64401000Y-15151259D01*
X64401000Y-15328741D01*
X64366376Y-15502812D01*
X64298456Y-15666784D01*
X64199853Y-15814354D01*
X64074354Y-15939853D01*
X63926784Y-16038456D01*
X63762812Y-16106376D01*
X63613512Y-16136073D01*
X63588742Y-16141000D01*
X63411258Y-16141000D01*
X63386488Y-16136073D01*
X63237188Y-16106376D01*
X63073216Y-16038456D01*
X62925646Y-15939853D01*
X62800147Y-15814354D01*
X62701544Y-15666784D01*
X62633624Y-15502812D01*
X62599000Y-15328741D01*
X62599000Y-15151259D01*
X62633624Y-14977188D01*
X62701544Y-14813216D01*
X62800147Y-14665646D01*
X62925646Y-14540147D01*
X63073216Y-14441544D01*
X63237188Y-14373624D01*
X63386488Y-14343927D01*
X63411258Y-14339000D01*
X63588742Y-14339000D01*
X63613512Y-14343927D01*
X63613512Y-14343927D01*
G37*
G36*
X53453512Y-14343927D02*
G01*
X53602812Y-14373624D01*
X53766784Y-14441544D01*
X53914354Y-14540147D01*
X54039853Y-14665646D01*
X54138456Y-14813216D01*
X54206376Y-14977188D01*
X54241000Y-15151259D01*
X54241000Y-15328741D01*
X54206376Y-15502812D01*
X54138456Y-15666784D01*
X54039853Y-15814354D01*
X53914354Y-15939853D01*
X53766784Y-16038456D01*
X53602812Y-16106376D01*
X53453512Y-16136073D01*
X53428742Y-16141000D01*
X53251258Y-16141000D01*
X53226488Y-16136073D01*
X53077188Y-16106376D01*
X52913216Y-16038456D01*
X52765646Y-15939853D01*
X52640147Y-15814354D01*
X52541544Y-15666784D01*
X52473624Y-15502812D01*
X52439000Y-15328741D01*
X52439000Y-15151259D01*
X52473624Y-14977188D01*
X52541544Y-14813216D01*
X52640147Y-14665646D01*
X52765646Y-14540147D01*
X52913216Y-14441544D01*
X53077188Y-14373624D01*
X53226488Y-14343927D01*
X53251258Y-14339000D01*
X53428742Y-14339000D01*
X53453512Y-14343927D01*
X53453512Y-14343927D01*
G37*
G36*
X85203512Y-14343927D02*
G01*
X85352812Y-14373624D01*
X85516784Y-14441544D01*
X85664354Y-14540147D01*
X85789853Y-14665646D01*
X85888456Y-14813216D01*
X85956376Y-14977188D01*
X85991000Y-15151259D01*
X85991000Y-15328741D01*
X85956376Y-15502812D01*
X85888456Y-15666784D01*
X85789853Y-15814354D01*
X85664354Y-15939853D01*
X85516784Y-16038456D01*
X85352812Y-16106376D01*
X85203512Y-16136073D01*
X85178742Y-16141000D01*
X85001258Y-16141000D01*
X84976488Y-16136073D01*
X84827188Y-16106376D01*
X84663216Y-16038456D01*
X84515646Y-15939853D01*
X84390147Y-15814354D01*
X84291544Y-15666784D01*
X84223624Y-15502812D01*
X84189000Y-15328741D01*
X84189000Y-15151259D01*
X84223624Y-14977188D01*
X84291544Y-14813216D01*
X84390147Y-14665646D01*
X84515646Y-14540147D01*
X84663216Y-14441544D01*
X84827188Y-14373624D01*
X84976488Y-14343927D01*
X85001258Y-14339000D01*
X85178742Y-14339000D01*
X85203512Y-14343927D01*
X85203512Y-14343927D01*
G37*
G36*
X33244549Y-11571116D02*
G01*
X33355734Y-11593232D01*
X33565203Y-11679997D01*
X33753720Y-11805960D01*
X33914040Y-11966280D01*
X34040003Y-12154797D01*
X34126768Y-12364266D01*
X34171000Y-12586636D01*
X34171000Y-12813364D01*
X34126768Y-13035734D01*
X34040003Y-13245203D01*
X33914040Y-13433720D01*
X33753720Y-13594040D01*
X33565203Y-13720003D01*
X33355734Y-13806768D01*
X33244549Y-13828884D01*
X33133365Y-13851000D01*
X32906635Y-13851000D01*
X32795451Y-13828884D01*
X32684266Y-13806768D01*
X32474797Y-13720003D01*
X32286280Y-13594040D01*
X32125960Y-13433720D01*
X31999997Y-13245203D01*
X31913232Y-13035734D01*
X31869000Y-12813364D01*
X31869000Y-12586636D01*
X31913232Y-12364266D01*
X31999997Y-12154797D01*
X32125960Y-11966280D01*
X32286280Y-11805960D01*
X32474797Y-11679997D01*
X32684266Y-11593232D01*
X32795451Y-11571116D01*
X32906635Y-11549000D01*
X33133365Y-11549000D01*
X33244549Y-11571116D01*
X33244549Y-11571116D01*
G37*
G36*
X54834549Y-11571116D02*
G01*
X54945734Y-11593232D01*
X55155203Y-11679997D01*
X55343720Y-11805960D01*
X55504040Y-11966280D01*
X55630003Y-12154797D01*
X55716768Y-12364266D01*
X55761000Y-12586636D01*
X55761000Y-12813364D01*
X55716768Y-13035734D01*
X55630003Y-13245203D01*
X55504040Y-13433720D01*
X55343720Y-13594040D01*
X55155203Y-13720003D01*
X54945734Y-13806768D01*
X54834549Y-13828884D01*
X54723365Y-13851000D01*
X54496635Y-13851000D01*
X54385451Y-13828884D01*
X54274266Y-13806768D01*
X54064797Y-13720003D01*
X53876280Y-13594040D01*
X53715960Y-13433720D01*
X53589997Y-13245203D01*
X53503232Y-13035734D01*
X53459000Y-12813364D01*
X53459000Y-12586636D01*
X53503232Y-12364266D01*
X53589997Y-12154797D01*
X53715960Y-11966280D01*
X53876280Y-11805960D01*
X54064797Y-11679997D01*
X54274266Y-11593232D01*
X54385451Y-11571116D01*
X54496635Y-11549000D01*
X54723365Y-11549000D01*
X54834549Y-11571116D01*
X54834549Y-11571116D01*
G37*
G36*
X76424549Y-11571116D02*
G01*
X76535734Y-11593232D01*
X76745203Y-11679997D01*
X76933720Y-11805960D01*
X77094040Y-11966280D01*
X77220003Y-12154797D01*
X77306768Y-12364266D01*
X77351000Y-12586636D01*
X77351000Y-12813364D01*
X77306768Y-13035734D01*
X77220003Y-13245203D01*
X77094040Y-13433720D01*
X76933720Y-13594040D01*
X76745203Y-13720003D01*
X76535734Y-13806768D01*
X76424549Y-13828884D01*
X76313365Y-13851000D01*
X76086635Y-13851000D01*
X75975451Y-13828884D01*
X75864266Y-13806768D01*
X75654797Y-13720003D01*
X75466280Y-13594040D01*
X75305960Y-13433720D01*
X75179997Y-13245203D01*
X75093232Y-13035734D01*
X75049000Y-12813364D01*
X75049000Y-12586636D01*
X75093232Y-12364266D01*
X75179997Y-12154797D01*
X75305960Y-11966280D01*
X75466280Y-11805960D01*
X75654797Y-11679997D01*
X75864266Y-11593232D01*
X75975451Y-11571116D01*
X76086635Y-11549000D01*
X76313365Y-11549000D01*
X76424549Y-11571116D01*
X76424549Y-11571116D01*
G37*
G36*
X39594549Y-9031116D02*
G01*
X39705734Y-9053232D01*
X39915203Y-9139997D01*
X40103720Y-9265960D01*
X40264040Y-9426280D01*
X40390003Y-9614797D01*
X40476768Y-9824266D01*
X40521000Y-10046636D01*
X40521000Y-10273364D01*
X40476768Y-10495734D01*
X40390003Y-10705203D01*
X40264040Y-10893720D01*
X40103720Y-11054040D01*
X39915203Y-11180003D01*
X39705734Y-11266768D01*
X39594549Y-11288884D01*
X39483365Y-11311000D01*
X39256635Y-11311000D01*
X39145451Y-11288884D01*
X39034266Y-11266768D01*
X38824797Y-11180003D01*
X38636280Y-11054040D01*
X38475960Y-10893720D01*
X38349997Y-10705203D01*
X38263232Y-10495734D01*
X38219000Y-10273364D01*
X38219000Y-10046636D01*
X38263232Y-9824266D01*
X38349997Y-9614797D01*
X38475960Y-9426280D01*
X38636280Y-9265960D01*
X38824797Y-9139997D01*
X39034266Y-9053232D01*
X39145451Y-9031116D01*
X39256635Y-9009000D01*
X39483365Y-9009000D01*
X39594549Y-9031116D01*
X39594549Y-9031116D01*
G37*
G36*
X82774549Y-9031116D02*
G01*
X82885734Y-9053232D01*
X83095203Y-9139997D01*
X83283720Y-9265960D01*
X83444040Y-9426280D01*
X83570003Y-9614797D01*
X83656768Y-9824266D01*
X83701000Y-10046636D01*
X83701000Y-10273364D01*
X83656768Y-10495734D01*
X83570003Y-10705203D01*
X83444040Y-10893720D01*
X83283720Y-11054040D01*
X83095203Y-11180003D01*
X82885734Y-11266768D01*
X82774549Y-11288884D01*
X82663365Y-11311000D01*
X82436635Y-11311000D01*
X82325451Y-11288884D01*
X82214266Y-11266768D01*
X82004797Y-11180003D01*
X81816280Y-11054040D01*
X81655960Y-10893720D01*
X81529997Y-10705203D01*
X81443232Y-10495734D01*
X81399000Y-10273364D01*
X81399000Y-10046636D01*
X81443232Y-9824266D01*
X81529997Y-9614797D01*
X81655960Y-9426280D01*
X81816280Y-9265960D01*
X82004797Y-9139997D01*
X82214266Y-9053232D01*
X82325451Y-9031116D01*
X82436635Y-9009000D01*
X82663365Y-9009000D01*
X82774549Y-9031116D01*
X82774549Y-9031116D01*
G37*
G36*
X61184549Y-9031116D02*
G01*
X61295734Y-9053232D01*
X61505203Y-9139997D01*
X61693720Y-9265960D01*
X61854040Y-9426280D01*
X61980003Y-9614797D01*
X62066768Y-9824266D01*
X62111000Y-10046636D01*
X62111000Y-10273364D01*
X62066768Y-10495734D01*
X61980003Y-10705203D01*
X61854040Y-10893720D01*
X61693720Y-11054040D01*
X61505203Y-11180003D01*
X61295734Y-11266768D01*
X61184549Y-11288884D01*
X61073365Y-11311000D01*
X60846635Y-11311000D01*
X60735451Y-11288884D01*
X60624266Y-11266768D01*
X60414797Y-11180003D01*
X60226280Y-11054040D01*
X60065960Y-10893720D01*
X59939997Y-10705203D01*
X59853232Y-10495734D01*
X59809000Y-10273364D01*
X59809000Y-10046636D01*
X59853232Y-9824266D01*
X59939997Y-9614797D01*
X60065960Y-9426280D01*
X60226280Y-9265960D01*
X60414797Y-9139997D01*
X60624266Y-9053232D01*
X60735451Y-9031116D01*
X60846635Y-9009000D01*
X61073365Y-9009000D01*
X61184549Y-9031116D01*
X61184549Y-9031116D01*
G37*
M02*
