M48
; DRILL file {KiCad 5.1.4} date 2019年10月24日 02時20分16秒
; FORMAT={-:-/ absolute / inch / decimal}
; #@! TF.CreationDate,2019-10-24T02:20:16+09:00
; #@! TF.GenerationSoftware,Kicad,Pcbnew,5.1.4
; #@! TF.FileFunction,Plated,1,2,PTH
FMAT,2
INCH
T1C0.0157
T2C0.0300
T3C0.0394
T4C0.0430
T5C0.0591
%
G90
G05
T1
X0.8Y-2.1
T2
X2.17Y-2.88
X2.17Y-3.056
X2.2Y-2.16
X2.3Y-2.16
X2.4Y-2.16
X2.43Y-2.88
X2.43Y-3.056
X2.69Y-2.45
X2.69Y-2.55
X2.69Y-2.65
X0.4Y-2.1
X0.6Y-2.1
T3
X2.55Y-2.1
X2.95Y-2.1
X1.6Y-2.1
X2.0Y-2.1
X3.25Y-3.1
X3.65Y-3.1
X1.25Y-1.1
X1.65Y-1.1
X2.95Y-1.1
X3.35Y-1.1
X2.65Y-3.1
X3.05Y-3.1
X3.3Y-2.1
X3.7Y-2.1
X2.1Y-1.1
X2.5Y-1.1
X1.25Y-3.1
X1.65Y-3.1
T4
X0.2Y-0.65
X0.2Y-0.75
X0.2Y-0.85
X0.2Y-0.95
X0.2Y-1.05
X0.2Y-1.15
X0.2Y-1.25
X0.2Y-1.35
X0.2Y-1.45
X0.2Y-1.55
X0.2Y-1.65
X0.2Y-1.75
X0.8Y-0.65
X0.8Y-0.75
X0.8Y-0.85
X0.8Y-0.95
X0.8Y-1.05
X0.8Y-1.15
X0.8Y-1.25
X0.8Y-1.35
X0.8Y-1.45
X0.8Y-1.55
X0.8Y-1.65
X0.8Y-1.75
T5
X3.0Y-2.5
X3.25Y-2.4
X2.5Y-1.5
X2.75Y-1.4
X2.15Y-0.5
X2.4Y-0.4
X1.3Y-2.5
X1.55Y-2.4
X3.35Y-1.5
X3.6Y-1.4
X1.65Y-1.5
X1.9Y-1.4
X3.0Y-0.5
X3.25Y-0.4
X1.3Y-0.5
X1.55Y-0.4
T0
M30
