G04 #@! TF.GenerationSoftware,KiCad,Pcbnew,5.1.4*
G04 #@! TF.CreationDate,2019-10-24T02:20:19+09:00*
G04 #@! TF.ProjectId,key_prac,6b65795f-7072-4616-932e-6b696361645f,rev?*
G04 #@! TF.SameCoordinates,PX3072580PY3dc4fd0*
G04 #@! TF.FileFunction,Copper,L1,Top*
G04 #@! TF.FilePolarity,Positive*
%FSLAX46Y46*%
G04 Gerber Fmt 4.6, Leading zero omitted, Abs format (unit mm)*
G04 Created by KiCad (PCBNEW 5.1.4) date 2019-10-24 02:20:19*
%MOMM*%
%LPD*%
G04 APERTURE LIST*
%ADD10C,2.200000*%
%ADD11C,1.524000*%
%ADD12C,1.752600*%
%ADD13R,1.752600X1.752600*%
%ADD14O,2.000000X2.000000*%
%ADD15R,2.000000X2.000000*%
%ADD16C,0.800000*%
%ADD17C,0.250000*%
%ADD18C,0.254000*%
G04 APERTURE END LIST*
D10*
X41910000Y-38100000D03*
X48260000Y-35560000D03*
D11*
X50546000Y-58013600D03*
X50546000Y-71526400D03*
X66294000Y-71526400D03*
X66294000Y-58013600D03*
X61722000Y-77622400D03*
X61722000Y-73152000D03*
X55118000Y-77622400D03*
X55118000Y-73152000D03*
X68326000Y-67310000D03*
X68326000Y-64770000D03*
X68326000Y-62230000D03*
X60960000Y-54864000D03*
X55880000Y-54864000D03*
X58420000Y-54864000D03*
D10*
X33020000Y-12700000D03*
X39370000Y-10160000D03*
D12*
X20320000Y-16510000D03*
X20320000Y-19050000D03*
X20320000Y-21590000D03*
X20320000Y-24130000D03*
X20320000Y-26670000D03*
X20320000Y-29210000D03*
X20320000Y-31750000D03*
X20320000Y-34290000D03*
X20320000Y-36830000D03*
X20320000Y-39370000D03*
X20320000Y-41910000D03*
X20320000Y-44450000D03*
X5080000Y-44450000D03*
X5080000Y-41910000D03*
X5080000Y-39370000D03*
X5080000Y-36830000D03*
X5080000Y-34290000D03*
X5080000Y-31750000D03*
X5080000Y-29210000D03*
X5080000Y-26670000D03*
X5080000Y-24130000D03*
X5080000Y-21590000D03*
X5080000Y-19050000D03*
D13*
X5080000Y-16510000D03*
D11*
X15240000Y-53340000D03*
X10160000Y-53340000D03*
D10*
X76200000Y-63500000D03*
X82550000Y-60960000D03*
X85090000Y-38100000D03*
X91440000Y-35560000D03*
X76200000Y-12700000D03*
X82550000Y-10160000D03*
X63500000Y-38100000D03*
X69850000Y-35560000D03*
X54610000Y-12700000D03*
X60960000Y-10160000D03*
X33020000Y-63500000D03*
X39370000Y-60960000D03*
D14*
X92710000Y-78740000D03*
D15*
X82550000Y-78740000D03*
D14*
X93980000Y-53340000D03*
D15*
X83820000Y-53340000D03*
D14*
X85090000Y-27940000D03*
D15*
X74930000Y-27940000D03*
D14*
X77470000Y-78740000D03*
D15*
X67310000Y-78740000D03*
D14*
X74930000Y-53340000D03*
D15*
X64770000Y-53340000D03*
D14*
X63500000Y-27940000D03*
D15*
X53340000Y-27940000D03*
D14*
X41910000Y-78740000D03*
D15*
X31750000Y-78740000D03*
D14*
X50800000Y-53340000D03*
D15*
X40640000Y-53340000D03*
D14*
X41910000Y-27940000D03*
D15*
X31750000Y-27940000D03*
D16*
X20320000Y-53340000D03*
D17*
X33000000Y-27940000D02*
X31750000Y-27940000D01*
X33020000Y-27920000D02*
X33000000Y-27940000D01*
X33020000Y-12700000D02*
X33020000Y-27920000D01*
X41890000Y-53340000D02*
X40640000Y-53340000D01*
X41910000Y-53320000D02*
X41890000Y-53340000D01*
X41910000Y-38100000D02*
X41910000Y-53320000D01*
X76470001Y-79739999D02*
X77470000Y-78740000D01*
X43235001Y-80065001D02*
X76144999Y-80065001D01*
X76144999Y-80065001D02*
X76470001Y-79739999D01*
X41910000Y-78740000D02*
X43235001Y-80065001D01*
X77470000Y-78740000D02*
X81280000Y-82550000D01*
X88900000Y-82550000D02*
X92710000Y-78740000D01*
X81280000Y-82550000D02*
X88900000Y-82550000D01*
X33000000Y-78740000D02*
X31750000Y-78740000D01*
X33020000Y-78720000D02*
X33000000Y-78740000D01*
X33020000Y-63500000D02*
X33020000Y-78720000D01*
X54610000Y-27920000D02*
X54590000Y-27940000D01*
X54590000Y-27940000D02*
X53340000Y-27940000D01*
X54610000Y-12700000D02*
X54610000Y-27920000D01*
X63520000Y-53340000D02*
X64770000Y-53340000D01*
X63500000Y-53320000D02*
X63520000Y-53340000D01*
X63500000Y-38100000D02*
X63500000Y-53320000D01*
X76200000Y-27920000D02*
X76180000Y-27940000D01*
X76180000Y-27940000D02*
X74930000Y-27940000D01*
X76200000Y-12700000D02*
X76200000Y-27920000D01*
X85090000Y-53320000D02*
X85070000Y-53340000D01*
X85070000Y-53340000D02*
X83820000Y-53340000D01*
X85090000Y-38100000D02*
X85090000Y-53320000D01*
X81300000Y-78740000D02*
X82550000Y-78740000D01*
X76200000Y-73640000D02*
X81300000Y-78740000D01*
X76200000Y-63500000D02*
X76200000Y-73640000D01*
X39370000Y-10160000D02*
X39370000Y-22860000D01*
X48260000Y-31750000D02*
X48260000Y-35560000D01*
X39370000Y-22860000D02*
X48260000Y-31750000D01*
X48260000Y-52070000D02*
X48260000Y-35560000D01*
X39370000Y-60960000D02*
X48260000Y-52070000D01*
X69850000Y-19050000D02*
X69850000Y-35560000D01*
X60960000Y-10160000D02*
X69850000Y-19050000D01*
X69850000Y-58420000D02*
X55118000Y-73152000D01*
X69850000Y-35560000D02*
X69850000Y-58420000D01*
X82550000Y-60960000D02*
X91440000Y-52070000D01*
X91440000Y-52070000D02*
X91440000Y-35560000D01*
X91440000Y-19050000D02*
X91440000Y-35560000D01*
X82550000Y-10160000D02*
X91440000Y-19050000D01*
X13970000Y-57150000D02*
X10160000Y-53340000D01*
X23495000Y-57150000D02*
X13970000Y-57150000D01*
X19118699Y-22791301D02*
X19118699Y-24706625D01*
X20320000Y-21590000D02*
X19118699Y-22791301D01*
X19118699Y-24706625D02*
X19743375Y-25331301D01*
X19743375Y-25331301D02*
X20759227Y-25331301D01*
X27940000Y-52705000D02*
X23495000Y-57150000D01*
X20759227Y-25331301D02*
X27940000Y-32512074D01*
X27940000Y-32512074D02*
X27940000Y-52705000D01*
X50220001Y-52014999D02*
X58110999Y-52014999D01*
X40795001Y-61644001D02*
X40795001Y-61383997D01*
X40795001Y-61383997D02*
X49530000Y-52648998D01*
X30424999Y-34234999D02*
X30424999Y-57094999D01*
X49586002Y-52648998D02*
X50220001Y-52014999D01*
X40054001Y-62385001D02*
X40795001Y-61644001D01*
X34392001Y-61062001D02*
X37362999Y-61062001D01*
X49530000Y-52648998D02*
X49586002Y-52648998D01*
X20320000Y-24130000D02*
X30424999Y-34234999D01*
X58110999Y-52014999D02*
X60960000Y-54864000D01*
X38685999Y-62385001D02*
X40054001Y-62385001D01*
X30424999Y-57094999D02*
X34392001Y-61062001D01*
X37362999Y-61062001D02*
X38685999Y-62385001D01*
X36205997Y-62074999D02*
X23974999Y-62074999D01*
X44115828Y-62835010D02*
X36966008Y-62835010D01*
X36966008Y-62835010D02*
X36205997Y-62074999D01*
X53173839Y-53776999D02*
X44115828Y-62835010D01*
X58420000Y-54864000D02*
X57332999Y-53776999D01*
X24949990Y-50615010D02*
X24949990Y-31299990D01*
X23974999Y-62074999D02*
X20020402Y-58120402D01*
X24949990Y-31299990D02*
X20320000Y-26670000D01*
X20020402Y-58120402D02*
X13331640Y-58120402D01*
X16696400Y-56699990D02*
X18865010Y-56699990D01*
X9072999Y-53861761D02*
X9072999Y-52818239D01*
X57332999Y-53776999D02*
X53173839Y-53776999D01*
X13331640Y-58120402D02*
X9072999Y-53861761D01*
X9072999Y-52818239D02*
X9638239Y-52252999D01*
X9638239Y-52252999D02*
X12249409Y-52252999D01*
X12249409Y-52252999D02*
X16696400Y-56699990D01*
X18865010Y-56699990D02*
X24949990Y-50615010D01*
X20320000Y-29210000D02*
X17780000Y-29210000D01*
X14152999Y-32837001D02*
X14152999Y-44632999D01*
X17780000Y-29210000D02*
X14152999Y-32837001D01*
X14152999Y-44632999D02*
X14152999Y-47172999D01*
X14152999Y-47172999D02*
X20320000Y-53340000D01*
X20320000Y-53340000D02*
X20320000Y-53340000D01*
X56235600Y-78740000D02*
X55118000Y-77622400D01*
X67310000Y-78740000D02*
X56235600Y-78740000D01*
D18*
G36*
X99670001Y-86970000D02*
G01*
X660000Y-86970000D01*
X660000Y-52818239D01*
X8309323Y-52818239D01*
X8313000Y-52855571D01*
X8312999Y-53824438D01*
X8309323Y-53861761D01*
X8312999Y-53899083D01*
X8312999Y-53899093D01*
X8323996Y-54010746D01*
X8352186Y-54103676D01*
X8367453Y-54154007D01*
X8438025Y-54286037D01*
X8463436Y-54317000D01*
X8532998Y-54401762D01*
X8562002Y-54425565D01*
X12767840Y-58631404D01*
X12791639Y-58660403D01*
X12907364Y-58755376D01*
X13039393Y-58825948D01*
X13182654Y-58869405D01*
X13294307Y-58880402D01*
X13294317Y-58880402D01*
X13331640Y-58884078D01*
X13368963Y-58880402D01*
X19705601Y-58880402D01*
X23411199Y-62586001D01*
X23434998Y-62615000D01*
X23550723Y-62709973D01*
X23682752Y-62780545D01*
X23826013Y-62824002D01*
X23937666Y-62834999D01*
X23937674Y-62834999D01*
X23974999Y-62838675D01*
X24012324Y-62834999D01*
X31417502Y-62834999D01*
X31351675Y-62993919D01*
X31285000Y-63329117D01*
X31285000Y-63670883D01*
X31351675Y-64006081D01*
X31482463Y-64321831D01*
X31638261Y-64555000D01*
X31603740Y-64555000D01*
X31316842Y-64612068D01*
X31046589Y-64724010D01*
X30803368Y-64886525D01*
X30596525Y-65093368D01*
X30434010Y-65336589D01*
X30322068Y-65606842D01*
X30265000Y-65893740D01*
X30265000Y-66186260D01*
X30322068Y-66473158D01*
X30434010Y-66743411D01*
X30596525Y-66986632D01*
X30803368Y-67193475D01*
X31046589Y-67355990D01*
X31316842Y-67467932D01*
X31603740Y-67525000D01*
X31896260Y-67525000D01*
X32183158Y-67467932D01*
X32260000Y-67436103D01*
X32260001Y-77101928D01*
X30750000Y-77101928D01*
X30625518Y-77114188D01*
X30505820Y-77150498D01*
X30395506Y-77209463D01*
X30298815Y-77288815D01*
X30219463Y-77385506D01*
X30160498Y-77495820D01*
X30124188Y-77615518D01*
X30111928Y-77740000D01*
X30111928Y-79740000D01*
X30124188Y-79864482D01*
X30160498Y-79984180D01*
X30219463Y-80094494D01*
X30298815Y-80191185D01*
X30395506Y-80270537D01*
X30505820Y-80329502D01*
X30625518Y-80365812D01*
X30750000Y-80378072D01*
X32750000Y-80378072D01*
X32874482Y-80365812D01*
X32994180Y-80329502D01*
X33104494Y-80270537D01*
X33201185Y-80191185D01*
X33280537Y-80094494D01*
X33339502Y-79984180D01*
X33375812Y-79864482D01*
X33388072Y-79740000D01*
X33388072Y-79394326D01*
X33424276Y-79374974D01*
X33540001Y-79280001D01*
X33549016Y-79269016D01*
X33560001Y-79260001D01*
X33654974Y-79144276D01*
X33725546Y-79012247D01*
X33769003Y-78868986D01*
X33780000Y-78757333D01*
X33780000Y-78757323D01*
X33781706Y-78740000D01*
X40267089Y-78740000D01*
X40298657Y-79060516D01*
X40392148Y-79368715D01*
X40543969Y-79652752D01*
X40748286Y-79901714D01*
X40997248Y-80106031D01*
X41281285Y-80257852D01*
X41589484Y-80351343D01*
X41829678Y-80375000D01*
X41990322Y-80375000D01*
X42230516Y-80351343D01*
X42396262Y-80301065D01*
X42671206Y-80576009D01*
X42695000Y-80605002D01*
X42723993Y-80628796D01*
X42723997Y-80628800D01*
X42794686Y-80686812D01*
X42810725Y-80699975D01*
X42942754Y-80770547D01*
X43086015Y-80814004D01*
X43197668Y-80825001D01*
X43197677Y-80825001D01*
X43235000Y-80828677D01*
X43272323Y-80825001D01*
X76107677Y-80825001D01*
X76144999Y-80828677D01*
X76182321Y-80825001D01*
X76182332Y-80825001D01*
X76293985Y-80814004D01*
X76437246Y-80770547D01*
X76569275Y-80699975D01*
X76685000Y-80605002D01*
X76708803Y-80575998D01*
X76983737Y-80301064D01*
X77149484Y-80351343D01*
X77389678Y-80375000D01*
X77550322Y-80375000D01*
X77790516Y-80351343D01*
X77956263Y-80301064D01*
X80716201Y-83061003D01*
X80739999Y-83090001D01*
X80855724Y-83184974D01*
X80987753Y-83255546D01*
X81131014Y-83299003D01*
X81242667Y-83310000D01*
X81242675Y-83310000D01*
X81280000Y-83313676D01*
X81317325Y-83310000D01*
X88862678Y-83310000D01*
X88900000Y-83313676D01*
X88937322Y-83310000D01*
X88937333Y-83310000D01*
X89048986Y-83299003D01*
X89192247Y-83255546D01*
X89324276Y-83184974D01*
X89440001Y-83090001D01*
X89463804Y-83060997D01*
X92223737Y-80301064D01*
X92389484Y-80351343D01*
X92629678Y-80375000D01*
X92790322Y-80375000D01*
X93030516Y-80351343D01*
X93338715Y-80257852D01*
X93622752Y-80106031D01*
X93871714Y-79901714D01*
X94076031Y-79652752D01*
X94227852Y-79368715D01*
X94321343Y-79060516D01*
X94352911Y-78740000D01*
X94321343Y-78419484D01*
X94227852Y-78111285D01*
X94076031Y-77827248D01*
X93871714Y-77578286D01*
X93622752Y-77373969D01*
X93338715Y-77222148D01*
X93030516Y-77128657D01*
X92790322Y-77105000D01*
X92629678Y-77105000D01*
X92389484Y-77128657D01*
X92081285Y-77222148D01*
X91797248Y-77373969D01*
X91548286Y-77578286D01*
X91343969Y-77827248D01*
X91192148Y-78111285D01*
X91098657Y-78419484D01*
X91067089Y-78740000D01*
X91098657Y-79060516D01*
X91148936Y-79226263D01*
X88585199Y-81790000D01*
X81594802Y-81790000D01*
X79031064Y-79226263D01*
X79081343Y-79060516D01*
X79112911Y-78740000D01*
X79081343Y-78419484D01*
X78987852Y-78111285D01*
X78836031Y-77827248D01*
X78631714Y-77578286D01*
X78382752Y-77373969D01*
X78098715Y-77222148D01*
X77790516Y-77128657D01*
X77550322Y-77105000D01*
X77389678Y-77105000D01*
X77149484Y-77128657D01*
X76841285Y-77222148D01*
X76557248Y-77373969D01*
X76308286Y-77578286D01*
X76103969Y-77827248D01*
X75952148Y-78111285D01*
X75858657Y-78419484D01*
X75827089Y-78740000D01*
X75858657Y-79060516D01*
X75908936Y-79226263D01*
X75830198Y-79305001D01*
X68948072Y-79305001D01*
X68948072Y-77740000D01*
X68935812Y-77615518D01*
X68899502Y-77495820D01*
X68840537Y-77385506D01*
X68761185Y-77288815D01*
X68664494Y-77209463D01*
X68554180Y-77150498D01*
X68434482Y-77114188D01*
X68310000Y-77101928D01*
X66310000Y-77101928D01*
X66185518Y-77114188D01*
X66065820Y-77150498D01*
X65955506Y-77209463D01*
X65858815Y-77288815D01*
X65779463Y-77385506D01*
X65720498Y-77495820D01*
X65684188Y-77615518D01*
X65671928Y-77740000D01*
X65671928Y-77980000D01*
X63075238Y-77980000D01*
X63119000Y-77759992D01*
X63119000Y-77484808D01*
X63065314Y-77214910D01*
X62960005Y-76960673D01*
X62807120Y-76731865D01*
X62612535Y-76537280D01*
X62383727Y-76384395D01*
X62129490Y-76279086D01*
X61859592Y-76225400D01*
X61584408Y-76225400D01*
X61314510Y-76279086D01*
X61060273Y-76384395D01*
X60831465Y-76537280D01*
X60636880Y-76731865D01*
X60483995Y-76960673D01*
X60378686Y-77214910D01*
X60325000Y-77484808D01*
X60325000Y-77759992D01*
X60368762Y-77980000D01*
X56550402Y-77980000D01*
X56484372Y-77913970D01*
X56515000Y-77759992D01*
X56515000Y-77484808D01*
X56461314Y-77214910D01*
X56356005Y-76960673D01*
X56203120Y-76731865D01*
X56008535Y-76537280D01*
X55779727Y-76384395D01*
X55525490Y-76279086D01*
X55255592Y-76225400D01*
X54980408Y-76225400D01*
X54710510Y-76279086D01*
X54456273Y-76384395D01*
X54227465Y-76537280D01*
X54032880Y-76731865D01*
X53879995Y-76960673D01*
X53774686Y-77214910D01*
X53721000Y-77484808D01*
X53721000Y-77759992D01*
X53774686Y-78029890D01*
X53879995Y-78284127D01*
X54032880Y-78512935D01*
X54227465Y-78707520D01*
X54456273Y-78860405D01*
X54710510Y-78965714D01*
X54980408Y-79019400D01*
X55255592Y-79019400D01*
X55409570Y-78988772D01*
X55671800Y-79251002D01*
X55695599Y-79280001D01*
X55724597Y-79303799D01*
X55726062Y-79305001D01*
X43549804Y-79305001D01*
X43471065Y-79226262D01*
X43521343Y-79060516D01*
X43552911Y-78740000D01*
X43521343Y-78419484D01*
X43427852Y-78111285D01*
X43276031Y-77827248D01*
X43071714Y-77578286D01*
X42822752Y-77373969D01*
X42538715Y-77222148D01*
X42230516Y-77128657D01*
X41990322Y-77105000D01*
X41829678Y-77105000D01*
X41589484Y-77128657D01*
X41281285Y-77222148D01*
X40997248Y-77373969D01*
X40748286Y-77578286D01*
X40543969Y-77827248D01*
X40392148Y-78111285D01*
X40298657Y-78419484D01*
X40267089Y-78740000D01*
X33781706Y-78740000D01*
X33783676Y-78720001D01*
X33780000Y-78682678D01*
X33780000Y-73014408D01*
X53721000Y-73014408D01*
X53721000Y-73289592D01*
X53774686Y-73559490D01*
X53879995Y-73813727D01*
X54032880Y-74042535D01*
X54227465Y-74237120D01*
X54456273Y-74390005D01*
X54710510Y-74495314D01*
X54980408Y-74549000D01*
X55255592Y-74549000D01*
X55525490Y-74495314D01*
X55779727Y-74390005D01*
X56008535Y-74237120D01*
X56203120Y-74042535D01*
X56356005Y-73813727D01*
X56461314Y-73559490D01*
X56515000Y-73289592D01*
X56515000Y-73014408D01*
X60325000Y-73014408D01*
X60325000Y-73289592D01*
X60378686Y-73559490D01*
X60483995Y-73813727D01*
X60636880Y-74042535D01*
X60831465Y-74237120D01*
X61060273Y-74390005D01*
X61314510Y-74495314D01*
X61584408Y-74549000D01*
X61859592Y-74549000D01*
X62129490Y-74495314D01*
X62383727Y-74390005D01*
X62612535Y-74237120D01*
X62807120Y-74042535D01*
X62960005Y-73813727D01*
X63065314Y-73559490D01*
X63119000Y-73289592D01*
X63119000Y-73014408D01*
X63065314Y-72744510D01*
X62960005Y-72490273D01*
X62807120Y-72261465D01*
X62612535Y-72066880D01*
X62383727Y-71913995D01*
X62129490Y-71808686D01*
X61859592Y-71755000D01*
X61584408Y-71755000D01*
X61314510Y-71808686D01*
X61060273Y-71913995D01*
X60831465Y-72066880D01*
X60636880Y-72261465D01*
X60483995Y-72490273D01*
X60378686Y-72744510D01*
X60325000Y-73014408D01*
X56515000Y-73014408D01*
X56484372Y-72860429D01*
X57955993Y-71388808D01*
X64897000Y-71388808D01*
X64897000Y-71663992D01*
X64950686Y-71933890D01*
X65055995Y-72188127D01*
X65208880Y-72416935D01*
X65403465Y-72611520D01*
X65632273Y-72764405D01*
X65886510Y-72869714D01*
X66156408Y-72923400D01*
X66431592Y-72923400D01*
X66701490Y-72869714D01*
X66955727Y-72764405D01*
X67184535Y-72611520D01*
X67379120Y-72416935D01*
X67532005Y-72188127D01*
X67637314Y-71933890D01*
X67691000Y-71663992D01*
X67691000Y-71388808D01*
X67637314Y-71118910D01*
X67532005Y-70864673D01*
X67379120Y-70635865D01*
X67184535Y-70441280D01*
X66955727Y-70288395D01*
X66701490Y-70183086D01*
X66431592Y-70129400D01*
X66156408Y-70129400D01*
X65886510Y-70183086D01*
X65632273Y-70288395D01*
X65403465Y-70441280D01*
X65208880Y-70635865D01*
X65055995Y-70864673D01*
X64950686Y-71118910D01*
X64897000Y-71388808D01*
X57955993Y-71388808D01*
X64712393Y-64632408D01*
X66929000Y-64632408D01*
X66929000Y-64907592D01*
X66982686Y-65177490D01*
X67087995Y-65431727D01*
X67240880Y-65660535D01*
X67435465Y-65855120D01*
X67664273Y-66008005D01*
X67741515Y-66040000D01*
X67664273Y-66071995D01*
X67435465Y-66224880D01*
X67240880Y-66419465D01*
X67087995Y-66648273D01*
X66982686Y-66902510D01*
X66929000Y-67172408D01*
X66929000Y-67447592D01*
X66982686Y-67717490D01*
X67087995Y-67971727D01*
X67240880Y-68200535D01*
X67435465Y-68395120D01*
X67664273Y-68548005D01*
X67918510Y-68653314D01*
X68188408Y-68707000D01*
X68463592Y-68707000D01*
X68733490Y-68653314D01*
X68987727Y-68548005D01*
X69216535Y-68395120D01*
X69411120Y-68200535D01*
X69564005Y-67971727D01*
X69669314Y-67717490D01*
X69723000Y-67447592D01*
X69723000Y-67172408D01*
X69669314Y-66902510D01*
X69564005Y-66648273D01*
X69411120Y-66419465D01*
X69216535Y-66224880D01*
X68987727Y-66071995D01*
X68910485Y-66040000D01*
X68987727Y-66008005D01*
X69158736Y-65893740D01*
X73445000Y-65893740D01*
X73445000Y-66186260D01*
X73502068Y-66473158D01*
X73614010Y-66743411D01*
X73776525Y-66986632D01*
X73983368Y-67193475D01*
X74226589Y-67355990D01*
X74496842Y-67467932D01*
X74783740Y-67525000D01*
X75076260Y-67525000D01*
X75363158Y-67467932D01*
X75440000Y-67436103D01*
X75440001Y-73602668D01*
X75436324Y-73640000D01*
X75450998Y-73788985D01*
X75494454Y-73932246D01*
X75565026Y-74064276D01*
X75636201Y-74151002D01*
X75660000Y-74180001D01*
X75688998Y-74203799D01*
X80736200Y-79251002D01*
X80759999Y-79280001D01*
X80875724Y-79374974D01*
X80911928Y-79394326D01*
X80911928Y-79740000D01*
X80924188Y-79864482D01*
X80960498Y-79984180D01*
X81019463Y-80094494D01*
X81098815Y-80191185D01*
X81195506Y-80270537D01*
X81305820Y-80329502D01*
X81425518Y-80365812D01*
X81550000Y-80378072D01*
X83550000Y-80378072D01*
X83674482Y-80365812D01*
X83794180Y-80329502D01*
X83904494Y-80270537D01*
X84001185Y-80191185D01*
X84080537Y-80094494D01*
X84139502Y-79984180D01*
X84175812Y-79864482D01*
X84188072Y-79740000D01*
X84188072Y-77740000D01*
X84175812Y-77615518D01*
X84139502Y-77495820D01*
X84080537Y-77385506D01*
X84001185Y-77288815D01*
X83904494Y-77209463D01*
X83794180Y-77150498D01*
X83674482Y-77114188D01*
X83550000Y-77101928D01*
X81550000Y-77101928D01*
X81425518Y-77114188D01*
X81305820Y-77150498D01*
X81195506Y-77209463D01*
X81098815Y-77288815D01*
X81019844Y-77385042D01*
X76960000Y-73325199D01*
X76960000Y-65780475D01*
X77375000Y-65780475D01*
X77375000Y-66299525D01*
X77476261Y-66808601D01*
X77674893Y-67288141D01*
X77963262Y-67719715D01*
X78330285Y-68086738D01*
X78761859Y-68375107D01*
X79241399Y-68573739D01*
X79750475Y-68675000D01*
X80269525Y-68675000D01*
X80778601Y-68573739D01*
X81258141Y-68375107D01*
X81689715Y-68086738D01*
X82056738Y-67719715D01*
X82345107Y-67288141D01*
X82543739Y-66808601D01*
X82645000Y-66299525D01*
X82645000Y-65893740D01*
X83605000Y-65893740D01*
X83605000Y-66186260D01*
X83662068Y-66473158D01*
X83774010Y-66743411D01*
X83936525Y-66986632D01*
X84143368Y-67193475D01*
X84386589Y-67355990D01*
X84656842Y-67467932D01*
X84943740Y-67525000D01*
X85236260Y-67525000D01*
X85523158Y-67467932D01*
X85793411Y-67355990D01*
X86036632Y-67193475D01*
X86243475Y-66986632D01*
X86405990Y-66743411D01*
X86517932Y-66473158D01*
X86575000Y-66186260D01*
X86575000Y-65893740D01*
X86517932Y-65606842D01*
X86405990Y-65336589D01*
X86243475Y-65093368D01*
X86036632Y-64886525D01*
X85793411Y-64724010D01*
X85523158Y-64612068D01*
X85236260Y-64555000D01*
X84943740Y-64555000D01*
X84656842Y-64612068D01*
X84386589Y-64724010D01*
X84143368Y-64886525D01*
X83936525Y-65093368D01*
X83774010Y-65336589D01*
X83662068Y-65606842D01*
X83605000Y-65893740D01*
X82645000Y-65893740D01*
X82645000Y-65780475D01*
X82543739Y-65271399D01*
X82345107Y-64791859D01*
X82056738Y-64360285D01*
X81689715Y-63993262D01*
X81258141Y-63704893D01*
X80778601Y-63506261D01*
X80269525Y-63405000D01*
X79750475Y-63405000D01*
X79241399Y-63506261D01*
X78761859Y-63704893D01*
X78330285Y-63993262D01*
X77963262Y-64360285D01*
X77674893Y-64791859D01*
X77476261Y-65271399D01*
X77375000Y-65780475D01*
X76960000Y-65780475D01*
X76960000Y-65063148D01*
X77021831Y-65037537D01*
X77305998Y-64847663D01*
X77547663Y-64605998D01*
X77737537Y-64321831D01*
X77868325Y-64006081D01*
X77935000Y-63670883D01*
X77935000Y-63329117D01*
X77868325Y-62993919D01*
X77737537Y-62678169D01*
X77547663Y-62394002D01*
X77305998Y-62152337D01*
X77021831Y-61962463D01*
X76706081Y-61831675D01*
X76370883Y-61765000D01*
X76029117Y-61765000D01*
X75693919Y-61831675D01*
X75378169Y-61962463D01*
X75094002Y-62152337D01*
X74852337Y-62394002D01*
X74662463Y-62678169D01*
X74531675Y-62993919D01*
X74465000Y-63329117D01*
X74465000Y-63670883D01*
X74531675Y-64006081D01*
X74662463Y-64321831D01*
X74818261Y-64555000D01*
X74783740Y-64555000D01*
X74496842Y-64612068D01*
X74226589Y-64724010D01*
X73983368Y-64886525D01*
X73776525Y-65093368D01*
X73614010Y-65336589D01*
X73502068Y-65606842D01*
X73445000Y-65893740D01*
X69158736Y-65893740D01*
X69216535Y-65855120D01*
X69411120Y-65660535D01*
X69564005Y-65431727D01*
X69669314Y-65177490D01*
X69723000Y-64907592D01*
X69723000Y-64632408D01*
X69669314Y-64362510D01*
X69564005Y-64108273D01*
X69411120Y-63879465D01*
X69216535Y-63684880D01*
X68987727Y-63531995D01*
X68916057Y-63502308D01*
X68929023Y-63497636D01*
X69044980Y-63435656D01*
X69111960Y-63195565D01*
X68326000Y-62409605D01*
X67540040Y-63195565D01*
X67607020Y-63435656D01*
X67742760Y-63499485D01*
X67664273Y-63531995D01*
X67435465Y-63684880D01*
X67240880Y-63879465D01*
X67087995Y-64108273D01*
X66982686Y-64362510D01*
X66929000Y-64632408D01*
X64712393Y-64632408D01*
X66939628Y-62405174D01*
X66965078Y-62574133D01*
X67058364Y-62833023D01*
X67120344Y-62948980D01*
X67360435Y-63015960D01*
X68146395Y-62230000D01*
X68505605Y-62230000D01*
X69291565Y-63015960D01*
X69531656Y-62948980D01*
X69648756Y-62699952D01*
X69715023Y-62432865D01*
X69727910Y-62157983D01*
X69686922Y-61885867D01*
X69593636Y-61626977D01*
X69531656Y-61511020D01*
X69291565Y-61444040D01*
X68505605Y-62230000D01*
X68146395Y-62230000D01*
X68132253Y-62215858D01*
X68311858Y-62036253D01*
X68326000Y-62050395D01*
X69111960Y-61264435D01*
X69044980Y-61024344D01*
X68795952Y-60907244D01*
X68528865Y-60840977D01*
X68504946Y-60839856D01*
X70361003Y-58983799D01*
X70390001Y-58960001D01*
X70484974Y-58844276D01*
X70555546Y-58712247D01*
X70599003Y-58568986D01*
X70610000Y-58457333D01*
X70610000Y-58457324D01*
X70613676Y-58420001D01*
X70610000Y-58382678D01*
X70610000Y-53340000D01*
X73287089Y-53340000D01*
X73318657Y-53660516D01*
X73412148Y-53968715D01*
X73563969Y-54252752D01*
X73768286Y-54501714D01*
X74017248Y-54706031D01*
X74301285Y-54857852D01*
X74609484Y-54951343D01*
X74849678Y-54975000D01*
X75010322Y-54975000D01*
X75250516Y-54951343D01*
X75558715Y-54857852D01*
X75842752Y-54706031D01*
X76091714Y-54501714D01*
X76296031Y-54252752D01*
X76447852Y-53968715D01*
X76541343Y-53660516D01*
X76572911Y-53340000D01*
X76541343Y-53019484D01*
X76447852Y-52711285D01*
X76296031Y-52427248D01*
X76224429Y-52340000D01*
X82181928Y-52340000D01*
X82181928Y-54340000D01*
X82194188Y-54464482D01*
X82230498Y-54584180D01*
X82289463Y-54694494D01*
X82368815Y-54791185D01*
X82465506Y-54870537D01*
X82575820Y-54929502D01*
X82695518Y-54965812D01*
X82820000Y-54978072D01*
X84820000Y-54978072D01*
X84944482Y-54965812D01*
X85064180Y-54929502D01*
X85174494Y-54870537D01*
X85271185Y-54791185D01*
X85350537Y-54694494D01*
X85409502Y-54584180D01*
X85445812Y-54464482D01*
X85458072Y-54340000D01*
X85458072Y-53994326D01*
X85494276Y-53974974D01*
X85610001Y-53880001D01*
X85619016Y-53869016D01*
X85630001Y-53860001D01*
X85724974Y-53744276D01*
X85795546Y-53612247D01*
X85839003Y-53468986D01*
X85850000Y-53357333D01*
X85850000Y-53357323D01*
X85853676Y-53320001D01*
X85850000Y-53282678D01*
X85850000Y-39663148D01*
X85911831Y-39637537D01*
X86195998Y-39447663D01*
X86437663Y-39205998D01*
X86627537Y-38921831D01*
X86758325Y-38606081D01*
X86825000Y-38270883D01*
X86825000Y-37929117D01*
X86758325Y-37593919D01*
X86627537Y-37278169D01*
X86437663Y-36994002D01*
X86195998Y-36752337D01*
X85911831Y-36562463D01*
X85596081Y-36431675D01*
X85260883Y-36365000D01*
X84919117Y-36365000D01*
X84583919Y-36431675D01*
X84268169Y-36562463D01*
X83984002Y-36752337D01*
X83742337Y-36994002D01*
X83552463Y-37278169D01*
X83421675Y-37593919D01*
X83355000Y-37929117D01*
X83355000Y-38270883D01*
X83421675Y-38606081D01*
X83552463Y-38921831D01*
X83708261Y-39155000D01*
X83673740Y-39155000D01*
X83386842Y-39212068D01*
X83116589Y-39324010D01*
X82873368Y-39486525D01*
X82666525Y-39693368D01*
X82504010Y-39936589D01*
X82392068Y-40206842D01*
X82335000Y-40493740D01*
X82335000Y-40786260D01*
X82392068Y-41073158D01*
X82504010Y-41343411D01*
X82666525Y-41586632D01*
X82873368Y-41793475D01*
X83116589Y-41955990D01*
X83386842Y-42067932D01*
X83673740Y-42125000D01*
X83966260Y-42125000D01*
X84253158Y-42067932D01*
X84330000Y-42036103D01*
X84330001Y-51701928D01*
X82820000Y-51701928D01*
X82695518Y-51714188D01*
X82575820Y-51750498D01*
X82465506Y-51809463D01*
X82368815Y-51888815D01*
X82289463Y-51985506D01*
X82230498Y-52095820D01*
X82194188Y-52215518D01*
X82181928Y-52340000D01*
X76224429Y-52340000D01*
X76091714Y-52178286D01*
X75842752Y-51973969D01*
X75558715Y-51822148D01*
X75250516Y-51728657D01*
X75010322Y-51705000D01*
X74849678Y-51705000D01*
X74609484Y-51728657D01*
X74301285Y-51822148D01*
X74017248Y-51973969D01*
X73768286Y-52178286D01*
X73563969Y-52427248D01*
X73412148Y-52711285D01*
X73318657Y-53019484D01*
X73287089Y-53340000D01*
X70610000Y-53340000D01*
X70610000Y-40493740D01*
X70905000Y-40493740D01*
X70905000Y-40786260D01*
X70962068Y-41073158D01*
X71074010Y-41343411D01*
X71236525Y-41586632D01*
X71443368Y-41793475D01*
X71686589Y-41955990D01*
X71956842Y-42067932D01*
X72243740Y-42125000D01*
X72536260Y-42125000D01*
X72823158Y-42067932D01*
X73093411Y-41955990D01*
X73336632Y-41793475D01*
X73543475Y-41586632D01*
X73705990Y-41343411D01*
X73817932Y-41073158D01*
X73875000Y-40786260D01*
X73875000Y-40493740D01*
X73817932Y-40206842D01*
X73705990Y-39936589D01*
X73543475Y-39693368D01*
X73336632Y-39486525D01*
X73093411Y-39324010D01*
X72823158Y-39212068D01*
X72536260Y-39155000D01*
X72243740Y-39155000D01*
X71956842Y-39212068D01*
X71686589Y-39324010D01*
X71443368Y-39486525D01*
X71236525Y-39693368D01*
X71074010Y-39936589D01*
X70962068Y-40206842D01*
X70905000Y-40493740D01*
X70610000Y-40493740D01*
X70610000Y-37123148D01*
X70671831Y-37097537D01*
X70955998Y-36907663D01*
X71197663Y-36665998D01*
X71387537Y-36381831D01*
X71518325Y-36066081D01*
X71585000Y-35730883D01*
X71585000Y-35389117D01*
X71518325Y-35053919D01*
X71387537Y-34738169D01*
X71197663Y-34454002D01*
X70955998Y-34212337D01*
X70671831Y-34022463D01*
X70610000Y-33996852D01*
X70610000Y-26940000D01*
X73291928Y-26940000D01*
X73291928Y-28940000D01*
X73304188Y-29064482D01*
X73340498Y-29184180D01*
X73399463Y-29294494D01*
X73478815Y-29391185D01*
X73575506Y-29470537D01*
X73685820Y-29529502D01*
X73805518Y-29565812D01*
X73930000Y-29578072D01*
X75930000Y-29578072D01*
X76054482Y-29565812D01*
X76174180Y-29529502D01*
X76284494Y-29470537D01*
X76381185Y-29391185D01*
X76460537Y-29294494D01*
X76519502Y-29184180D01*
X76555812Y-29064482D01*
X76568072Y-28940000D01*
X76568072Y-28594326D01*
X76604276Y-28574974D01*
X76720001Y-28480001D01*
X76729016Y-28469016D01*
X76740001Y-28460001D01*
X76834974Y-28344276D01*
X76905546Y-28212247D01*
X76949003Y-28068986D01*
X76960000Y-27957333D01*
X76960000Y-27957323D01*
X76961706Y-27940000D01*
X83447089Y-27940000D01*
X83478657Y-28260516D01*
X83572148Y-28568715D01*
X83723969Y-28852752D01*
X83928286Y-29101714D01*
X84177248Y-29306031D01*
X84461285Y-29457852D01*
X84769484Y-29551343D01*
X85009678Y-29575000D01*
X85170322Y-29575000D01*
X85410516Y-29551343D01*
X85718715Y-29457852D01*
X86002752Y-29306031D01*
X86251714Y-29101714D01*
X86456031Y-28852752D01*
X86607852Y-28568715D01*
X86701343Y-28260516D01*
X86732911Y-27940000D01*
X86701343Y-27619484D01*
X86607852Y-27311285D01*
X86456031Y-27027248D01*
X86251714Y-26778286D01*
X86002752Y-26573969D01*
X85718715Y-26422148D01*
X85410516Y-26328657D01*
X85170322Y-26305000D01*
X85009678Y-26305000D01*
X84769484Y-26328657D01*
X84461285Y-26422148D01*
X84177248Y-26573969D01*
X83928286Y-26778286D01*
X83723969Y-27027248D01*
X83572148Y-27311285D01*
X83478657Y-27619484D01*
X83447089Y-27940000D01*
X76961706Y-27940000D01*
X76963676Y-27920001D01*
X76960000Y-27882678D01*
X76960000Y-14980475D01*
X77375000Y-14980475D01*
X77375000Y-15499525D01*
X77476261Y-16008601D01*
X77674893Y-16488141D01*
X77963262Y-16919715D01*
X78330285Y-17286738D01*
X78761859Y-17575107D01*
X79241399Y-17773739D01*
X79750475Y-17875000D01*
X80269525Y-17875000D01*
X80778601Y-17773739D01*
X81258141Y-17575107D01*
X81689715Y-17286738D01*
X82056738Y-16919715D01*
X82345107Y-16488141D01*
X82543739Y-16008601D01*
X82645000Y-15499525D01*
X82645000Y-14980475D01*
X82543739Y-14471399D01*
X82345107Y-13991859D01*
X82056738Y-13560285D01*
X81689715Y-13193262D01*
X81258141Y-12904893D01*
X80778601Y-12706261D01*
X80269525Y-12605000D01*
X79750475Y-12605000D01*
X79241399Y-12706261D01*
X78761859Y-12904893D01*
X78330285Y-13193262D01*
X77963262Y-13560285D01*
X77674893Y-13991859D01*
X77476261Y-14471399D01*
X77375000Y-14980475D01*
X76960000Y-14980475D01*
X76960000Y-14263148D01*
X77021831Y-14237537D01*
X77305998Y-14047663D01*
X77547663Y-13805998D01*
X77737537Y-13521831D01*
X77868325Y-13206081D01*
X77935000Y-12870883D01*
X77935000Y-12529117D01*
X77868325Y-12193919D01*
X77737537Y-11878169D01*
X77547663Y-11594002D01*
X77305998Y-11352337D01*
X77021831Y-11162463D01*
X76706081Y-11031675D01*
X76370883Y-10965000D01*
X76029117Y-10965000D01*
X75693919Y-11031675D01*
X75378169Y-11162463D01*
X75094002Y-11352337D01*
X74852337Y-11594002D01*
X74662463Y-11878169D01*
X74531675Y-12193919D01*
X74465000Y-12529117D01*
X74465000Y-12870883D01*
X74531675Y-13206081D01*
X74662463Y-13521831D01*
X74818261Y-13755000D01*
X74783740Y-13755000D01*
X74496842Y-13812068D01*
X74226589Y-13924010D01*
X73983368Y-14086525D01*
X73776525Y-14293368D01*
X73614010Y-14536589D01*
X73502068Y-14806842D01*
X73445000Y-15093740D01*
X73445000Y-15386260D01*
X73502068Y-15673158D01*
X73614010Y-15943411D01*
X73776525Y-16186632D01*
X73983368Y-16393475D01*
X74226589Y-16555990D01*
X74496842Y-16667932D01*
X74783740Y-16725000D01*
X75076260Y-16725000D01*
X75363158Y-16667932D01*
X75440000Y-16636103D01*
X75440001Y-26301928D01*
X73930000Y-26301928D01*
X73805518Y-26314188D01*
X73685820Y-26350498D01*
X73575506Y-26409463D01*
X73478815Y-26488815D01*
X73399463Y-26585506D01*
X73340498Y-26695820D01*
X73304188Y-26815518D01*
X73291928Y-26940000D01*
X70610000Y-26940000D01*
X70610000Y-19087333D01*
X70613677Y-19050000D01*
X70599003Y-18901014D01*
X70555546Y-18757753D01*
X70484974Y-18625724D01*
X70413799Y-18538997D01*
X70390001Y-18509999D01*
X70361004Y-18486202D01*
X62602714Y-10727912D01*
X62628325Y-10666081D01*
X62695000Y-10330883D01*
X62695000Y-9989117D01*
X80815000Y-9989117D01*
X80815000Y-10330883D01*
X80881675Y-10666081D01*
X81012463Y-10981831D01*
X81202337Y-11265998D01*
X81444002Y-11507663D01*
X81728169Y-11697537D01*
X82043919Y-11828325D01*
X82379117Y-11895000D01*
X82720883Y-11895000D01*
X83056081Y-11828325D01*
X83117912Y-11802714D01*
X85070199Y-13755000D01*
X84943740Y-13755000D01*
X84656842Y-13812068D01*
X84386589Y-13924010D01*
X84143368Y-14086525D01*
X83936525Y-14293368D01*
X83774010Y-14536589D01*
X83662068Y-14806842D01*
X83605000Y-15093740D01*
X83605000Y-15386260D01*
X83662068Y-15673158D01*
X83774010Y-15943411D01*
X83936525Y-16186632D01*
X84143368Y-16393475D01*
X84386589Y-16555990D01*
X84656842Y-16667932D01*
X84943740Y-16725000D01*
X85236260Y-16725000D01*
X85523158Y-16667932D01*
X85793411Y-16555990D01*
X86036632Y-16393475D01*
X86243475Y-16186632D01*
X86405990Y-15943411D01*
X86517932Y-15673158D01*
X86575000Y-15386260D01*
X86575000Y-15259802D01*
X90680000Y-19364802D01*
X90680001Y-33996851D01*
X90618169Y-34022463D01*
X90334002Y-34212337D01*
X90092337Y-34454002D01*
X89902463Y-34738169D01*
X89771675Y-35053919D01*
X89705000Y-35389117D01*
X89705000Y-35730883D01*
X89771675Y-36066081D01*
X89902463Y-36381831D01*
X90092337Y-36665998D01*
X90334002Y-36907663D01*
X90618169Y-37097537D01*
X90680001Y-37123149D01*
X90680001Y-38693548D01*
X90579715Y-38593262D01*
X90148141Y-38304893D01*
X89668601Y-38106261D01*
X89159525Y-38005000D01*
X88640475Y-38005000D01*
X88131399Y-38106261D01*
X87651859Y-38304893D01*
X87220285Y-38593262D01*
X86853262Y-38960285D01*
X86564893Y-39391859D01*
X86366261Y-39871399D01*
X86265000Y-40380475D01*
X86265000Y-40899525D01*
X86366261Y-41408601D01*
X86564893Y-41888141D01*
X86853262Y-42319715D01*
X87220285Y-42686738D01*
X87651859Y-42975107D01*
X88131399Y-43173739D01*
X88640475Y-43275000D01*
X89159525Y-43275000D01*
X89668601Y-43173739D01*
X90148141Y-42975107D01*
X90579715Y-42686738D01*
X90680001Y-42586452D01*
X90680000Y-51755198D01*
X83117912Y-59317286D01*
X83056081Y-59291675D01*
X82720883Y-59225000D01*
X82379117Y-59225000D01*
X82043919Y-59291675D01*
X81728169Y-59422463D01*
X81444002Y-59612337D01*
X81202337Y-59854002D01*
X81012463Y-60138169D01*
X80881675Y-60453919D01*
X80815000Y-60789117D01*
X80815000Y-61130883D01*
X80881675Y-61466081D01*
X81012463Y-61781831D01*
X81202337Y-62065998D01*
X81444002Y-62307663D01*
X81728169Y-62497537D01*
X82043919Y-62628325D01*
X82379117Y-62695000D01*
X82720883Y-62695000D01*
X83056081Y-62628325D01*
X83371831Y-62497537D01*
X83655998Y-62307663D01*
X83897663Y-62065998D01*
X84087537Y-61781831D01*
X84218325Y-61466081D01*
X84285000Y-61130883D01*
X84285000Y-60789117D01*
X84218325Y-60453919D01*
X84192714Y-60392088D01*
X91244802Y-53340000D01*
X92337089Y-53340000D01*
X92368657Y-53660516D01*
X92462148Y-53968715D01*
X92613969Y-54252752D01*
X92818286Y-54501714D01*
X93067248Y-54706031D01*
X93351285Y-54857852D01*
X93659484Y-54951343D01*
X93899678Y-54975000D01*
X94060322Y-54975000D01*
X94300516Y-54951343D01*
X94608715Y-54857852D01*
X94892752Y-54706031D01*
X95141714Y-54501714D01*
X95346031Y-54252752D01*
X95497852Y-53968715D01*
X95591343Y-53660516D01*
X95622911Y-53340000D01*
X95591343Y-53019484D01*
X95497852Y-52711285D01*
X95346031Y-52427248D01*
X95141714Y-52178286D01*
X94892752Y-51973969D01*
X94608715Y-51822148D01*
X94300516Y-51728657D01*
X94060322Y-51705000D01*
X93899678Y-51705000D01*
X93659484Y-51728657D01*
X93351285Y-51822148D01*
X93067248Y-51973969D01*
X92818286Y-52178286D01*
X92613969Y-52427248D01*
X92462148Y-52711285D01*
X92368657Y-53019484D01*
X92337089Y-53340000D01*
X91244802Y-53340000D01*
X91951004Y-52633798D01*
X91980001Y-52610001D01*
X92074974Y-52494276D01*
X92145546Y-52362247D01*
X92189003Y-52218986D01*
X92200000Y-52107333D01*
X92200000Y-52107332D01*
X92203677Y-52070000D01*
X92200000Y-52032667D01*
X92200000Y-40493740D01*
X92495000Y-40493740D01*
X92495000Y-40786260D01*
X92552068Y-41073158D01*
X92664010Y-41343411D01*
X92826525Y-41586632D01*
X93033368Y-41793475D01*
X93276589Y-41955990D01*
X93546842Y-42067932D01*
X93833740Y-42125000D01*
X94126260Y-42125000D01*
X94413158Y-42067932D01*
X94683411Y-41955990D01*
X94926632Y-41793475D01*
X95133475Y-41586632D01*
X95295990Y-41343411D01*
X95407932Y-41073158D01*
X95465000Y-40786260D01*
X95465000Y-40493740D01*
X95407932Y-40206842D01*
X95295990Y-39936589D01*
X95133475Y-39693368D01*
X94926632Y-39486525D01*
X94683411Y-39324010D01*
X94413158Y-39212068D01*
X94126260Y-39155000D01*
X93833740Y-39155000D01*
X93546842Y-39212068D01*
X93276589Y-39324010D01*
X93033368Y-39486525D01*
X92826525Y-39693368D01*
X92664010Y-39936589D01*
X92552068Y-40206842D01*
X92495000Y-40493740D01*
X92200000Y-40493740D01*
X92200000Y-37123148D01*
X92261831Y-37097537D01*
X92545998Y-36907663D01*
X92787663Y-36665998D01*
X92977537Y-36381831D01*
X93108325Y-36066081D01*
X93175000Y-35730883D01*
X93175000Y-35389117D01*
X93108325Y-35053919D01*
X92977537Y-34738169D01*
X92787663Y-34454002D01*
X92545998Y-34212337D01*
X92261831Y-34022463D01*
X92200000Y-33996852D01*
X92200000Y-19087333D01*
X92203677Y-19050000D01*
X92189003Y-18901014D01*
X92145546Y-18757753D01*
X92074974Y-18625724D01*
X92003799Y-18538997D01*
X91980001Y-18509999D01*
X91951004Y-18486202D01*
X84192714Y-10727912D01*
X84218325Y-10666081D01*
X84285000Y-10330883D01*
X84285000Y-9989117D01*
X84218325Y-9653919D01*
X84087537Y-9338169D01*
X83897663Y-9054002D01*
X83655998Y-8812337D01*
X83371831Y-8622463D01*
X83056081Y-8491675D01*
X82720883Y-8425000D01*
X82379117Y-8425000D01*
X82043919Y-8491675D01*
X81728169Y-8622463D01*
X81444002Y-8812337D01*
X81202337Y-9054002D01*
X81012463Y-9338169D01*
X80881675Y-9653919D01*
X80815000Y-9989117D01*
X62695000Y-9989117D01*
X62628325Y-9653919D01*
X62497537Y-9338169D01*
X62307663Y-9054002D01*
X62065998Y-8812337D01*
X61781831Y-8622463D01*
X61466081Y-8491675D01*
X61130883Y-8425000D01*
X60789117Y-8425000D01*
X60453919Y-8491675D01*
X60138169Y-8622463D01*
X59854002Y-8812337D01*
X59612337Y-9054002D01*
X59422463Y-9338169D01*
X59291675Y-9653919D01*
X59225000Y-9989117D01*
X59225000Y-10330883D01*
X59291675Y-10666081D01*
X59422463Y-10981831D01*
X59612337Y-11265998D01*
X59854002Y-11507663D01*
X60138169Y-11697537D01*
X60453919Y-11828325D01*
X60789117Y-11895000D01*
X61130883Y-11895000D01*
X61466081Y-11828325D01*
X61527912Y-11802714D01*
X63480199Y-13755000D01*
X63353740Y-13755000D01*
X63066842Y-13812068D01*
X62796589Y-13924010D01*
X62553368Y-14086525D01*
X62346525Y-14293368D01*
X62184010Y-14536589D01*
X62072068Y-14806842D01*
X62015000Y-15093740D01*
X62015000Y-15386260D01*
X62072068Y-15673158D01*
X62184010Y-15943411D01*
X62346525Y-16186632D01*
X62553368Y-16393475D01*
X62796589Y-16555990D01*
X63066842Y-16667932D01*
X63353740Y-16725000D01*
X63646260Y-16725000D01*
X63933158Y-16667932D01*
X64203411Y-16555990D01*
X64446632Y-16393475D01*
X64653475Y-16186632D01*
X64815990Y-15943411D01*
X64927932Y-15673158D01*
X64985000Y-15386260D01*
X64985000Y-15259802D01*
X69090000Y-19364802D01*
X69090001Y-33996851D01*
X69028169Y-34022463D01*
X68744002Y-34212337D01*
X68502337Y-34454002D01*
X68312463Y-34738169D01*
X68181675Y-35053919D01*
X68115000Y-35389117D01*
X68115000Y-35730883D01*
X68181675Y-36066081D01*
X68312463Y-36381831D01*
X68502337Y-36665998D01*
X68744002Y-36907663D01*
X69028169Y-37097537D01*
X69090000Y-37123148D01*
X69090000Y-38693547D01*
X68989715Y-38593262D01*
X68558141Y-38304893D01*
X68078601Y-38106261D01*
X67569525Y-38005000D01*
X67050475Y-38005000D01*
X66541399Y-38106261D01*
X66061859Y-38304893D01*
X65630285Y-38593262D01*
X65263262Y-38960285D01*
X64974893Y-39391859D01*
X64776261Y-39871399D01*
X64675000Y-40380475D01*
X64675000Y-40899525D01*
X64776261Y-41408601D01*
X64974893Y-41888141D01*
X65263262Y-42319715D01*
X65630285Y-42686738D01*
X66061859Y-42975107D01*
X66541399Y-43173739D01*
X67050475Y-43275000D01*
X67569525Y-43275000D01*
X68078601Y-43173739D01*
X68558141Y-42975107D01*
X68989715Y-42686738D01*
X69090000Y-42586453D01*
X69090001Y-58105197D01*
X55409571Y-71785628D01*
X55255592Y-71755000D01*
X54980408Y-71755000D01*
X54710510Y-71808686D01*
X54456273Y-71913995D01*
X54227465Y-72066880D01*
X54032880Y-72261465D01*
X53879995Y-72490273D01*
X53774686Y-72744510D01*
X53721000Y-73014408D01*
X33780000Y-73014408D01*
X33780000Y-71388808D01*
X49149000Y-71388808D01*
X49149000Y-71663992D01*
X49202686Y-71933890D01*
X49307995Y-72188127D01*
X49460880Y-72416935D01*
X49655465Y-72611520D01*
X49884273Y-72764405D01*
X50138510Y-72869714D01*
X50408408Y-72923400D01*
X50683592Y-72923400D01*
X50953490Y-72869714D01*
X51207727Y-72764405D01*
X51436535Y-72611520D01*
X51631120Y-72416935D01*
X51784005Y-72188127D01*
X51889314Y-71933890D01*
X51943000Y-71663992D01*
X51943000Y-71388808D01*
X51889314Y-71118910D01*
X51784005Y-70864673D01*
X51631120Y-70635865D01*
X51436535Y-70441280D01*
X51207727Y-70288395D01*
X50953490Y-70183086D01*
X50683592Y-70129400D01*
X50408408Y-70129400D01*
X50138510Y-70183086D01*
X49884273Y-70288395D01*
X49655465Y-70441280D01*
X49460880Y-70635865D01*
X49307995Y-70864673D01*
X49202686Y-71118910D01*
X49149000Y-71388808D01*
X33780000Y-71388808D01*
X33780000Y-65063148D01*
X33841831Y-65037537D01*
X34125998Y-64847663D01*
X34367663Y-64605998D01*
X34557537Y-64321831D01*
X34688325Y-64006081D01*
X34755000Y-63670883D01*
X34755000Y-63329117D01*
X34688325Y-62993919D01*
X34622498Y-62834999D01*
X35891196Y-62834999D01*
X36402209Y-63346012D01*
X36426007Y-63375011D01*
X36483604Y-63422280D01*
X36061399Y-63506261D01*
X35581859Y-63704893D01*
X35150285Y-63993262D01*
X34783262Y-64360285D01*
X34494893Y-64791859D01*
X34296261Y-65271399D01*
X34195000Y-65780475D01*
X34195000Y-66299525D01*
X34296261Y-66808601D01*
X34494893Y-67288141D01*
X34783262Y-67719715D01*
X35150285Y-68086738D01*
X35581859Y-68375107D01*
X36061399Y-68573739D01*
X36570475Y-68675000D01*
X37089525Y-68675000D01*
X37598601Y-68573739D01*
X38078141Y-68375107D01*
X38509715Y-68086738D01*
X38876738Y-67719715D01*
X39165107Y-67288141D01*
X39363739Y-66808601D01*
X39465000Y-66299525D01*
X39465000Y-65893740D01*
X40425000Y-65893740D01*
X40425000Y-66186260D01*
X40482068Y-66473158D01*
X40594010Y-66743411D01*
X40756525Y-66986632D01*
X40963368Y-67193475D01*
X41206589Y-67355990D01*
X41476842Y-67467932D01*
X41763740Y-67525000D01*
X42056260Y-67525000D01*
X42343158Y-67467932D01*
X42613411Y-67355990D01*
X42856632Y-67193475D01*
X43063475Y-66986632D01*
X43225990Y-66743411D01*
X43337932Y-66473158D01*
X43395000Y-66186260D01*
X43395000Y-65893740D01*
X43337932Y-65606842D01*
X43225990Y-65336589D01*
X43063475Y-65093368D01*
X42856632Y-64886525D01*
X42613411Y-64724010D01*
X42343158Y-64612068D01*
X42056260Y-64555000D01*
X41763740Y-64555000D01*
X41476842Y-64612068D01*
X41206589Y-64724010D01*
X40963368Y-64886525D01*
X40756525Y-65093368D01*
X40594010Y-65336589D01*
X40482068Y-65606842D01*
X40425000Y-65893740D01*
X39465000Y-65893740D01*
X39465000Y-65780475D01*
X39363739Y-65271399D01*
X39165107Y-64791859D01*
X38876738Y-64360285D01*
X38509715Y-63993262D01*
X38078141Y-63704893D01*
X37812860Y-63595010D01*
X44078506Y-63595010D01*
X44115828Y-63598686D01*
X44153150Y-63595010D01*
X44153161Y-63595010D01*
X44264814Y-63584013D01*
X44408075Y-63540556D01*
X44540104Y-63469984D01*
X44655829Y-63375011D01*
X44679632Y-63346007D01*
X49324945Y-58700694D01*
X49460880Y-58904135D01*
X49655465Y-59098720D01*
X49884273Y-59251605D01*
X50138510Y-59356914D01*
X50408408Y-59410600D01*
X50683592Y-59410600D01*
X50953490Y-59356914D01*
X51207727Y-59251605D01*
X51436535Y-59098720D01*
X51631120Y-58904135D01*
X51784005Y-58675327D01*
X51889314Y-58421090D01*
X51943000Y-58151192D01*
X51943000Y-57876008D01*
X64897000Y-57876008D01*
X64897000Y-58151192D01*
X64950686Y-58421090D01*
X65055995Y-58675327D01*
X65208880Y-58904135D01*
X65403465Y-59098720D01*
X65632273Y-59251605D01*
X65886510Y-59356914D01*
X66156408Y-59410600D01*
X66431592Y-59410600D01*
X66701490Y-59356914D01*
X66955727Y-59251605D01*
X67184535Y-59098720D01*
X67379120Y-58904135D01*
X67532005Y-58675327D01*
X67637314Y-58421090D01*
X67691000Y-58151192D01*
X67691000Y-57876008D01*
X67637314Y-57606110D01*
X67532005Y-57351873D01*
X67379120Y-57123065D01*
X67184535Y-56928480D01*
X66955727Y-56775595D01*
X66701490Y-56670286D01*
X66431592Y-56616600D01*
X66156408Y-56616600D01*
X65886510Y-56670286D01*
X65632273Y-56775595D01*
X65403465Y-56928480D01*
X65208880Y-57123065D01*
X65055995Y-57351873D01*
X64950686Y-57606110D01*
X64897000Y-57876008D01*
X51943000Y-57876008D01*
X51889314Y-57606110D01*
X51784005Y-57351873D01*
X51631120Y-57123065D01*
X51436535Y-56928480D01*
X51233095Y-56792545D01*
X52196075Y-55829565D01*
X55094040Y-55829565D01*
X55161020Y-56069656D01*
X55410048Y-56186756D01*
X55677135Y-56253023D01*
X55952017Y-56265910D01*
X56224133Y-56224922D01*
X56483023Y-56131636D01*
X56598980Y-56069656D01*
X56665960Y-55829565D01*
X55880000Y-55043605D01*
X55094040Y-55829565D01*
X52196075Y-55829565D01*
X53488641Y-54536999D01*
X54521776Y-54536999D01*
X54490977Y-54661135D01*
X54478090Y-54936017D01*
X54519078Y-55208133D01*
X54612364Y-55467023D01*
X54674344Y-55582980D01*
X54914435Y-55649960D01*
X55700395Y-54864000D01*
X55686253Y-54849858D01*
X55865858Y-54670253D01*
X55880000Y-54684395D01*
X55894143Y-54670253D01*
X56073748Y-54849858D01*
X56059605Y-54864000D01*
X56845565Y-55649960D01*
X57085656Y-55582980D01*
X57149485Y-55447240D01*
X57181995Y-55525727D01*
X57334880Y-55754535D01*
X57529465Y-55949120D01*
X57758273Y-56102005D01*
X58012510Y-56207314D01*
X58282408Y-56261000D01*
X58557592Y-56261000D01*
X58827490Y-56207314D01*
X59081727Y-56102005D01*
X59310535Y-55949120D01*
X59505120Y-55754535D01*
X59658005Y-55525727D01*
X59690000Y-55448485D01*
X59721995Y-55525727D01*
X59874880Y-55754535D01*
X60069465Y-55949120D01*
X60298273Y-56102005D01*
X60552510Y-56207314D01*
X60822408Y-56261000D01*
X61097592Y-56261000D01*
X61367490Y-56207314D01*
X61621727Y-56102005D01*
X61850535Y-55949120D01*
X62045120Y-55754535D01*
X62198005Y-55525727D01*
X62303314Y-55271490D01*
X62357000Y-55001592D01*
X62357000Y-54726408D01*
X62303314Y-54456510D01*
X62198005Y-54202273D01*
X62045120Y-53973465D01*
X61850535Y-53778880D01*
X61621727Y-53625995D01*
X61367490Y-53520686D01*
X61097592Y-53467000D01*
X60822408Y-53467000D01*
X60668430Y-53497628D01*
X58674803Y-51504002D01*
X58651000Y-51474998D01*
X58535275Y-51380025D01*
X58403246Y-51309453D01*
X58259985Y-51265996D01*
X58148332Y-51254999D01*
X58148321Y-51254999D01*
X58110999Y-51251323D01*
X58073677Y-51254999D01*
X50257323Y-51254999D01*
X50220001Y-51251323D01*
X50182678Y-51254999D01*
X50182668Y-51254999D01*
X50071015Y-51265996D01*
X49927754Y-51309453D01*
X49795724Y-51380025D01*
X49728706Y-51435026D01*
X49680000Y-51474998D01*
X49656202Y-51503996D01*
X49192625Y-51967573D01*
X49105723Y-52014024D01*
X49056328Y-52054562D01*
X49022460Y-52082357D01*
X49023677Y-52070000D01*
X49020000Y-52032667D01*
X49020000Y-40493740D01*
X49315000Y-40493740D01*
X49315000Y-40786260D01*
X49372068Y-41073158D01*
X49484010Y-41343411D01*
X49646525Y-41586632D01*
X49853368Y-41793475D01*
X50096589Y-41955990D01*
X50366842Y-42067932D01*
X50653740Y-42125000D01*
X50946260Y-42125000D01*
X51233158Y-42067932D01*
X51503411Y-41955990D01*
X51746632Y-41793475D01*
X51953475Y-41586632D01*
X52115990Y-41343411D01*
X52227932Y-41073158D01*
X52285000Y-40786260D01*
X52285000Y-40493740D01*
X60745000Y-40493740D01*
X60745000Y-40786260D01*
X60802068Y-41073158D01*
X60914010Y-41343411D01*
X61076525Y-41586632D01*
X61283368Y-41793475D01*
X61526589Y-41955990D01*
X61796842Y-42067932D01*
X62083740Y-42125000D01*
X62376260Y-42125000D01*
X62663158Y-42067932D01*
X62740000Y-42036103D01*
X62740001Y-53282667D01*
X62736324Y-53320000D01*
X62740001Y-53357333D01*
X62750998Y-53468986D01*
X62755781Y-53484753D01*
X62794454Y-53612246D01*
X62865026Y-53744276D01*
X62918926Y-53809952D01*
X62960000Y-53860001D01*
X62970982Y-53869014D01*
X62979999Y-53880001D01*
X63095724Y-53974974D01*
X63131928Y-53994326D01*
X63131928Y-54340000D01*
X63144188Y-54464482D01*
X63180498Y-54584180D01*
X63239463Y-54694494D01*
X63318815Y-54791185D01*
X63415506Y-54870537D01*
X63525820Y-54929502D01*
X63645518Y-54965812D01*
X63770000Y-54978072D01*
X65770000Y-54978072D01*
X65894482Y-54965812D01*
X66014180Y-54929502D01*
X66124494Y-54870537D01*
X66221185Y-54791185D01*
X66300537Y-54694494D01*
X66359502Y-54584180D01*
X66395812Y-54464482D01*
X66408072Y-54340000D01*
X66408072Y-52340000D01*
X66395812Y-52215518D01*
X66359502Y-52095820D01*
X66300537Y-51985506D01*
X66221185Y-51888815D01*
X66124494Y-51809463D01*
X66014180Y-51750498D01*
X65894482Y-51714188D01*
X65770000Y-51701928D01*
X64260000Y-51701928D01*
X64260000Y-39663148D01*
X64321831Y-39637537D01*
X64605998Y-39447663D01*
X64847663Y-39205998D01*
X65037537Y-38921831D01*
X65168325Y-38606081D01*
X65235000Y-38270883D01*
X65235000Y-37929117D01*
X65168325Y-37593919D01*
X65037537Y-37278169D01*
X64847663Y-36994002D01*
X64605998Y-36752337D01*
X64321831Y-36562463D01*
X64006081Y-36431675D01*
X63670883Y-36365000D01*
X63329117Y-36365000D01*
X62993919Y-36431675D01*
X62678169Y-36562463D01*
X62394002Y-36752337D01*
X62152337Y-36994002D01*
X61962463Y-37278169D01*
X61831675Y-37593919D01*
X61765000Y-37929117D01*
X61765000Y-38270883D01*
X61831675Y-38606081D01*
X61962463Y-38921831D01*
X62118261Y-39155000D01*
X62083740Y-39155000D01*
X61796842Y-39212068D01*
X61526589Y-39324010D01*
X61283368Y-39486525D01*
X61076525Y-39693368D01*
X60914010Y-39936589D01*
X60802068Y-40206842D01*
X60745000Y-40493740D01*
X52285000Y-40493740D01*
X52227932Y-40206842D01*
X52115990Y-39936589D01*
X51953475Y-39693368D01*
X51746632Y-39486525D01*
X51503411Y-39324010D01*
X51233158Y-39212068D01*
X50946260Y-39155000D01*
X50653740Y-39155000D01*
X50366842Y-39212068D01*
X50096589Y-39324010D01*
X49853368Y-39486525D01*
X49646525Y-39693368D01*
X49484010Y-39936589D01*
X49372068Y-40206842D01*
X49315000Y-40493740D01*
X49020000Y-40493740D01*
X49020000Y-37123148D01*
X49081831Y-37097537D01*
X49365998Y-36907663D01*
X49607663Y-36665998D01*
X49797537Y-36381831D01*
X49928325Y-36066081D01*
X49995000Y-35730883D01*
X49995000Y-35389117D01*
X49928325Y-35053919D01*
X49797537Y-34738169D01*
X49607663Y-34454002D01*
X49365998Y-34212337D01*
X49081831Y-34022463D01*
X49020000Y-33996852D01*
X49020000Y-31787333D01*
X49023677Y-31750000D01*
X49009003Y-31601014D01*
X48965546Y-31457753D01*
X48894974Y-31325724D01*
X48823799Y-31238997D01*
X48800001Y-31209999D01*
X48771004Y-31186202D01*
X44524802Y-26940000D01*
X51701928Y-26940000D01*
X51701928Y-28940000D01*
X51714188Y-29064482D01*
X51750498Y-29184180D01*
X51809463Y-29294494D01*
X51888815Y-29391185D01*
X51985506Y-29470537D01*
X52095820Y-29529502D01*
X52215518Y-29565812D01*
X52340000Y-29578072D01*
X54340000Y-29578072D01*
X54464482Y-29565812D01*
X54584180Y-29529502D01*
X54694494Y-29470537D01*
X54791185Y-29391185D01*
X54870537Y-29294494D01*
X54929502Y-29184180D01*
X54965812Y-29064482D01*
X54978072Y-28940000D01*
X54978072Y-28594326D01*
X55014276Y-28574974D01*
X55130001Y-28480001D01*
X55139016Y-28469016D01*
X55150001Y-28460001D01*
X55244974Y-28344276D01*
X55315546Y-28212247D01*
X55359003Y-28068986D01*
X55370000Y-27957333D01*
X55370000Y-27957323D01*
X55371706Y-27940000D01*
X61857089Y-27940000D01*
X61888657Y-28260516D01*
X61982148Y-28568715D01*
X62133969Y-28852752D01*
X62338286Y-29101714D01*
X62587248Y-29306031D01*
X62871285Y-29457852D01*
X63179484Y-29551343D01*
X63419678Y-29575000D01*
X63580322Y-29575000D01*
X63820516Y-29551343D01*
X64128715Y-29457852D01*
X64412752Y-29306031D01*
X64661714Y-29101714D01*
X64866031Y-28852752D01*
X65017852Y-28568715D01*
X65111343Y-28260516D01*
X65142911Y-27940000D01*
X65111343Y-27619484D01*
X65017852Y-27311285D01*
X64866031Y-27027248D01*
X64661714Y-26778286D01*
X64412752Y-26573969D01*
X64128715Y-26422148D01*
X63820516Y-26328657D01*
X63580322Y-26305000D01*
X63419678Y-26305000D01*
X63179484Y-26328657D01*
X62871285Y-26422148D01*
X62587248Y-26573969D01*
X62338286Y-26778286D01*
X62133969Y-27027248D01*
X61982148Y-27311285D01*
X61888657Y-27619484D01*
X61857089Y-27940000D01*
X55371706Y-27940000D01*
X55373676Y-27920001D01*
X55370000Y-27882678D01*
X55370000Y-14980475D01*
X55785000Y-14980475D01*
X55785000Y-15499525D01*
X55886261Y-16008601D01*
X56084893Y-16488141D01*
X56373262Y-16919715D01*
X56740285Y-17286738D01*
X57171859Y-17575107D01*
X57651399Y-17773739D01*
X58160475Y-17875000D01*
X58679525Y-17875000D01*
X59188601Y-17773739D01*
X59668141Y-17575107D01*
X60099715Y-17286738D01*
X60466738Y-16919715D01*
X60755107Y-16488141D01*
X60953739Y-16008601D01*
X61055000Y-15499525D01*
X61055000Y-14980475D01*
X60953739Y-14471399D01*
X60755107Y-13991859D01*
X60466738Y-13560285D01*
X60099715Y-13193262D01*
X59668141Y-12904893D01*
X59188601Y-12706261D01*
X58679525Y-12605000D01*
X58160475Y-12605000D01*
X57651399Y-12706261D01*
X57171859Y-12904893D01*
X56740285Y-13193262D01*
X56373262Y-13560285D01*
X56084893Y-13991859D01*
X55886261Y-14471399D01*
X55785000Y-14980475D01*
X55370000Y-14980475D01*
X55370000Y-14263148D01*
X55431831Y-14237537D01*
X55715998Y-14047663D01*
X55957663Y-13805998D01*
X56147537Y-13521831D01*
X56278325Y-13206081D01*
X56345000Y-12870883D01*
X56345000Y-12529117D01*
X56278325Y-12193919D01*
X56147537Y-11878169D01*
X55957663Y-11594002D01*
X55715998Y-11352337D01*
X55431831Y-11162463D01*
X55116081Y-11031675D01*
X54780883Y-10965000D01*
X54439117Y-10965000D01*
X54103919Y-11031675D01*
X53788169Y-11162463D01*
X53504002Y-11352337D01*
X53262337Y-11594002D01*
X53072463Y-11878169D01*
X52941675Y-12193919D01*
X52875000Y-12529117D01*
X52875000Y-12870883D01*
X52941675Y-13206081D01*
X53072463Y-13521831D01*
X53228261Y-13755000D01*
X53193740Y-13755000D01*
X52906842Y-13812068D01*
X52636589Y-13924010D01*
X52393368Y-14086525D01*
X52186525Y-14293368D01*
X52024010Y-14536589D01*
X51912068Y-14806842D01*
X51855000Y-15093740D01*
X51855000Y-15386260D01*
X51912068Y-15673158D01*
X52024010Y-15943411D01*
X52186525Y-16186632D01*
X52393368Y-16393475D01*
X52636589Y-16555990D01*
X52906842Y-16667932D01*
X53193740Y-16725000D01*
X53486260Y-16725000D01*
X53773158Y-16667932D01*
X53850000Y-16636103D01*
X53850001Y-26301928D01*
X52340000Y-26301928D01*
X52215518Y-26314188D01*
X52095820Y-26350498D01*
X51985506Y-26409463D01*
X51888815Y-26488815D01*
X51809463Y-26585506D01*
X51750498Y-26695820D01*
X51714188Y-26815518D01*
X51701928Y-26940000D01*
X44524802Y-26940000D01*
X40130000Y-22545199D01*
X40130000Y-15093740D01*
X40425000Y-15093740D01*
X40425000Y-15386260D01*
X40482068Y-15673158D01*
X40594010Y-15943411D01*
X40756525Y-16186632D01*
X40963368Y-16393475D01*
X41206589Y-16555990D01*
X41476842Y-16667932D01*
X41763740Y-16725000D01*
X42056260Y-16725000D01*
X42343158Y-16667932D01*
X42613411Y-16555990D01*
X42856632Y-16393475D01*
X43063475Y-16186632D01*
X43225990Y-15943411D01*
X43337932Y-15673158D01*
X43395000Y-15386260D01*
X43395000Y-15093740D01*
X43337932Y-14806842D01*
X43225990Y-14536589D01*
X43063475Y-14293368D01*
X42856632Y-14086525D01*
X42613411Y-13924010D01*
X42343158Y-13812068D01*
X42056260Y-13755000D01*
X41763740Y-13755000D01*
X41476842Y-13812068D01*
X41206589Y-13924010D01*
X40963368Y-14086525D01*
X40756525Y-14293368D01*
X40594010Y-14536589D01*
X40482068Y-14806842D01*
X40425000Y-15093740D01*
X40130000Y-15093740D01*
X40130000Y-11723148D01*
X40191831Y-11697537D01*
X40475998Y-11507663D01*
X40717663Y-11265998D01*
X40907537Y-10981831D01*
X41038325Y-10666081D01*
X41105000Y-10330883D01*
X41105000Y-9989117D01*
X41038325Y-9653919D01*
X40907537Y-9338169D01*
X40717663Y-9054002D01*
X40475998Y-8812337D01*
X40191831Y-8622463D01*
X39876081Y-8491675D01*
X39540883Y-8425000D01*
X39199117Y-8425000D01*
X38863919Y-8491675D01*
X38548169Y-8622463D01*
X38264002Y-8812337D01*
X38022337Y-9054002D01*
X37832463Y-9338169D01*
X37701675Y-9653919D01*
X37635000Y-9989117D01*
X37635000Y-10330883D01*
X37701675Y-10666081D01*
X37832463Y-10981831D01*
X38022337Y-11265998D01*
X38264002Y-11507663D01*
X38548169Y-11697537D01*
X38610000Y-11723148D01*
X38610000Y-13293547D01*
X38509715Y-13193262D01*
X38078141Y-12904893D01*
X37598601Y-12706261D01*
X37089525Y-12605000D01*
X36570475Y-12605000D01*
X36061399Y-12706261D01*
X35581859Y-12904893D01*
X35150285Y-13193262D01*
X34783262Y-13560285D01*
X34494893Y-13991859D01*
X34296261Y-14471399D01*
X34195000Y-14980475D01*
X34195000Y-15499525D01*
X34296261Y-16008601D01*
X34494893Y-16488141D01*
X34783262Y-16919715D01*
X35150285Y-17286738D01*
X35581859Y-17575107D01*
X36061399Y-17773739D01*
X36570475Y-17875000D01*
X37089525Y-17875000D01*
X37598601Y-17773739D01*
X38078141Y-17575107D01*
X38509715Y-17286738D01*
X38610001Y-17186452D01*
X38610001Y-22822668D01*
X38606324Y-22860000D01*
X38620998Y-23008985D01*
X38664454Y-23152246D01*
X38735026Y-23284276D01*
X38802362Y-23366324D01*
X38830000Y-23400001D01*
X38858998Y-23423799D01*
X41748221Y-26313023D01*
X41589484Y-26328657D01*
X41281285Y-26422148D01*
X40997248Y-26573969D01*
X40748286Y-26778286D01*
X40543969Y-27027248D01*
X40392148Y-27311285D01*
X40298657Y-27619484D01*
X40267089Y-27940000D01*
X40298657Y-28260516D01*
X40392148Y-28568715D01*
X40543969Y-28852752D01*
X40748286Y-29101714D01*
X40997248Y-29306031D01*
X41281285Y-29457852D01*
X41589484Y-29551343D01*
X41829678Y-29575000D01*
X41990322Y-29575000D01*
X42230516Y-29551343D01*
X42538715Y-29457852D01*
X42822752Y-29306031D01*
X43071714Y-29101714D01*
X43276031Y-28852752D01*
X43427852Y-28568715D01*
X43521343Y-28260516D01*
X43536977Y-28101779D01*
X47500000Y-32064802D01*
X47500001Y-33996852D01*
X47438169Y-34022463D01*
X47154002Y-34212337D01*
X46912337Y-34454002D01*
X46722463Y-34738169D01*
X46591675Y-35053919D01*
X46525000Y-35389117D01*
X46525000Y-35730883D01*
X46591675Y-36066081D01*
X46722463Y-36381831D01*
X46912337Y-36665998D01*
X47154002Y-36907663D01*
X47438169Y-37097537D01*
X47500001Y-37123149D01*
X47500001Y-38693548D01*
X47399715Y-38593262D01*
X46968141Y-38304893D01*
X46488601Y-38106261D01*
X45979525Y-38005000D01*
X45460475Y-38005000D01*
X44951399Y-38106261D01*
X44471859Y-38304893D01*
X44040285Y-38593262D01*
X43673262Y-38960285D01*
X43384893Y-39391859D01*
X43186261Y-39871399D01*
X43085000Y-40380475D01*
X43085000Y-40899525D01*
X43186261Y-41408601D01*
X43384893Y-41888141D01*
X43673262Y-42319715D01*
X44040285Y-42686738D01*
X44471859Y-42975107D01*
X44951399Y-43173739D01*
X45460475Y-43275000D01*
X45979525Y-43275000D01*
X46488601Y-43173739D01*
X46968141Y-42975107D01*
X47399715Y-42686738D01*
X47500001Y-42586452D01*
X47500000Y-51755198D01*
X39937912Y-59317286D01*
X39876081Y-59291675D01*
X39540883Y-59225000D01*
X39199117Y-59225000D01*
X38863919Y-59291675D01*
X38548169Y-59422463D01*
X38264002Y-59612337D01*
X38022337Y-59854002D01*
X37832463Y-60138169D01*
X37726312Y-60394441D01*
X37655246Y-60356455D01*
X37511985Y-60312998D01*
X37400332Y-60302001D01*
X37400321Y-60302001D01*
X37362999Y-60298325D01*
X37325677Y-60302001D01*
X34706803Y-60302001D01*
X31184999Y-56780198D01*
X31184999Y-52340000D01*
X39001928Y-52340000D01*
X39001928Y-54340000D01*
X39014188Y-54464482D01*
X39050498Y-54584180D01*
X39109463Y-54694494D01*
X39188815Y-54791185D01*
X39285506Y-54870537D01*
X39395820Y-54929502D01*
X39515518Y-54965812D01*
X39640000Y-54978072D01*
X41640000Y-54978072D01*
X41764482Y-54965812D01*
X41884180Y-54929502D01*
X41994494Y-54870537D01*
X42091185Y-54791185D01*
X42170537Y-54694494D01*
X42229502Y-54584180D01*
X42265812Y-54464482D01*
X42278072Y-54340000D01*
X42278072Y-53994326D01*
X42314276Y-53974974D01*
X42430001Y-53880001D01*
X42439016Y-53869016D01*
X42450001Y-53860001D01*
X42544974Y-53744276D01*
X42615546Y-53612247D01*
X42659003Y-53468986D01*
X42670000Y-53357333D01*
X42670000Y-53357323D01*
X42673676Y-53320001D01*
X42670000Y-53282678D01*
X42670000Y-39663148D01*
X42731831Y-39637537D01*
X43015998Y-39447663D01*
X43257663Y-39205998D01*
X43447537Y-38921831D01*
X43578325Y-38606081D01*
X43645000Y-38270883D01*
X43645000Y-37929117D01*
X43578325Y-37593919D01*
X43447537Y-37278169D01*
X43257663Y-36994002D01*
X43015998Y-36752337D01*
X42731831Y-36562463D01*
X42416081Y-36431675D01*
X42080883Y-36365000D01*
X41739117Y-36365000D01*
X41403919Y-36431675D01*
X41088169Y-36562463D01*
X40804002Y-36752337D01*
X40562337Y-36994002D01*
X40372463Y-37278169D01*
X40241675Y-37593919D01*
X40175000Y-37929117D01*
X40175000Y-38270883D01*
X40241675Y-38606081D01*
X40372463Y-38921831D01*
X40528261Y-39155000D01*
X40493740Y-39155000D01*
X40206842Y-39212068D01*
X39936589Y-39324010D01*
X39693368Y-39486525D01*
X39486525Y-39693368D01*
X39324010Y-39936589D01*
X39212068Y-40206842D01*
X39155000Y-40493740D01*
X39155000Y-40786260D01*
X39212068Y-41073158D01*
X39324010Y-41343411D01*
X39486525Y-41586632D01*
X39693368Y-41793475D01*
X39936589Y-41955990D01*
X40206842Y-42067932D01*
X40493740Y-42125000D01*
X40786260Y-42125000D01*
X41073158Y-42067932D01*
X41150000Y-42036103D01*
X41150001Y-51701928D01*
X39640000Y-51701928D01*
X39515518Y-51714188D01*
X39395820Y-51750498D01*
X39285506Y-51809463D01*
X39188815Y-51888815D01*
X39109463Y-51985506D01*
X39050498Y-52095820D01*
X39014188Y-52215518D01*
X39001928Y-52340000D01*
X31184999Y-52340000D01*
X31184999Y-34272324D01*
X31188675Y-34234999D01*
X31184999Y-34197674D01*
X31184999Y-34197666D01*
X31174002Y-34086013D01*
X31130545Y-33942752D01*
X31059973Y-33810723D01*
X30965000Y-33694998D01*
X30936003Y-33671201D01*
X24204802Y-26940000D01*
X30111928Y-26940000D01*
X30111928Y-28940000D01*
X30124188Y-29064482D01*
X30160498Y-29184180D01*
X30219463Y-29294494D01*
X30298815Y-29391185D01*
X30395506Y-29470537D01*
X30505820Y-29529502D01*
X30625518Y-29565812D01*
X30750000Y-29578072D01*
X32750000Y-29578072D01*
X32874482Y-29565812D01*
X32994180Y-29529502D01*
X33104494Y-29470537D01*
X33201185Y-29391185D01*
X33280537Y-29294494D01*
X33339502Y-29184180D01*
X33375812Y-29064482D01*
X33388072Y-28940000D01*
X33388072Y-28594326D01*
X33424276Y-28574974D01*
X33540001Y-28480001D01*
X33549016Y-28469016D01*
X33560001Y-28460001D01*
X33654974Y-28344276D01*
X33725546Y-28212247D01*
X33769003Y-28068986D01*
X33780000Y-27957333D01*
X33780000Y-27957323D01*
X33783676Y-27920001D01*
X33780000Y-27882678D01*
X33780000Y-14263148D01*
X33841831Y-14237537D01*
X34125998Y-14047663D01*
X34367663Y-13805998D01*
X34557537Y-13521831D01*
X34688325Y-13206081D01*
X34755000Y-12870883D01*
X34755000Y-12529117D01*
X34688325Y-12193919D01*
X34557537Y-11878169D01*
X34367663Y-11594002D01*
X34125998Y-11352337D01*
X33841831Y-11162463D01*
X33526081Y-11031675D01*
X33190883Y-10965000D01*
X32849117Y-10965000D01*
X32513919Y-11031675D01*
X32198169Y-11162463D01*
X31914002Y-11352337D01*
X31672337Y-11594002D01*
X31482463Y-11878169D01*
X31351675Y-12193919D01*
X31285000Y-12529117D01*
X31285000Y-12870883D01*
X31351675Y-13206081D01*
X31482463Y-13521831D01*
X31638261Y-13755000D01*
X31603740Y-13755000D01*
X31316842Y-13812068D01*
X31046589Y-13924010D01*
X30803368Y-14086525D01*
X30596525Y-14293368D01*
X30434010Y-14536589D01*
X30322068Y-14806842D01*
X30265000Y-15093740D01*
X30265000Y-15386260D01*
X30322068Y-15673158D01*
X30434010Y-15943411D01*
X30596525Y-16186632D01*
X30803368Y-16393475D01*
X31046589Y-16555990D01*
X31316842Y-16667932D01*
X31603740Y-16725000D01*
X31896260Y-16725000D01*
X32183158Y-16667932D01*
X32260000Y-16636103D01*
X32260001Y-26301928D01*
X30750000Y-26301928D01*
X30625518Y-26314188D01*
X30505820Y-26350498D01*
X30395506Y-26409463D01*
X30298815Y-26488815D01*
X30219463Y-26585506D01*
X30160498Y-26695820D01*
X30124188Y-26815518D01*
X30111928Y-26940000D01*
X24204802Y-26940000D01*
X21783576Y-24518775D01*
X21831300Y-24278850D01*
X21831300Y-23981150D01*
X21773222Y-23689170D01*
X21659297Y-23414131D01*
X21493904Y-23166602D01*
X21283398Y-22956096D01*
X21139580Y-22860000D01*
X21283398Y-22763904D01*
X21493904Y-22553398D01*
X21659297Y-22305869D01*
X21773222Y-22030830D01*
X21831300Y-21738850D01*
X21831300Y-21441150D01*
X21773222Y-21149170D01*
X21659297Y-20874131D01*
X21493904Y-20626602D01*
X21283398Y-20416096D01*
X21139580Y-20320000D01*
X21283398Y-20223904D01*
X21493904Y-20013398D01*
X21659297Y-19765869D01*
X21773222Y-19490830D01*
X21831300Y-19198850D01*
X21831300Y-18901150D01*
X21773222Y-18609170D01*
X21659297Y-18334131D01*
X21493904Y-18086602D01*
X21283398Y-17876096D01*
X21139580Y-17780000D01*
X21283398Y-17683904D01*
X21493904Y-17473398D01*
X21659297Y-17225869D01*
X21773222Y-16950830D01*
X21831300Y-16658850D01*
X21831300Y-16361150D01*
X21773222Y-16069170D01*
X21659297Y-15794131D01*
X21493904Y-15546602D01*
X21283398Y-15336096D01*
X21035869Y-15170703D01*
X20760830Y-15056778D01*
X20468850Y-14998700D01*
X20171150Y-14998700D01*
X19879170Y-15056778D01*
X19604131Y-15170703D01*
X19356602Y-15336096D01*
X19146096Y-15546602D01*
X18980703Y-15794131D01*
X18866778Y-16069170D01*
X18808700Y-16361150D01*
X18808700Y-16658850D01*
X18866778Y-16950830D01*
X18980703Y-17225869D01*
X19146096Y-17473398D01*
X19356602Y-17683904D01*
X19500420Y-17780000D01*
X19356602Y-17876096D01*
X19146096Y-18086602D01*
X18980703Y-18334131D01*
X18866778Y-18609170D01*
X18808700Y-18901150D01*
X18808700Y-19198850D01*
X18866778Y-19490830D01*
X18980703Y-19765869D01*
X19146096Y-20013398D01*
X19356602Y-20223904D01*
X19500420Y-20320000D01*
X19356602Y-20416096D01*
X19146096Y-20626602D01*
X18980703Y-20874131D01*
X18866778Y-21149170D01*
X18808700Y-21441150D01*
X18808700Y-21738850D01*
X18856424Y-21978775D01*
X18607702Y-22227497D01*
X18578698Y-22251300D01*
X18541849Y-22296201D01*
X18483725Y-22367025D01*
X18435331Y-22457563D01*
X18413153Y-22499055D01*
X18369696Y-22642316D01*
X18358699Y-22753969D01*
X18358699Y-22753979D01*
X18355023Y-22791301D01*
X18358699Y-22828624D01*
X18358700Y-24669293D01*
X18355023Y-24706625D01*
X18358700Y-24743958D01*
X18368738Y-24845869D01*
X18369697Y-24855610D01*
X18413153Y-24998871D01*
X18483725Y-25130901D01*
X18525920Y-25182315D01*
X18578699Y-25246626D01*
X18607697Y-25270424D01*
X19105152Y-25767880D01*
X18980703Y-25954131D01*
X18866778Y-26229170D01*
X18808700Y-26521150D01*
X18808700Y-26818850D01*
X18866778Y-27110830D01*
X18980703Y-27385869D01*
X19146096Y-27633398D01*
X19356602Y-27843904D01*
X19500420Y-27940000D01*
X19356602Y-28036096D01*
X19146096Y-28246602D01*
X19010190Y-28450000D01*
X17817322Y-28450000D01*
X17779999Y-28446324D01*
X17742677Y-28450000D01*
X17742667Y-28450000D01*
X17631014Y-28460997D01*
X17489912Y-28503799D01*
X17487753Y-28504454D01*
X17355723Y-28575026D01*
X17294165Y-28625546D01*
X17239999Y-28669999D01*
X17216201Y-28698997D01*
X13642002Y-32273197D01*
X13612998Y-32297000D01*
X13558761Y-32363088D01*
X13518025Y-32412725D01*
X13464065Y-32513677D01*
X13447453Y-32544755D01*
X13403996Y-32688016D01*
X13392999Y-32799669D01*
X13392999Y-32799679D01*
X13389323Y-32837001D01*
X13392999Y-32874323D01*
X13393000Y-44595657D01*
X13392999Y-44595667D01*
X13393000Y-47135667D01*
X13389323Y-47172999D01*
X13403997Y-47321984D01*
X13447453Y-47465245D01*
X13518025Y-47597275D01*
X13589200Y-47684001D01*
X13612999Y-47713000D01*
X13641997Y-47736798D01*
X19285000Y-53379803D01*
X19285000Y-53441939D01*
X19324774Y-53641898D01*
X19402795Y-53830256D01*
X19516063Y-53999774D01*
X19660226Y-54143937D01*
X19829744Y-54257205D01*
X20018102Y-54335226D01*
X20132265Y-54357934D01*
X18550209Y-55939990D01*
X17011202Y-55939990D01*
X15722335Y-54651124D01*
X15843023Y-54607636D01*
X15958980Y-54545656D01*
X16025960Y-54305565D01*
X15240000Y-53519605D01*
X15225858Y-53533748D01*
X15046253Y-53354143D01*
X15060395Y-53340000D01*
X15419605Y-53340000D01*
X16205565Y-54125960D01*
X16445656Y-54058980D01*
X16562756Y-53809952D01*
X16629023Y-53542865D01*
X16641910Y-53267983D01*
X16600922Y-52995867D01*
X16507636Y-52736977D01*
X16445656Y-52621020D01*
X16205565Y-52554040D01*
X15419605Y-53340000D01*
X15060395Y-53340000D01*
X14274435Y-52554040D01*
X14034344Y-52621020D01*
X13924925Y-52853714D01*
X13445646Y-52374435D01*
X14454040Y-52374435D01*
X15240000Y-53160395D01*
X16025960Y-52374435D01*
X15958980Y-52134344D01*
X15709952Y-52017244D01*
X15442865Y-51950977D01*
X15167983Y-51938090D01*
X14895867Y-51979078D01*
X14636977Y-52072364D01*
X14521020Y-52134344D01*
X14454040Y-52374435D01*
X13445646Y-52374435D01*
X12813213Y-51742002D01*
X12789410Y-51712998D01*
X12673685Y-51618025D01*
X12541656Y-51547453D01*
X12398395Y-51503996D01*
X12286742Y-51492999D01*
X12286731Y-51492999D01*
X12249409Y-51489323D01*
X12212087Y-51492999D01*
X9675561Y-51492999D01*
X9638238Y-51489323D01*
X9600915Y-51492999D01*
X9600906Y-51492999D01*
X9489253Y-51503996D01*
X9345992Y-51547453D01*
X9213962Y-51618025D01*
X9130322Y-51686667D01*
X9098238Y-51712998D01*
X9074439Y-51741997D01*
X8561997Y-52254440D01*
X8532999Y-52278238D01*
X8509201Y-52307236D01*
X8509200Y-52307237D01*
X8438025Y-52393963D01*
X8367453Y-52525993D01*
X8340620Y-52614454D01*
X8323997Y-52669253D01*
X8322443Y-52685027D01*
X8309323Y-52818239D01*
X660000Y-52818239D01*
X660000Y-26521150D01*
X3568700Y-26521150D01*
X3568700Y-26818850D01*
X3626778Y-27110830D01*
X3740703Y-27385869D01*
X3906096Y-27633398D01*
X4116602Y-27843904D01*
X4260420Y-27940000D01*
X4116602Y-28036096D01*
X3906096Y-28246602D01*
X3740703Y-28494131D01*
X3626778Y-28769170D01*
X3568700Y-29061150D01*
X3568700Y-29358850D01*
X3626778Y-29650830D01*
X3740703Y-29925869D01*
X3906096Y-30173398D01*
X4116602Y-30383904D01*
X4260420Y-30480000D01*
X4116602Y-30576096D01*
X3906096Y-30786602D01*
X3740703Y-31034131D01*
X3626778Y-31309170D01*
X3568700Y-31601150D01*
X3568700Y-31898850D01*
X3626778Y-32190830D01*
X3740703Y-32465869D01*
X3906096Y-32713398D01*
X4116602Y-32923904D01*
X4260420Y-33020000D01*
X4116602Y-33116096D01*
X3906096Y-33326602D01*
X3740703Y-33574131D01*
X3626778Y-33849170D01*
X3568700Y-34141150D01*
X3568700Y-34438850D01*
X3626778Y-34730830D01*
X3740703Y-35005869D01*
X3906096Y-35253398D01*
X4116602Y-35463904D01*
X4260420Y-35560000D01*
X4116602Y-35656096D01*
X3906096Y-35866602D01*
X3740703Y-36114131D01*
X3626778Y-36389170D01*
X3568700Y-36681150D01*
X3568700Y-36978850D01*
X3626778Y-37270830D01*
X3740703Y-37545869D01*
X3906096Y-37793398D01*
X4116602Y-38003904D01*
X4260420Y-38100000D01*
X4116602Y-38196096D01*
X3906096Y-38406602D01*
X3740703Y-38654131D01*
X3626778Y-38929170D01*
X3568700Y-39221150D01*
X3568700Y-39518850D01*
X3626778Y-39810830D01*
X3740703Y-40085869D01*
X3906096Y-40333398D01*
X4116602Y-40543904D01*
X4260420Y-40640000D01*
X4116602Y-40736096D01*
X3906096Y-40946602D01*
X3740703Y-41194131D01*
X3626778Y-41469170D01*
X3568700Y-41761150D01*
X3568700Y-42058850D01*
X3626778Y-42350830D01*
X3740703Y-42625869D01*
X3906096Y-42873398D01*
X4116602Y-43083904D01*
X4260420Y-43180000D01*
X4116602Y-43276096D01*
X3906096Y-43486602D01*
X3740703Y-43734131D01*
X3626778Y-44009170D01*
X3568700Y-44301150D01*
X3568700Y-44598850D01*
X3626778Y-44890830D01*
X3740703Y-45165869D01*
X3906096Y-45413398D01*
X4116602Y-45623904D01*
X4364131Y-45789297D01*
X4639170Y-45903222D01*
X4931150Y-45961300D01*
X5228850Y-45961300D01*
X5520830Y-45903222D01*
X5795869Y-45789297D01*
X6043398Y-45623904D01*
X6253904Y-45413398D01*
X6419297Y-45165869D01*
X6533222Y-44890830D01*
X6591300Y-44598850D01*
X6591300Y-44301150D01*
X6533222Y-44009170D01*
X6419297Y-43734131D01*
X6253904Y-43486602D01*
X6043398Y-43276096D01*
X5899580Y-43180000D01*
X6043398Y-43083904D01*
X6253904Y-42873398D01*
X6419297Y-42625869D01*
X6533222Y-42350830D01*
X6591300Y-42058850D01*
X6591300Y-41761150D01*
X6533222Y-41469170D01*
X6419297Y-41194131D01*
X6253904Y-40946602D01*
X6043398Y-40736096D01*
X5899580Y-40640000D01*
X6043398Y-40543904D01*
X6253904Y-40333398D01*
X6419297Y-40085869D01*
X6533222Y-39810830D01*
X6591300Y-39518850D01*
X6591300Y-39221150D01*
X6533222Y-38929170D01*
X6419297Y-38654131D01*
X6253904Y-38406602D01*
X6043398Y-38196096D01*
X5899580Y-38100000D01*
X6043398Y-38003904D01*
X6253904Y-37793398D01*
X6419297Y-37545869D01*
X6533222Y-37270830D01*
X6591300Y-36978850D01*
X6591300Y-36681150D01*
X6533222Y-36389170D01*
X6419297Y-36114131D01*
X6253904Y-35866602D01*
X6043398Y-35656096D01*
X5899580Y-35560000D01*
X6043398Y-35463904D01*
X6253904Y-35253398D01*
X6419297Y-35005869D01*
X6533222Y-34730830D01*
X6591300Y-34438850D01*
X6591300Y-34141150D01*
X6533222Y-33849170D01*
X6419297Y-33574131D01*
X6253904Y-33326602D01*
X6043398Y-33116096D01*
X5899580Y-33020000D01*
X6043398Y-32923904D01*
X6253904Y-32713398D01*
X6419297Y-32465869D01*
X6533222Y-32190830D01*
X6591300Y-31898850D01*
X6591300Y-31601150D01*
X6533222Y-31309170D01*
X6419297Y-31034131D01*
X6253904Y-30786602D01*
X6043398Y-30576096D01*
X5899580Y-30480000D01*
X6043398Y-30383904D01*
X6253904Y-30173398D01*
X6419297Y-29925869D01*
X6533222Y-29650830D01*
X6591300Y-29358850D01*
X6591300Y-29061150D01*
X6533222Y-28769170D01*
X6419297Y-28494131D01*
X6253904Y-28246602D01*
X6043398Y-28036096D01*
X5899580Y-27940000D01*
X6043398Y-27843904D01*
X6253904Y-27633398D01*
X6419297Y-27385869D01*
X6533222Y-27110830D01*
X6591300Y-26818850D01*
X6591300Y-26521150D01*
X6533222Y-26229170D01*
X6419297Y-25954131D01*
X6253904Y-25706602D01*
X6043398Y-25496096D01*
X5880191Y-25387045D01*
X5947563Y-25177169D01*
X5080000Y-24309605D01*
X4212437Y-25177169D01*
X4279809Y-25387045D01*
X4116602Y-25496096D01*
X3906096Y-25706602D01*
X3740703Y-25954131D01*
X3626778Y-26229170D01*
X3568700Y-26521150D01*
X660000Y-26521150D01*
X660000Y-24197491D01*
X3562887Y-24197491D01*
X3605204Y-24492167D01*
X3704198Y-24772927D01*
X3781071Y-24916746D01*
X4032831Y-24997563D01*
X4900395Y-24130000D01*
X5259605Y-24130000D01*
X6127169Y-24997563D01*
X6378929Y-24916746D01*
X6507457Y-24648221D01*
X6581129Y-24359781D01*
X6597113Y-24062509D01*
X6554796Y-23767833D01*
X6455802Y-23487073D01*
X6378929Y-23343254D01*
X6127169Y-23262437D01*
X5259605Y-24130000D01*
X4900395Y-24130000D01*
X4032831Y-23262437D01*
X3781071Y-23343254D01*
X3652543Y-23611779D01*
X3578871Y-23900219D01*
X3562887Y-24197491D01*
X660000Y-24197491D01*
X660000Y-22637169D01*
X4212437Y-22637169D01*
X4283968Y-22860000D01*
X4212437Y-23082831D01*
X5080000Y-23950395D01*
X5947563Y-23082831D01*
X5876032Y-22860000D01*
X5947563Y-22637169D01*
X5080000Y-21769605D01*
X4212437Y-22637169D01*
X660000Y-22637169D01*
X660000Y-21657491D01*
X3562887Y-21657491D01*
X3605204Y-21952167D01*
X3704198Y-22232927D01*
X3781071Y-22376746D01*
X4032831Y-22457563D01*
X4900395Y-21590000D01*
X5259605Y-21590000D01*
X6127169Y-22457563D01*
X6378929Y-22376746D01*
X6507457Y-22108221D01*
X6581129Y-21819781D01*
X6597113Y-21522509D01*
X6554796Y-21227833D01*
X6455802Y-20947073D01*
X6378929Y-20803254D01*
X6127169Y-20722437D01*
X5259605Y-21590000D01*
X4900395Y-21590000D01*
X4032831Y-20722437D01*
X3781071Y-20803254D01*
X3652543Y-21071779D01*
X3578871Y-21360219D01*
X3562887Y-21657491D01*
X660000Y-21657491D01*
X660000Y-15633700D01*
X3565628Y-15633700D01*
X3565628Y-17386300D01*
X3577888Y-17510782D01*
X3614198Y-17630480D01*
X3673163Y-17740794D01*
X3752515Y-17837485D01*
X3849206Y-17916837D01*
X3959520Y-17975802D01*
X4003542Y-17989156D01*
X3906096Y-18086602D01*
X3740703Y-18334131D01*
X3626778Y-18609170D01*
X3568700Y-18901150D01*
X3568700Y-19198850D01*
X3626778Y-19490830D01*
X3740703Y-19765869D01*
X3906096Y-20013398D01*
X4116602Y-20223904D01*
X4279809Y-20332955D01*
X4212437Y-20542831D01*
X5080000Y-21410395D01*
X5947563Y-20542831D01*
X5880191Y-20332955D01*
X6043398Y-20223904D01*
X6253904Y-20013398D01*
X6419297Y-19765869D01*
X6533222Y-19490830D01*
X6591300Y-19198850D01*
X6591300Y-18901150D01*
X6533222Y-18609170D01*
X6419297Y-18334131D01*
X6253904Y-18086602D01*
X6156458Y-17989156D01*
X6200480Y-17975802D01*
X6310794Y-17916837D01*
X6407485Y-17837485D01*
X6486837Y-17740794D01*
X6545802Y-17630480D01*
X6582112Y-17510782D01*
X6594372Y-17386300D01*
X6594372Y-15633700D01*
X6582112Y-15509218D01*
X6545802Y-15389520D01*
X6486837Y-15279206D01*
X6407485Y-15182515D01*
X6310794Y-15103163D01*
X6200480Y-15044198D01*
X6080782Y-15007888D01*
X5956300Y-14995628D01*
X4203700Y-14995628D01*
X4079218Y-15007888D01*
X3959520Y-15044198D01*
X3849206Y-15103163D01*
X3752515Y-15182515D01*
X3673163Y-15279206D01*
X3614198Y-15389520D01*
X3577888Y-15509218D01*
X3565628Y-15633700D01*
X660000Y-15633700D01*
X660000Y-660000D01*
X99670000Y-660000D01*
X99670001Y-86970000D01*
X99670001Y-86970000D01*
G37*
X99670001Y-86970000D02*
X660000Y-86970000D01*
X660000Y-52818239D01*
X8309323Y-52818239D01*
X8313000Y-52855571D01*
X8312999Y-53824438D01*
X8309323Y-53861761D01*
X8312999Y-53899083D01*
X8312999Y-53899093D01*
X8323996Y-54010746D01*
X8352186Y-54103676D01*
X8367453Y-54154007D01*
X8438025Y-54286037D01*
X8463436Y-54317000D01*
X8532998Y-54401762D01*
X8562002Y-54425565D01*
X12767840Y-58631404D01*
X12791639Y-58660403D01*
X12907364Y-58755376D01*
X13039393Y-58825948D01*
X13182654Y-58869405D01*
X13294307Y-58880402D01*
X13294317Y-58880402D01*
X13331640Y-58884078D01*
X13368963Y-58880402D01*
X19705601Y-58880402D01*
X23411199Y-62586001D01*
X23434998Y-62615000D01*
X23550723Y-62709973D01*
X23682752Y-62780545D01*
X23826013Y-62824002D01*
X23937666Y-62834999D01*
X23937674Y-62834999D01*
X23974999Y-62838675D01*
X24012324Y-62834999D01*
X31417502Y-62834999D01*
X31351675Y-62993919D01*
X31285000Y-63329117D01*
X31285000Y-63670883D01*
X31351675Y-64006081D01*
X31482463Y-64321831D01*
X31638261Y-64555000D01*
X31603740Y-64555000D01*
X31316842Y-64612068D01*
X31046589Y-64724010D01*
X30803368Y-64886525D01*
X30596525Y-65093368D01*
X30434010Y-65336589D01*
X30322068Y-65606842D01*
X30265000Y-65893740D01*
X30265000Y-66186260D01*
X30322068Y-66473158D01*
X30434010Y-66743411D01*
X30596525Y-66986632D01*
X30803368Y-67193475D01*
X31046589Y-67355990D01*
X31316842Y-67467932D01*
X31603740Y-67525000D01*
X31896260Y-67525000D01*
X32183158Y-67467932D01*
X32260000Y-67436103D01*
X32260001Y-77101928D01*
X30750000Y-77101928D01*
X30625518Y-77114188D01*
X30505820Y-77150498D01*
X30395506Y-77209463D01*
X30298815Y-77288815D01*
X30219463Y-77385506D01*
X30160498Y-77495820D01*
X30124188Y-77615518D01*
X30111928Y-77740000D01*
X30111928Y-79740000D01*
X30124188Y-79864482D01*
X30160498Y-79984180D01*
X30219463Y-80094494D01*
X30298815Y-80191185D01*
X30395506Y-80270537D01*
X30505820Y-80329502D01*
X30625518Y-80365812D01*
X30750000Y-80378072D01*
X32750000Y-80378072D01*
X32874482Y-80365812D01*
X32994180Y-80329502D01*
X33104494Y-80270537D01*
X33201185Y-80191185D01*
X33280537Y-80094494D01*
X33339502Y-79984180D01*
X33375812Y-79864482D01*
X33388072Y-79740000D01*
X33388072Y-79394326D01*
X33424276Y-79374974D01*
X33540001Y-79280001D01*
X33549016Y-79269016D01*
X33560001Y-79260001D01*
X33654974Y-79144276D01*
X33725546Y-79012247D01*
X33769003Y-78868986D01*
X33780000Y-78757333D01*
X33780000Y-78757323D01*
X33781706Y-78740000D01*
X40267089Y-78740000D01*
X40298657Y-79060516D01*
X40392148Y-79368715D01*
X40543969Y-79652752D01*
X40748286Y-79901714D01*
X40997248Y-80106031D01*
X41281285Y-80257852D01*
X41589484Y-80351343D01*
X41829678Y-80375000D01*
X41990322Y-80375000D01*
X42230516Y-80351343D01*
X42396262Y-80301065D01*
X42671206Y-80576009D01*
X42695000Y-80605002D01*
X42723993Y-80628796D01*
X42723997Y-80628800D01*
X42794686Y-80686812D01*
X42810725Y-80699975D01*
X42942754Y-80770547D01*
X43086015Y-80814004D01*
X43197668Y-80825001D01*
X43197677Y-80825001D01*
X43235000Y-80828677D01*
X43272323Y-80825001D01*
X76107677Y-80825001D01*
X76144999Y-80828677D01*
X76182321Y-80825001D01*
X76182332Y-80825001D01*
X76293985Y-80814004D01*
X76437246Y-80770547D01*
X76569275Y-80699975D01*
X76685000Y-80605002D01*
X76708803Y-80575998D01*
X76983737Y-80301064D01*
X77149484Y-80351343D01*
X77389678Y-80375000D01*
X77550322Y-80375000D01*
X77790516Y-80351343D01*
X77956263Y-80301064D01*
X80716201Y-83061003D01*
X80739999Y-83090001D01*
X80855724Y-83184974D01*
X80987753Y-83255546D01*
X81131014Y-83299003D01*
X81242667Y-83310000D01*
X81242675Y-83310000D01*
X81280000Y-83313676D01*
X81317325Y-83310000D01*
X88862678Y-83310000D01*
X88900000Y-83313676D01*
X88937322Y-83310000D01*
X88937333Y-83310000D01*
X89048986Y-83299003D01*
X89192247Y-83255546D01*
X89324276Y-83184974D01*
X89440001Y-83090001D01*
X89463804Y-83060997D01*
X92223737Y-80301064D01*
X92389484Y-80351343D01*
X92629678Y-80375000D01*
X92790322Y-80375000D01*
X93030516Y-80351343D01*
X93338715Y-80257852D01*
X93622752Y-80106031D01*
X93871714Y-79901714D01*
X94076031Y-79652752D01*
X94227852Y-79368715D01*
X94321343Y-79060516D01*
X94352911Y-78740000D01*
X94321343Y-78419484D01*
X94227852Y-78111285D01*
X94076031Y-77827248D01*
X93871714Y-77578286D01*
X93622752Y-77373969D01*
X93338715Y-77222148D01*
X93030516Y-77128657D01*
X92790322Y-77105000D01*
X92629678Y-77105000D01*
X92389484Y-77128657D01*
X92081285Y-77222148D01*
X91797248Y-77373969D01*
X91548286Y-77578286D01*
X91343969Y-77827248D01*
X91192148Y-78111285D01*
X91098657Y-78419484D01*
X91067089Y-78740000D01*
X91098657Y-79060516D01*
X91148936Y-79226263D01*
X88585199Y-81790000D01*
X81594802Y-81790000D01*
X79031064Y-79226263D01*
X79081343Y-79060516D01*
X79112911Y-78740000D01*
X79081343Y-78419484D01*
X78987852Y-78111285D01*
X78836031Y-77827248D01*
X78631714Y-77578286D01*
X78382752Y-77373969D01*
X78098715Y-77222148D01*
X77790516Y-77128657D01*
X77550322Y-77105000D01*
X77389678Y-77105000D01*
X77149484Y-77128657D01*
X76841285Y-77222148D01*
X76557248Y-77373969D01*
X76308286Y-77578286D01*
X76103969Y-77827248D01*
X75952148Y-78111285D01*
X75858657Y-78419484D01*
X75827089Y-78740000D01*
X75858657Y-79060516D01*
X75908936Y-79226263D01*
X75830198Y-79305001D01*
X68948072Y-79305001D01*
X68948072Y-77740000D01*
X68935812Y-77615518D01*
X68899502Y-77495820D01*
X68840537Y-77385506D01*
X68761185Y-77288815D01*
X68664494Y-77209463D01*
X68554180Y-77150498D01*
X68434482Y-77114188D01*
X68310000Y-77101928D01*
X66310000Y-77101928D01*
X66185518Y-77114188D01*
X66065820Y-77150498D01*
X65955506Y-77209463D01*
X65858815Y-77288815D01*
X65779463Y-77385506D01*
X65720498Y-77495820D01*
X65684188Y-77615518D01*
X65671928Y-77740000D01*
X65671928Y-77980000D01*
X63075238Y-77980000D01*
X63119000Y-77759992D01*
X63119000Y-77484808D01*
X63065314Y-77214910D01*
X62960005Y-76960673D01*
X62807120Y-76731865D01*
X62612535Y-76537280D01*
X62383727Y-76384395D01*
X62129490Y-76279086D01*
X61859592Y-76225400D01*
X61584408Y-76225400D01*
X61314510Y-76279086D01*
X61060273Y-76384395D01*
X60831465Y-76537280D01*
X60636880Y-76731865D01*
X60483995Y-76960673D01*
X60378686Y-77214910D01*
X60325000Y-77484808D01*
X60325000Y-77759992D01*
X60368762Y-77980000D01*
X56550402Y-77980000D01*
X56484372Y-77913970D01*
X56515000Y-77759992D01*
X56515000Y-77484808D01*
X56461314Y-77214910D01*
X56356005Y-76960673D01*
X56203120Y-76731865D01*
X56008535Y-76537280D01*
X55779727Y-76384395D01*
X55525490Y-76279086D01*
X55255592Y-76225400D01*
X54980408Y-76225400D01*
X54710510Y-76279086D01*
X54456273Y-76384395D01*
X54227465Y-76537280D01*
X54032880Y-76731865D01*
X53879995Y-76960673D01*
X53774686Y-77214910D01*
X53721000Y-77484808D01*
X53721000Y-77759992D01*
X53774686Y-78029890D01*
X53879995Y-78284127D01*
X54032880Y-78512935D01*
X54227465Y-78707520D01*
X54456273Y-78860405D01*
X54710510Y-78965714D01*
X54980408Y-79019400D01*
X55255592Y-79019400D01*
X55409570Y-78988772D01*
X55671800Y-79251002D01*
X55695599Y-79280001D01*
X55724597Y-79303799D01*
X55726062Y-79305001D01*
X43549804Y-79305001D01*
X43471065Y-79226262D01*
X43521343Y-79060516D01*
X43552911Y-78740000D01*
X43521343Y-78419484D01*
X43427852Y-78111285D01*
X43276031Y-77827248D01*
X43071714Y-77578286D01*
X42822752Y-77373969D01*
X42538715Y-77222148D01*
X42230516Y-77128657D01*
X41990322Y-77105000D01*
X41829678Y-77105000D01*
X41589484Y-77128657D01*
X41281285Y-77222148D01*
X40997248Y-77373969D01*
X40748286Y-77578286D01*
X40543969Y-77827248D01*
X40392148Y-78111285D01*
X40298657Y-78419484D01*
X40267089Y-78740000D01*
X33781706Y-78740000D01*
X33783676Y-78720001D01*
X33780000Y-78682678D01*
X33780000Y-73014408D01*
X53721000Y-73014408D01*
X53721000Y-73289592D01*
X53774686Y-73559490D01*
X53879995Y-73813727D01*
X54032880Y-74042535D01*
X54227465Y-74237120D01*
X54456273Y-74390005D01*
X54710510Y-74495314D01*
X54980408Y-74549000D01*
X55255592Y-74549000D01*
X55525490Y-74495314D01*
X55779727Y-74390005D01*
X56008535Y-74237120D01*
X56203120Y-74042535D01*
X56356005Y-73813727D01*
X56461314Y-73559490D01*
X56515000Y-73289592D01*
X56515000Y-73014408D01*
X60325000Y-73014408D01*
X60325000Y-73289592D01*
X60378686Y-73559490D01*
X60483995Y-73813727D01*
X60636880Y-74042535D01*
X60831465Y-74237120D01*
X61060273Y-74390005D01*
X61314510Y-74495314D01*
X61584408Y-74549000D01*
X61859592Y-74549000D01*
X62129490Y-74495314D01*
X62383727Y-74390005D01*
X62612535Y-74237120D01*
X62807120Y-74042535D01*
X62960005Y-73813727D01*
X63065314Y-73559490D01*
X63119000Y-73289592D01*
X63119000Y-73014408D01*
X63065314Y-72744510D01*
X62960005Y-72490273D01*
X62807120Y-72261465D01*
X62612535Y-72066880D01*
X62383727Y-71913995D01*
X62129490Y-71808686D01*
X61859592Y-71755000D01*
X61584408Y-71755000D01*
X61314510Y-71808686D01*
X61060273Y-71913995D01*
X60831465Y-72066880D01*
X60636880Y-72261465D01*
X60483995Y-72490273D01*
X60378686Y-72744510D01*
X60325000Y-73014408D01*
X56515000Y-73014408D01*
X56484372Y-72860429D01*
X57955993Y-71388808D01*
X64897000Y-71388808D01*
X64897000Y-71663992D01*
X64950686Y-71933890D01*
X65055995Y-72188127D01*
X65208880Y-72416935D01*
X65403465Y-72611520D01*
X65632273Y-72764405D01*
X65886510Y-72869714D01*
X66156408Y-72923400D01*
X66431592Y-72923400D01*
X66701490Y-72869714D01*
X66955727Y-72764405D01*
X67184535Y-72611520D01*
X67379120Y-72416935D01*
X67532005Y-72188127D01*
X67637314Y-71933890D01*
X67691000Y-71663992D01*
X67691000Y-71388808D01*
X67637314Y-71118910D01*
X67532005Y-70864673D01*
X67379120Y-70635865D01*
X67184535Y-70441280D01*
X66955727Y-70288395D01*
X66701490Y-70183086D01*
X66431592Y-70129400D01*
X66156408Y-70129400D01*
X65886510Y-70183086D01*
X65632273Y-70288395D01*
X65403465Y-70441280D01*
X65208880Y-70635865D01*
X65055995Y-70864673D01*
X64950686Y-71118910D01*
X64897000Y-71388808D01*
X57955993Y-71388808D01*
X64712393Y-64632408D01*
X66929000Y-64632408D01*
X66929000Y-64907592D01*
X66982686Y-65177490D01*
X67087995Y-65431727D01*
X67240880Y-65660535D01*
X67435465Y-65855120D01*
X67664273Y-66008005D01*
X67741515Y-66040000D01*
X67664273Y-66071995D01*
X67435465Y-66224880D01*
X67240880Y-66419465D01*
X67087995Y-66648273D01*
X66982686Y-66902510D01*
X66929000Y-67172408D01*
X66929000Y-67447592D01*
X66982686Y-67717490D01*
X67087995Y-67971727D01*
X67240880Y-68200535D01*
X67435465Y-68395120D01*
X67664273Y-68548005D01*
X67918510Y-68653314D01*
X68188408Y-68707000D01*
X68463592Y-68707000D01*
X68733490Y-68653314D01*
X68987727Y-68548005D01*
X69216535Y-68395120D01*
X69411120Y-68200535D01*
X69564005Y-67971727D01*
X69669314Y-67717490D01*
X69723000Y-67447592D01*
X69723000Y-67172408D01*
X69669314Y-66902510D01*
X69564005Y-66648273D01*
X69411120Y-66419465D01*
X69216535Y-66224880D01*
X68987727Y-66071995D01*
X68910485Y-66040000D01*
X68987727Y-66008005D01*
X69158736Y-65893740D01*
X73445000Y-65893740D01*
X73445000Y-66186260D01*
X73502068Y-66473158D01*
X73614010Y-66743411D01*
X73776525Y-66986632D01*
X73983368Y-67193475D01*
X74226589Y-67355990D01*
X74496842Y-67467932D01*
X74783740Y-67525000D01*
X75076260Y-67525000D01*
X75363158Y-67467932D01*
X75440000Y-67436103D01*
X75440001Y-73602668D01*
X75436324Y-73640000D01*
X75450998Y-73788985D01*
X75494454Y-73932246D01*
X75565026Y-74064276D01*
X75636201Y-74151002D01*
X75660000Y-74180001D01*
X75688998Y-74203799D01*
X80736200Y-79251002D01*
X80759999Y-79280001D01*
X80875724Y-79374974D01*
X80911928Y-79394326D01*
X80911928Y-79740000D01*
X80924188Y-79864482D01*
X80960498Y-79984180D01*
X81019463Y-80094494D01*
X81098815Y-80191185D01*
X81195506Y-80270537D01*
X81305820Y-80329502D01*
X81425518Y-80365812D01*
X81550000Y-80378072D01*
X83550000Y-80378072D01*
X83674482Y-80365812D01*
X83794180Y-80329502D01*
X83904494Y-80270537D01*
X84001185Y-80191185D01*
X84080537Y-80094494D01*
X84139502Y-79984180D01*
X84175812Y-79864482D01*
X84188072Y-79740000D01*
X84188072Y-77740000D01*
X84175812Y-77615518D01*
X84139502Y-77495820D01*
X84080537Y-77385506D01*
X84001185Y-77288815D01*
X83904494Y-77209463D01*
X83794180Y-77150498D01*
X83674482Y-77114188D01*
X83550000Y-77101928D01*
X81550000Y-77101928D01*
X81425518Y-77114188D01*
X81305820Y-77150498D01*
X81195506Y-77209463D01*
X81098815Y-77288815D01*
X81019844Y-77385042D01*
X76960000Y-73325199D01*
X76960000Y-65780475D01*
X77375000Y-65780475D01*
X77375000Y-66299525D01*
X77476261Y-66808601D01*
X77674893Y-67288141D01*
X77963262Y-67719715D01*
X78330285Y-68086738D01*
X78761859Y-68375107D01*
X79241399Y-68573739D01*
X79750475Y-68675000D01*
X80269525Y-68675000D01*
X80778601Y-68573739D01*
X81258141Y-68375107D01*
X81689715Y-68086738D01*
X82056738Y-67719715D01*
X82345107Y-67288141D01*
X82543739Y-66808601D01*
X82645000Y-66299525D01*
X82645000Y-65893740D01*
X83605000Y-65893740D01*
X83605000Y-66186260D01*
X83662068Y-66473158D01*
X83774010Y-66743411D01*
X83936525Y-66986632D01*
X84143368Y-67193475D01*
X84386589Y-67355990D01*
X84656842Y-67467932D01*
X84943740Y-67525000D01*
X85236260Y-67525000D01*
X85523158Y-67467932D01*
X85793411Y-67355990D01*
X86036632Y-67193475D01*
X86243475Y-66986632D01*
X86405990Y-66743411D01*
X86517932Y-66473158D01*
X86575000Y-66186260D01*
X86575000Y-65893740D01*
X86517932Y-65606842D01*
X86405990Y-65336589D01*
X86243475Y-65093368D01*
X86036632Y-64886525D01*
X85793411Y-64724010D01*
X85523158Y-64612068D01*
X85236260Y-64555000D01*
X84943740Y-64555000D01*
X84656842Y-64612068D01*
X84386589Y-64724010D01*
X84143368Y-64886525D01*
X83936525Y-65093368D01*
X83774010Y-65336589D01*
X83662068Y-65606842D01*
X83605000Y-65893740D01*
X82645000Y-65893740D01*
X82645000Y-65780475D01*
X82543739Y-65271399D01*
X82345107Y-64791859D01*
X82056738Y-64360285D01*
X81689715Y-63993262D01*
X81258141Y-63704893D01*
X80778601Y-63506261D01*
X80269525Y-63405000D01*
X79750475Y-63405000D01*
X79241399Y-63506261D01*
X78761859Y-63704893D01*
X78330285Y-63993262D01*
X77963262Y-64360285D01*
X77674893Y-64791859D01*
X77476261Y-65271399D01*
X77375000Y-65780475D01*
X76960000Y-65780475D01*
X76960000Y-65063148D01*
X77021831Y-65037537D01*
X77305998Y-64847663D01*
X77547663Y-64605998D01*
X77737537Y-64321831D01*
X77868325Y-64006081D01*
X77935000Y-63670883D01*
X77935000Y-63329117D01*
X77868325Y-62993919D01*
X77737537Y-62678169D01*
X77547663Y-62394002D01*
X77305998Y-62152337D01*
X77021831Y-61962463D01*
X76706081Y-61831675D01*
X76370883Y-61765000D01*
X76029117Y-61765000D01*
X75693919Y-61831675D01*
X75378169Y-61962463D01*
X75094002Y-62152337D01*
X74852337Y-62394002D01*
X74662463Y-62678169D01*
X74531675Y-62993919D01*
X74465000Y-63329117D01*
X74465000Y-63670883D01*
X74531675Y-64006081D01*
X74662463Y-64321831D01*
X74818261Y-64555000D01*
X74783740Y-64555000D01*
X74496842Y-64612068D01*
X74226589Y-64724010D01*
X73983368Y-64886525D01*
X73776525Y-65093368D01*
X73614010Y-65336589D01*
X73502068Y-65606842D01*
X73445000Y-65893740D01*
X69158736Y-65893740D01*
X69216535Y-65855120D01*
X69411120Y-65660535D01*
X69564005Y-65431727D01*
X69669314Y-65177490D01*
X69723000Y-64907592D01*
X69723000Y-64632408D01*
X69669314Y-64362510D01*
X69564005Y-64108273D01*
X69411120Y-63879465D01*
X69216535Y-63684880D01*
X68987727Y-63531995D01*
X68916057Y-63502308D01*
X68929023Y-63497636D01*
X69044980Y-63435656D01*
X69111960Y-63195565D01*
X68326000Y-62409605D01*
X67540040Y-63195565D01*
X67607020Y-63435656D01*
X67742760Y-63499485D01*
X67664273Y-63531995D01*
X67435465Y-63684880D01*
X67240880Y-63879465D01*
X67087995Y-64108273D01*
X66982686Y-64362510D01*
X66929000Y-64632408D01*
X64712393Y-64632408D01*
X66939628Y-62405174D01*
X66965078Y-62574133D01*
X67058364Y-62833023D01*
X67120344Y-62948980D01*
X67360435Y-63015960D01*
X68146395Y-62230000D01*
X68505605Y-62230000D01*
X69291565Y-63015960D01*
X69531656Y-62948980D01*
X69648756Y-62699952D01*
X69715023Y-62432865D01*
X69727910Y-62157983D01*
X69686922Y-61885867D01*
X69593636Y-61626977D01*
X69531656Y-61511020D01*
X69291565Y-61444040D01*
X68505605Y-62230000D01*
X68146395Y-62230000D01*
X68132253Y-62215858D01*
X68311858Y-62036253D01*
X68326000Y-62050395D01*
X69111960Y-61264435D01*
X69044980Y-61024344D01*
X68795952Y-60907244D01*
X68528865Y-60840977D01*
X68504946Y-60839856D01*
X70361003Y-58983799D01*
X70390001Y-58960001D01*
X70484974Y-58844276D01*
X70555546Y-58712247D01*
X70599003Y-58568986D01*
X70610000Y-58457333D01*
X70610000Y-58457324D01*
X70613676Y-58420001D01*
X70610000Y-58382678D01*
X70610000Y-53340000D01*
X73287089Y-53340000D01*
X73318657Y-53660516D01*
X73412148Y-53968715D01*
X73563969Y-54252752D01*
X73768286Y-54501714D01*
X74017248Y-54706031D01*
X74301285Y-54857852D01*
X74609484Y-54951343D01*
X74849678Y-54975000D01*
X75010322Y-54975000D01*
X75250516Y-54951343D01*
X75558715Y-54857852D01*
X75842752Y-54706031D01*
X76091714Y-54501714D01*
X76296031Y-54252752D01*
X76447852Y-53968715D01*
X76541343Y-53660516D01*
X76572911Y-53340000D01*
X76541343Y-53019484D01*
X76447852Y-52711285D01*
X76296031Y-52427248D01*
X76224429Y-52340000D01*
X82181928Y-52340000D01*
X82181928Y-54340000D01*
X82194188Y-54464482D01*
X82230498Y-54584180D01*
X82289463Y-54694494D01*
X82368815Y-54791185D01*
X82465506Y-54870537D01*
X82575820Y-54929502D01*
X82695518Y-54965812D01*
X82820000Y-54978072D01*
X84820000Y-54978072D01*
X84944482Y-54965812D01*
X85064180Y-54929502D01*
X85174494Y-54870537D01*
X85271185Y-54791185D01*
X85350537Y-54694494D01*
X85409502Y-54584180D01*
X85445812Y-54464482D01*
X85458072Y-54340000D01*
X85458072Y-53994326D01*
X85494276Y-53974974D01*
X85610001Y-53880001D01*
X85619016Y-53869016D01*
X85630001Y-53860001D01*
X85724974Y-53744276D01*
X85795546Y-53612247D01*
X85839003Y-53468986D01*
X85850000Y-53357333D01*
X85850000Y-53357323D01*
X85853676Y-53320001D01*
X85850000Y-53282678D01*
X85850000Y-39663148D01*
X85911831Y-39637537D01*
X86195998Y-39447663D01*
X86437663Y-39205998D01*
X86627537Y-38921831D01*
X86758325Y-38606081D01*
X86825000Y-38270883D01*
X86825000Y-37929117D01*
X86758325Y-37593919D01*
X86627537Y-37278169D01*
X86437663Y-36994002D01*
X86195998Y-36752337D01*
X85911831Y-36562463D01*
X85596081Y-36431675D01*
X85260883Y-36365000D01*
X84919117Y-36365000D01*
X84583919Y-36431675D01*
X84268169Y-36562463D01*
X83984002Y-36752337D01*
X83742337Y-36994002D01*
X83552463Y-37278169D01*
X83421675Y-37593919D01*
X83355000Y-37929117D01*
X83355000Y-38270883D01*
X83421675Y-38606081D01*
X83552463Y-38921831D01*
X83708261Y-39155000D01*
X83673740Y-39155000D01*
X83386842Y-39212068D01*
X83116589Y-39324010D01*
X82873368Y-39486525D01*
X82666525Y-39693368D01*
X82504010Y-39936589D01*
X82392068Y-40206842D01*
X82335000Y-40493740D01*
X82335000Y-40786260D01*
X82392068Y-41073158D01*
X82504010Y-41343411D01*
X82666525Y-41586632D01*
X82873368Y-41793475D01*
X83116589Y-41955990D01*
X83386842Y-42067932D01*
X83673740Y-42125000D01*
X83966260Y-42125000D01*
X84253158Y-42067932D01*
X84330000Y-42036103D01*
X84330001Y-51701928D01*
X82820000Y-51701928D01*
X82695518Y-51714188D01*
X82575820Y-51750498D01*
X82465506Y-51809463D01*
X82368815Y-51888815D01*
X82289463Y-51985506D01*
X82230498Y-52095820D01*
X82194188Y-52215518D01*
X82181928Y-52340000D01*
X76224429Y-52340000D01*
X76091714Y-52178286D01*
X75842752Y-51973969D01*
X75558715Y-51822148D01*
X75250516Y-51728657D01*
X75010322Y-51705000D01*
X74849678Y-51705000D01*
X74609484Y-51728657D01*
X74301285Y-51822148D01*
X74017248Y-51973969D01*
X73768286Y-52178286D01*
X73563969Y-52427248D01*
X73412148Y-52711285D01*
X73318657Y-53019484D01*
X73287089Y-53340000D01*
X70610000Y-53340000D01*
X70610000Y-40493740D01*
X70905000Y-40493740D01*
X70905000Y-40786260D01*
X70962068Y-41073158D01*
X71074010Y-41343411D01*
X71236525Y-41586632D01*
X71443368Y-41793475D01*
X71686589Y-41955990D01*
X71956842Y-42067932D01*
X72243740Y-42125000D01*
X72536260Y-42125000D01*
X72823158Y-42067932D01*
X73093411Y-41955990D01*
X73336632Y-41793475D01*
X73543475Y-41586632D01*
X73705990Y-41343411D01*
X73817932Y-41073158D01*
X73875000Y-40786260D01*
X73875000Y-40493740D01*
X73817932Y-40206842D01*
X73705990Y-39936589D01*
X73543475Y-39693368D01*
X73336632Y-39486525D01*
X73093411Y-39324010D01*
X72823158Y-39212068D01*
X72536260Y-39155000D01*
X72243740Y-39155000D01*
X71956842Y-39212068D01*
X71686589Y-39324010D01*
X71443368Y-39486525D01*
X71236525Y-39693368D01*
X71074010Y-39936589D01*
X70962068Y-40206842D01*
X70905000Y-40493740D01*
X70610000Y-40493740D01*
X70610000Y-37123148D01*
X70671831Y-37097537D01*
X70955998Y-36907663D01*
X71197663Y-36665998D01*
X71387537Y-36381831D01*
X71518325Y-36066081D01*
X71585000Y-35730883D01*
X71585000Y-35389117D01*
X71518325Y-35053919D01*
X71387537Y-34738169D01*
X71197663Y-34454002D01*
X70955998Y-34212337D01*
X70671831Y-34022463D01*
X70610000Y-33996852D01*
X70610000Y-26940000D01*
X73291928Y-26940000D01*
X73291928Y-28940000D01*
X73304188Y-29064482D01*
X73340498Y-29184180D01*
X73399463Y-29294494D01*
X73478815Y-29391185D01*
X73575506Y-29470537D01*
X73685820Y-29529502D01*
X73805518Y-29565812D01*
X73930000Y-29578072D01*
X75930000Y-29578072D01*
X76054482Y-29565812D01*
X76174180Y-29529502D01*
X76284494Y-29470537D01*
X76381185Y-29391185D01*
X76460537Y-29294494D01*
X76519502Y-29184180D01*
X76555812Y-29064482D01*
X76568072Y-28940000D01*
X76568072Y-28594326D01*
X76604276Y-28574974D01*
X76720001Y-28480001D01*
X76729016Y-28469016D01*
X76740001Y-28460001D01*
X76834974Y-28344276D01*
X76905546Y-28212247D01*
X76949003Y-28068986D01*
X76960000Y-27957333D01*
X76960000Y-27957323D01*
X76961706Y-27940000D01*
X83447089Y-27940000D01*
X83478657Y-28260516D01*
X83572148Y-28568715D01*
X83723969Y-28852752D01*
X83928286Y-29101714D01*
X84177248Y-29306031D01*
X84461285Y-29457852D01*
X84769484Y-29551343D01*
X85009678Y-29575000D01*
X85170322Y-29575000D01*
X85410516Y-29551343D01*
X85718715Y-29457852D01*
X86002752Y-29306031D01*
X86251714Y-29101714D01*
X86456031Y-28852752D01*
X86607852Y-28568715D01*
X86701343Y-28260516D01*
X86732911Y-27940000D01*
X86701343Y-27619484D01*
X86607852Y-27311285D01*
X86456031Y-27027248D01*
X86251714Y-26778286D01*
X86002752Y-26573969D01*
X85718715Y-26422148D01*
X85410516Y-26328657D01*
X85170322Y-26305000D01*
X85009678Y-26305000D01*
X84769484Y-26328657D01*
X84461285Y-26422148D01*
X84177248Y-26573969D01*
X83928286Y-26778286D01*
X83723969Y-27027248D01*
X83572148Y-27311285D01*
X83478657Y-27619484D01*
X83447089Y-27940000D01*
X76961706Y-27940000D01*
X76963676Y-27920001D01*
X76960000Y-27882678D01*
X76960000Y-14980475D01*
X77375000Y-14980475D01*
X77375000Y-15499525D01*
X77476261Y-16008601D01*
X77674893Y-16488141D01*
X77963262Y-16919715D01*
X78330285Y-17286738D01*
X78761859Y-17575107D01*
X79241399Y-17773739D01*
X79750475Y-17875000D01*
X80269525Y-17875000D01*
X80778601Y-17773739D01*
X81258141Y-17575107D01*
X81689715Y-17286738D01*
X82056738Y-16919715D01*
X82345107Y-16488141D01*
X82543739Y-16008601D01*
X82645000Y-15499525D01*
X82645000Y-14980475D01*
X82543739Y-14471399D01*
X82345107Y-13991859D01*
X82056738Y-13560285D01*
X81689715Y-13193262D01*
X81258141Y-12904893D01*
X80778601Y-12706261D01*
X80269525Y-12605000D01*
X79750475Y-12605000D01*
X79241399Y-12706261D01*
X78761859Y-12904893D01*
X78330285Y-13193262D01*
X77963262Y-13560285D01*
X77674893Y-13991859D01*
X77476261Y-14471399D01*
X77375000Y-14980475D01*
X76960000Y-14980475D01*
X76960000Y-14263148D01*
X77021831Y-14237537D01*
X77305998Y-14047663D01*
X77547663Y-13805998D01*
X77737537Y-13521831D01*
X77868325Y-13206081D01*
X77935000Y-12870883D01*
X77935000Y-12529117D01*
X77868325Y-12193919D01*
X77737537Y-11878169D01*
X77547663Y-11594002D01*
X77305998Y-11352337D01*
X77021831Y-11162463D01*
X76706081Y-11031675D01*
X76370883Y-10965000D01*
X76029117Y-10965000D01*
X75693919Y-11031675D01*
X75378169Y-11162463D01*
X75094002Y-11352337D01*
X74852337Y-11594002D01*
X74662463Y-11878169D01*
X74531675Y-12193919D01*
X74465000Y-12529117D01*
X74465000Y-12870883D01*
X74531675Y-13206081D01*
X74662463Y-13521831D01*
X74818261Y-13755000D01*
X74783740Y-13755000D01*
X74496842Y-13812068D01*
X74226589Y-13924010D01*
X73983368Y-14086525D01*
X73776525Y-14293368D01*
X73614010Y-14536589D01*
X73502068Y-14806842D01*
X73445000Y-15093740D01*
X73445000Y-15386260D01*
X73502068Y-15673158D01*
X73614010Y-15943411D01*
X73776525Y-16186632D01*
X73983368Y-16393475D01*
X74226589Y-16555990D01*
X74496842Y-16667932D01*
X74783740Y-16725000D01*
X75076260Y-16725000D01*
X75363158Y-16667932D01*
X75440000Y-16636103D01*
X75440001Y-26301928D01*
X73930000Y-26301928D01*
X73805518Y-26314188D01*
X73685820Y-26350498D01*
X73575506Y-26409463D01*
X73478815Y-26488815D01*
X73399463Y-26585506D01*
X73340498Y-26695820D01*
X73304188Y-26815518D01*
X73291928Y-26940000D01*
X70610000Y-26940000D01*
X70610000Y-19087333D01*
X70613677Y-19050000D01*
X70599003Y-18901014D01*
X70555546Y-18757753D01*
X70484974Y-18625724D01*
X70413799Y-18538997D01*
X70390001Y-18509999D01*
X70361004Y-18486202D01*
X62602714Y-10727912D01*
X62628325Y-10666081D01*
X62695000Y-10330883D01*
X62695000Y-9989117D01*
X80815000Y-9989117D01*
X80815000Y-10330883D01*
X80881675Y-10666081D01*
X81012463Y-10981831D01*
X81202337Y-11265998D01*
X81444002Y-11507663D01*
X81728169Y-11697537D01*
X82043919Y-11828325D01*
X82379117Y-11895000D01*
X82720883Y-11895000D01*
X83056081Y-11828325D01*
X83117912Y-11802714D01*
X85070199Y-13755000D01*
X84943740Y-13755000D01*
X84656842Y-13812068D01*
X84386589Y-13924010D01*
X84143368Y-14086525D01*
X83936525Y-14293368D01*
X83774010Y-14536589D01*
X83662068Y-14806842D01*
X83605000Y-15093740D01*
X83605000Y-15386260D01*
X83662068Y-15673158D01*
X83774010Y-15943411D01*
X83936525Y-16186632D01*
X84143368Y-16393475D01*
X84386589Y-16555990D01*
X84656842Y-16667932D01*
X84943740Y-16725000D01*
X85236260Y-16725000D01*
X85523158Y-16667932D01*
X85793411Y-16555990D01*
X86036632Y-16393475D01*
X86243475Y-16186632D01*
X86405990Y-15943411D01*
X86517932Y-15673158D01*
X86575000Y-15386260D01*
X86575000Y-15259802D01*
X90680000Y-19364802D01*
X90680001Y-33996851D01*
X90618169Y-34022463D01*
X90334002Y-34212337D01*
X90092337Y-34454002D01*
X89902463Y-34738169D01*
X89771675Y-35053919D01*
X89705000Y-35389117D01*
X89705000Y-35730883D01*
X89771675Y-36066081D01*
X89902463Y-36381831D01*
X90092337Y-36665998D01*
X90334002Y-36907663D01*
X90618169Y-37097537D01*
X90680001Y-37123149D01*
X90680001Y-38693548D01*
X90579715Y-38593262D01*
X90148141Y-38304893D01*
X89668601Y-38106261D01*
X89159525Y-38005000D01*
X88640475Y-38005000D01*
X88131399Y-38106261D01*
X87651859Y-38304893D01*
X87220285Y-38593262D01*
X86853262Y-38960285D01*
X86564893Y-39391859D01*
X86366261Y-39871399D01*
X86265000Y-40380475D01*
X86265000Y-40899525D01*
X86366261Y-41408601D01*
X86564893Y-41888141D01*
X86853262Y-42319715D01*
X87220285Y-42686738D01*
X87651859Y-42975107D01*
X88131399Y-43173739D01*
X88640475Y-43275000D01*
X89159525Y-43275000D01*
X89668601Y-43173739D01*
X90148141Y-42975107D01*
X90579715Y-42686738D01*
X90680001Y-42586452D01*
X90680000Y-51755198D01*
X83117912Y-59317286D01*
X83056081Y-59291675D01*
X82720883Y-59225000D01*
X82379117Y-59225000D01*
X82043919Y-59291675D01*
X81728169Y-59422463D01*
X81444002Y-59612337D01*
X81202337Y-59854002D01*
X81012463Y-60138169D01*
X80881675Y-60453919D01*
X80815000Y-60789117D01*
X80815000Y-61130883D01*
X80881675Y-61466081D01*
X81012463Y-61781831D01*
X81202337Y-62065998D01*
X81444002Y-62307663D01*
X81728169Y-62497537D01*
X82043919Y-62628325D01*
X82379117Y-62695000D01*
X82720883Y-62695000D01*
X83056081Y-62628325D01*
X83371831Y-62497537D01*
X83655998Y-62307663D01*
X83897663Y-62065998D01*
X84087537Y-61781831D01*
X84218325Y-61466081D01*
X84285000Y-61130883D01*
X84285000Y-60789117D01*
X84218325Y-60453919D01*
X84192714Y-60392088D01*
X91244802Y-53340000D01*
X92337089Y-53340000D01*
X92368657Y-53660516D01*
X92462148Y-53968715D01*
X92613969Y-54252752D01*
X92818286Y-54501714D01*
X93067248Y-54706031D01*
X93351285Y-54857852D01*
X93659484Y-54951343D01*
X93899678Y-54975000D01*
X94060322Y-54975000D01*
X94300516Y-54951343D01*
X94608715Y-54857852D01*
X94892752Y-54706031D01*
X95141714Y-54501714D01*
X95346031Y-54252752D01*
X95497852Y-53968715D01*
X95591343Y-53660516D01*
X95622911Y-53340000D01*
X95591343Y-53019484D01*
X95497852Y-52711285D01*
X95346031Y-52427248D01*
X95141714Y-52178286D01*
X94892752Y-51973969D01*
X94608715Y-51822148D01*
X94300516Y-51728657D01*
X94060322Y-51705000D01*
X93899678Y-51705000D01*
X93659484Y-51728657D01*
X93351285Y-51822148D01*
X93067248Y-51973969D01*
X92818286Y-52178286D01*
X92613969Y-52427248D01*
X92462148Y-52711285D01*
X92368657Y-53019484D01*
X92337089Y-53340000D01*
X91244802Y-53340000D01*
X91951004Y-52633798D01*
X91980001Y-52610001D01*
X92074974Y-52494276D01*
X92145546Y-52362247D01*
X92189003Y-52218986D01*
X92200000Y-52107333D01*
X92200000Y-52107332D01*
X92203677Y-52070000D01*
X92200000Y-52032667D01*
X92200000Y-40493740D01*
X92495000Y-40493740D01*
X92495000Y-40786260D01*
X92552068Y-41073158D01*
X92664010Y-41343411D01*
X92826525Y-41586632D01*
X93033368Y-41793475D01*
X93276589Y-41955990D01*
X93546842Y-42067932D01*
X93833740Y-42125000D01*
X94126260Y-42125000D01*
X94413158Y-42067932D01*
X94683411Y-41955990D01*
X94926632Y-41793475D01*
X95133475Y-41586632D01*
X95295990Y-41343411D01*
X95407932Y-41073158D01*
X95465000Y-40786260D01*
X95465000Y-40493740D01*
X95407932Y-40206842D01*
X95295990Y-39936589D01*
X95133475Y-39693368D01*
X94926632Y-39486525D01*
X94683411Y-39324010D01*
X94413158Y-39212068D01*
X94126260Y-39155000D01*
X93833740Y-39155000D01*
X93546842Y-39212068D01*
X93276589Y-39324010D01*
X93033368Y-39486525D01*
X92826525Y-39693368D01*
X92664010Y-39936589D01*
X92552068Y-40206842D01*
X92495000Y-40493740D01*
X92200000Y-40493740D01*
X92200000Y-37123148D01*
X92261831Y-37097537D01*
X92545998Y-36907663D01*
X92787663Y-36665998D01*
X92977537Y-36381831D01*
X93108325Y-36066081D01*
X93175000Y-35730883D01*
X93175000Y-35389117D01*
X93108325Y-35053919D01*
X92977537Y-34738169D01*
X92787663Y-34454002D01*
X92545998Y-34212337D01*
X92261831Y-34022463D01*
X92200000Y-33996852D01*
X92200000Y-19087333D01*
X92203677Y-19050000D01*
X92189003Y-18901014D01*
X92145546Y-18757753D01*
X92074974Y-18625724D01*
X92003799Y-18538997D01*
X91980001Y-18509999D01*
X91951004Y-18486202D01*
X84192714Y-10727912D01*
X84218325Y-10666081D01*
X84285000Y-10330883D01*
X84285000Y-9989117D01*
X84218325Y-9653919D01*
X84087537Y-9338169D01*
X83897663Y-9054002D01*
X83655998Y-8812337D01*
X83371831Y-8622463D01*
X83056081Y-8491675D01*
X82720883Y-8425000D01*
X82379117Y-8425000D01*
X82043919Y-8491675D01*
X81728169Y-8622463D01*
X81444002Y-8812337D01*
X81202337Y-9054002D01*
X81012463Y-9338169D01*
X80881675Y-9653919D01*
X80815000Y-9989117D01*
X62695000Y-9989117D01*
X62628325Y-9653919D01*
X62497537Y-9338169D01*
X62307663Y-9054002D01*
X62065998Y-8812337D01*
X61781831Y-8622463D01*
X61466081Y-8491675D01*
X61130883Y-8425000D01*
X60789117Y-8425000D01*
X60453919Y-8491675D01*
X60138169Y-8622463D01*
X59854002Y-8812337D01*
X59612337Y-9054002D01*
X59422463Y-9338169D01*
X59291675Y-9653919D01*
X59225000Y-9989117D01*
X59225000Y-10330883D01*
X59291675Y-10666081D01*
X59422463Y-10981831D01*
X59612337Y-11265998D01*
X59854002Y-11507663D01*
X60138169Y-11697537D01*
X60453919Y-11828325D01*
X60789117Y-11895000D01*
X61130883Y-11895000D01*
X61466081Y-11828325D01*
X61527912Y-11802714D01*
X63480199Y-13755000D01*
X63353740Y-13755000D01*
X63066842Y-13812068D01*
X62796589Y-13924010D01*
X62553368Y-14086525D01*
X62346525Y-14293368D01*
X62184010Y-14536589D01*
X62072068Y-14806842D01*
X62015000Y-15093740D01*
X62015000Y-15386260D01*
X62072068Y-15673158D01*
X62184010Y-15943411D01*
X62346525Y-16186632D01*
X62553368Y-16393475D01*
X62796589Y-16555990D01*
X63066842Y-16667932D01*
X63353740Y-16725000D01*
X63646260Y-16725000D01*
X63933158Y-16667932D01*
X64203411Y-16555990D01*
X64446632Y-16393475D01*
X64653475Y-16186632D01*
X64815990Y-15943411D01*
X64927932Y-15673158D01*
X64985000Y-15386260D01*
X64985000Y-15259802D01*
X69090000Y-19364802D01*
X69090001Y-33996851D01*
X69028169Y-34022463D01*
X68744002Y-34212337D01*
X68502337Y-34454002D01*
X68312463Y-34738169D01*
X68181675Y-35053919D01*
X68115000Y-35389117D01*
X68115000Y-35730883D01*
X68181675Y-36066081D01*
X68312463Y-36381831D01*
X68502337Y-36665998D01*
X68744002Y-36907663D01*
X69028169Y-37097537D01*
X69090000Y-37123148D01*
X69090000Y-38693547D01*
X68989715Y-38593262D01*
X68558141Y-38304893D01*
X68078601Y-38106261D01*
X67569525Y-38005000D01*
X67050475Y-38005000D01*
X66541399Y-38106261D01*
X66061859Y-38304893D01*
X65630285Y-38593262D01*
X65263262Y-38960285D01*
X64974893Y-39391859D01*
X64776261Y-39871399D01*
X64675000Y-40380475D01*
X64675000Y-40899525D01*
X64776261Y-41408601D01*
X64974893Y-41888141D01*
X65263262Y-42319715D01*
X65630285Y-42686738D01*
X66061859Y-42975107D01*
X66541399Y-43173739D01*
X67050475Y-43275000D01*
X67569525Y-43275000D01*
X68078601Y-43173739D01*
X68558141Y-42975107D01*
X68989715Y-42686738D01*
X69090000Y-42586453D01*
X69090001Y-58105197D01*
X55409571Y-71785628D01*
X55255592Y-71755000D01*
X54980408Y-71755000D01*
X54710510Y-71808686D01*
X54456273Y-71913995D01*
X54227465Y-72066880D01*
X54032880Y-72261465D01*
X53879995Y-72490273D01*
X53774686Y-72744510D01*
X53721000Y-73014408D01*
X33780000Y-73014408D01*
X33780000Y-71388808D01*
X49149000Y-71388808D01*
X49149000Y-71663992D01*
X49202686Y-71933890D01*
X49307995Y-72188127D01*
X49460880Y-72416935D01*
X49655465Y-72611520D01*
X49884273Y-72764405D01*
X50138510Y-72869714D01*
X50408408Y-72923400D01*
X50683592Y-72923400D01*
X50953490Y-72869714D01*
X51207727Y-72764405D01*
X51436535Y-72611520D01*
X51631120Y-72416935D01*
X51784005Y-72188127D01*
X51889314Y-71933890D01*
X51943000Y-71663992D01*
X51943000Y-71388808D01*
X51889314Y-71118910D01*
X51784005Y-70864673D01*
X51631120Y-70635865D01*
X51436535Y-70441280D01*
X51207727Y-70288395D01*
X50953490Y-70183086D01*
X50683592Y-70129400D01*
X50408408Y-70129400D01*
X50138510Y-70183086D01*
X49884273Y-70288395D01*
X49655465Y-70441280D01*
X49460880Y-70635865D01*
X49307995Y-70864673D01*
X49202686Y-71118910D01*
X49149000Y-71388808D01*
X33780000Y-71388808D01*
X33780000Y-65063148D01*
X33841831Y-65037537D01*
X34125998Y-64847663D01*
X34367663Y-64605998D01*
X34557537Y-64321831D01*
X34688325Y-64006081D01*
X34755000Y-63670883D01*
X34755000Y-63329117D01*
X34688325Y-62993919D01*
X34622498Y-62834999D01*
X35891196Y-62834999D01*
X36402209Y-63346012D01*
X36426007Y-63375011D01*
X36483604Y-63422280D01*
X36061399Y-63506261D01*
X35581859Y-63704893D01*
X35150285Y-63993262D01*
X34783262Y-64360285D01*
X34494893Y-64791859D01*
X34296261Y-65271399D01*
X34195000Y-65780475D01*
X34195000Y-66299525D01*
X34296261Y-66808601D01*
X34494893Y-67288141D01*
X34783262Y-67719715D01*
X35150285Y-68086738D01*
X35581859Y-68375107D01*
X36061399Y-68573739D01*
X36570475Y-68675000D01*
X37089525Y-68675000D01*
X37598601Y-68573739D01*
X38078141Y-68375107D01*
X38509715Y-68086738D01*
X38876738Y-67719715D01*
X39165107Y-67288141D01*
X39363739Y-66808601D01*
X39465000Y-66299525D01*
X39465000Y-65893740D01*
X40425000Y-65893740D01*
X40425000Y-66186260D01*
X40482068Y-66473158D01*
X40594010Y-66743411D01*
X40756525Y-66986632D01*
X40963368Y-67193475D01*
X41206589Y-67355990D01*
X41476842Y-67467932D01*
X41763740Y-67525000D01*
X42056260Y-67525000D01*
X42343158Y-67467932D01*
X42613411Y-67355990D01*
X42856632Y-67193475D01*
X43063475Y-66986632D01*
X43225990Y-66743411D01*
X43337932Y-66473158D01*
X43395000Y-66186260D01*
X43395000Y-65893740D01*
X43337932Y-65606842D01*
X43225990Y-65336589D01*
X43063475Y-65093368D01*
X42856632Y-64886525D01*
X42613411Y-64724010D01*
X42343158Y-64612068D01*
X42056260Y-64555000D01*
X41763740Y-64555000D01*
X41476842Y-64612068D01*
X41206589Y-64724010D01*
X40963368Y-64886525D01*
X40756525Y-65093368D01*
X40594010Y-65336589D01*
X40482068Y-65606842D01*
X40425000Y-65893740D01*
X39465000Y-65893740D01*
X39465000Y-65780475D01*
X39363739Y-65271399D01*
X39165107Y-64791859D01*
X38876738Y-64360285D01*
X38509715Y-63993262D01*
X38078141Y-63704893D01*
X37812860Y-63595010D01*
X44078506Y-63595010D01*
X44115828Y-63598686D01*
X44153150Y-63595010D01*
X44153161Y-63595010D01*
X44264814Y-63584013D01*
X44408075Y-63540556D01*
X44540104Y-63469984D01*
X44655829Y-63375011D01*
X44679632Y-63346007D01*
X49324945Y-58700694D01*
X49460880Y-58904135D01*
X49655465Y-59098720D01*
X49884273Y-59251605D01*
X50138510Y-59356914D01*
X50408408Y-59410600D01*
X50683592Y-59410600D01*
X50953490Y-59356914D01*
X51207727Y-59251605D01*
X51436535Y-59098720D01*
X51631120Y-58904135D01*
X51784005Y-58675327D01*
X51889314Y-58421090D01*
X51943000Y-58151192D01*
X51943000Y-57876008D01*
X64897000Y-57876008D01*
X64897000Y-58151192D01*
X64950686Y-58421090D01*
X65055995Y-58675327D01*
X65208880Y-58904135D01*
X65403465Y-59098720D01*
X65632273Y-59251605D01*
X65886510Y-59356914D01*
X66156408Y-59410600D01*
X66431592Y-59410600D01*
X66701490Y-59356914D01*
X66955727Y-59251605D01*
X67184535Y-59098720D01*
X67379120Y-58904135D01*
X67532005Y-58675327D01*
X67637314Y-58421090D01*
X67691000Y-58151192D01*
X67691000Y-57876008D01*
X67637314Y-57606110D01*
X67532005Y-57351873D01*
X67379120Y-57123065D01*
X67184535Y-56928480D01*
X66955727Y-56775595D01*
X66701490Y-56670286D01*
X66431592Y-56616600D01*
X66156408Y-56616600D01*
X65886510Y-56670286D01*
X65632273Y-56775595D01*
X65403465Y-56928480D01*
X65208880Y-57123065D01*
X65055995Y-57351873D01*
X64950686Y-57606110D01*
X64897000Y-57876008D01*
X51943000Y-57876008D01*
X51889314Y-57606110D01*
X51784005Y-57351873D01*
X51631120Y-57123065D01*
X51436535Y-56928480D01*
X51233095Y-56792545D01*
X52196075Y-55829565D01*
X55094040Y-55829565D01*
X55161020Y-56069656D01*
X55410048Y-56186756D01*
X55677135Y-56253023D01*
X55952017Y-56265910D01*
X56224133Y-56224922D01*
X56483023Y-56131636D01*
X56598980Y-56069656D01*
X56665960Y-55829565D01*
X55880000Y-55043605D01*
X55094040Y-55829565D01*
X52196075Y-55829565D01*
X53488641Y-54536999D01*
X54521776Y-54536999D01*
X54490977Y-54661135D01*
X54478090Y-54936017D01*
X54519078Y-55208133D01*
X54612364Y-55467023D01*
X54674344Y-55582980D01*
X54914435Y-55649960D01*
X55700395Y-54864000D01*
X55686253Y-54849858D01*
X55865858Y-54670253D01*
X55880000Y-54684395D01*
X55894143Y-54670253D01*
X56073748Y-54849858D01*
X56059605Y-54864000D01*
X56845565Y-55649960D01*
X57085656Y-55582980D01*
X57149485Y-55447240D01*
X57181995Y-55525727D01*
X57334880Y-55754535D01*
X57529465Y-55949120D01*
X57758273Y-56102005D01*
X58012510Y-56207314D01*
X58282408Y-56261000D01*
X58557592Y-56261000D01*
X58827490Y-56207314D01*
X59081727Y-56102005D01*
X59310535Y-55949120D01*
X59505120Y-55754535D01*
X59658005Y-55525727D01*
X59690000Y-55448485D01*
X59721995Y-55525727D01*
X59874880Y-55754535D01*
X60069465Y-55949120D01*
X60298273Y-56102005D01*
X60552510Y-56207314D01*
X60822408Y-56261000D01*
X61097592Y-56261000D01*
X61367490Y-56207314D01*
X61621727Y-56102005D01*
X61850535Y-55949120D01*
X62045120Y-55754535D01*
X62198005Y-55525727D01*
X62303314Y-55271490D01*
X62357000Y-55001592D01*
X62357000Y-54726408D01*
X62303314Y-54456510D01*
X62198005Y-54202273D01*
X62045120Y-53973465D01*
X61850535Y-53778880D01*
X61621727Y-53625995D01*
X61367490Y-53520686D01*
X61097592Y-53467000D01*
X60822408Y-53467000D01*
X60668430Y-53497628D01*
X58674803Y-51504002D01*
X58651000Y-51474998D01*
X58535275Y-51380025D01*
X58403246Y-51309453D01*
X58259985Y-51265996D01*
X58148332Y-51254999D01*
X58148321Y-51254999D01*
X58110999Y-51251323D01*
X58073677Y-51254999D01*
X50257323Y-51254999D01*
X50220001Y-51251323D01*
X50182678Y-51254999D01*
X50182668Y-51254999D01*
X50071015Y-51265996D01*
X49927754Y-51309453D01*
X49795724Y-51380025D01*
X49728706Y-51435026D01*
X49680000Y-51474998D01*
X49656202Y-51503996D01*
X49192625Y-51967573D01*
X49105723Y-52014024D01*
X49056328Y-52054562D01*
X49022460Y-52082357D01*
X49023677Y-52070000D01*
X49020000Y-52032667D01*
X49020000Y-40493740D01*
X49315000Y-40493740D01*
X49315000Y-40786260D01*
X49372068Y-41073158D01*
X49484010Y-41343411D01*
X49646525Y-41586632D01*
X49853368Y-41793475D01*
X50096589Y-41955990D01*
X50366842Y-42067932D01*
X50653740Y-42125000D01*
X50946260Y-42125000D01*
X51233158Y-42067932D01*
X51503411Y-41955990D01*
X51746632Y-41793475D01*
X51953475Y-41586632D01*
X52115990Y-41343411D01*
X52227932Y-41073158D01*
X52285000Y-40786260D01*
X52285000Y-40493740D01*
X60745000Y-40493740D01*
X60745000Y-40786260D01*
X60802068Y-41073158D01*
X60914010Y-41343411D01*
X61076525Y-41586632D01*
X61283368Y-41793475D01*
X61526589Y-41955990D01*
X61796842Y-42067932D01*
X62083740Y-42125000D01*
X62376260Y-42125000D01*
X62663158Y-42067932D01*
X62740000Y-42036103D01*
X62740001Y-53282667D01*
X62736324Y-53320000D01*
X62740001Y-53357333D01*
X62750998Y-53468986D01*
X62755781Y-53484753D01*
X62794454Y-53612246D01*
X62865026Y-53744276D01*
X62918926Y-53809952D01*
X62960000Y-53860001D01*
X62970982Y-53869014D01*
X62979999Y-53880001D01*
X63095724Y-53974974D01*
X63131928Y-53994326D01*
X63131928Y-54340000D01*
X63144188Y-54464482D01*
X63180498Y-54584180D01*
X63239463Y-54694494D01*
X63318815Y-54791185D01*
X63415506Y-54870537D01*
X63525820Y-54929502D01*
X63645518Y-54965812D01*
X63770000Y-54978072D01*
X65770000Y-54978072D01*
X65894482Y-54965812D01*
X66014180Y-54929502D01*
X66124494Y-54870537D01*
X66221185Y-54791185D01*
X66300537Y-54694494D01*
X66359502Y-54584180D01*
X66395812Y-54464482D01*
X66408072Y-54340000D01*
X66408072Y-52340000D01*
X66395812Y-52215518D01*
X66359502Y-52095820D01*
X66300537Y-51985506D01*
X66221185Y-51888815D01*
X66124494Y-51809463D01*
X66014180Y-51750498D01*
X65894482Y-51714188D01*
X65770000Y-51701928D01*
X64260000Y-51701928D01*
X64260000Y-39663148D01*
X64321831Y-39637537D01*
X64605998Y-39447663D01*
X64847663Y-39205998D01*
X65037537Y-38921831D01*
X65168325Y-38606081D01*
X65235000Y-38270883D01*
X65235000Y-37929117D01*
X65168325Y-37593919D01*
X65037537Y-37278169D01*
X64847663Y-36994002D01*
X64605998Y-36752337D01*
X64321831Y-36562463D01*
X64006081Y-36431675D01*
X63670883Y-36365000D01*
X63329117Y-36365000D01*
X62993919Y-36431675D01*
X62678169Y-36562463D01*
X62394002Y-36752337D01*
X62152337Y-36994002D01*
X61962463Y-37278169D01*
X61831675Y-37593919D01*
X61765000Y-37929117D01*
X61765000Y-38270883D01*
X61831675Y-38606081D01*
X61962463Y-38921831D01*
X62118261Y-39155000D01*
X62083740Y-39155000D01*
X61796842Y-39212068D01*
X61526589Y-39324010D01*
X61283368Y-39486525D01*
X61076525Y-39693368D01*
X60914010Y-39936589D01*
X60802068Y-40206842D01*
X60745000Y-40493740D01*
X52285000Y-40493740D01*
X52227932Y-40206842D01*
X52115990Y-39936589D01*
X51953475Y-39693368D01*
X51746632Y-39486525D01*
X51503411Y-39324010D01*
X51233158Y-39212068D01*
X50946260Y-39155000D01*
X50653740Y-39155000D01*
X50366842Y-39212068D01*
X50096589Y-39324010D01*
X49853368Y-39486525D01*
X49646525Y-39693368D01*
X49484010Y-39936589D01*
X49372068Y-40206842D01*
X49315000Y-40493740D01*
X49020000Y-40493740D01*
X49020000Y-37123148D01*
X49081831Y-37097537D01*
X49365998Y-36907663D01*
X49607663Y-36665998D01*
X49797537Y-36381831D01*
X49928325Y-36066081D01*
X49995000Y-35730883D01*
X49995000Y-35389117D01*
X49928325Y-35053919D01*
X49797537Y-34738169D01*
X49607663Y-34454002D01*
X49365998Y-34212337D01*
X49081831Y-34022463D01*
X49020000Y-33996852D01*
X49020000Y-31787333D01*
X49023677Y-31750000D01*
X49009003Y-31601014D01*
X48965546Y-31457753D01*
X48894974Y-31325724D01*
X48823799Y-31238997D01*
X48800001Y-31209999D01*
X48771004Y-31186202D01*
X44524802Y-26940000D01*
X51701928Y-26940000D01*
X51701928Y-28940000D01*
X51714188Y-29064482D01*
X51750498Y-29184180D01*
X51809463Y-29294494D01*
X51888815Y-29391185D01*
X51985506Y-29470537D01*
X52095820Y-29529502D01*
X52215518Y-29565812D01*
X52340000Y-29578072D01*
X54340000Y-29578072D01*
X54464482Y-29565812D01*
X54584180Y-29529502D01*
X54694494Y-29470537D01*
X54791185Y-29391185D01*
X54870537Y-29294494D01*
X54929502Y-29184180D01*
X54965812Y-29064482D01*
X54978072Y-28940000D01*
X54978072Y-28594326D01*
X55014276Y-28574974D01*
X55130001Y-28480001D01*
X55139016Y-28469016D01*
X55150001Y-28460001D01*
X55244974Y-28344276D01*
X55315546Y-28212247D01*
X55359003Y-28068986D01*
X55370000Y-27957333D01*
X55370000Y-27957323D01*
X55371706Y-27940000D01*
X61857089Y-27940000D01*
X61888657Y-28260516D01*
X61982148Y-28568715D01*
X62133969Y-28852752D01*
X62338286Y-29101714D01*
X62587248Y-29306031D01*
X62871285Y-29457852D01*
X63179484Y-29551343D01*
X63419678Y-29575000D01*
X63580322Y-29575000D01*
X63820516Y-29551343D01*
X64128715Y-29457852D01*
X64412752Y-29306031D01*
X64661714Y-29101714D01*
X64866031Y-28852752D01*
X65017852Y-28568715D01*
X65111343Y-28260516D01*
X65142911Y-27940000D01*
X65111343Y-27619484D01*
X65017852Y-27311285D01*
X64866031Y-27027248D01*
X64661714Y-26778286D01*
X64412752Y-26573969D01*
X64128715Y-26422148D01*
X63820516Y-26328657D01*
X63580322Y-26305000D01*
X63419678Y-26305000D01*
X63179484Y-26328657D01*
X62871285Y-26422148D01*
X62587248Y-26573969D01*
X62338286Y-26778286D01*
X62133969Y-27027248D01*
X61982148Y-27311285D01*
X61888657Y-27619484D01*
X61857089Y-27940000D01*
X55371706Y-27940000D01*
X55373676Y-27920001D01*
X55370000Y-27882678D01*
X55370000Y-14980475D01*
X55785000Y-14980475D01*
X55785000Y-15499525D01*
X55886261Y-16008601D01*
X56084893Y-16488141D01*
X56373262Y-16919715D01*
X56740285Y-17286738D01*
X57171859Y-17575107D01*
X57651399Y-17773739D01*
X58160475Y-17875000D01*
X58679525Y-17875000D01*
X59188601Y-17773739D01*
X59668141Y-17575107D01*
X60099715Y-17286738D01*
X60466738Y-16919715D01*
X60755107Y-16488141D01*
X60953739Y-16008601D01*
X61055000Y-15499525D01*
X61055000Y-14980475D01*
X60953739Y-14471399D01*
X60755107Y-13991859D01*
X60466738Y-13560285D01*
X60099715Y-13193262D01*
X59668141Y-12904893D01*
X59188601Y-12706261D01*
X58679525Y-12605000D01*
X58160475Y-12605000D01*
X57651399Y-12706261D01*
X57171859Y-12904893D01*
X56740285Y-13193262D01*
X56373262Y-13560285D01*
X56084893Y-13991859D01*
X55886261Y-14471399D01*
X55785000Y-14980475D01*
X55370000Y-14980475D01*
X55370000Y-14263148D01*
X55431831Y-14237537D01*
X55715998Y-14047663D01*
X55957663Y-13805998D01*
X56147537Y-13521831D01*
X56278325Y-13206081D01*
X56345000Y-12870883D01*
X56345000Y-12529117D01*
X56278325Y-12193919D01*
X56147537Y-11878169D01*
X55957663Y-11594002D01*
X55715998Y-11352337D01*
X55431831Y-11162463D01*
X55116081Y-11031675D01*
X54780883Y-10965000D01*
X54439117Y-10965000D01*
X54103919Y-11031675D01*
X53788169Y-11162463D01*
X53504002Y-11352337D01*
X53262337Y-11594002D01*
X53072463Y-11878169D01*
X52941675Y-12193919D01*
X52875000Y-12529117D01*
X52875000Y-12870883D01*
X52941675Y-13206081D01*
X53072463Y-13521831D01*
X53228261Y-13755000D01*
X53193740Y-13755000D01*
X52906842Y-13812068D01*
X52636589Y-13924010D01*
X52393368Y-14086525D01*
X52186525Y-14293368D01*
X52024010Y-14536589D01*
X51912068Y-14806842D01*
X51855000Y-15093740D01*
X51855000Y-15386260D01*
X51912068Y-15673158D01*
X52024010Y-15943411D01*
X52186525Y-16186632D01*
X52393368Y-16393475D01*
X52636589Y-16555990D01*
X52906842Y-16667932D01*
X53193740Y-16725000D01*
X53486260Y-16725000D01*
X53773158Y-16667932D01*
X53850000Y-16636103D01*
X53850001Y-26301928D01*
X52340000Y-26301928D01*
X52215518Y-26314188D01*
X52095820Y-26350498D01*
X51985506Y-26409463D01*
X51888815Y-26488815D01*
X51809463Y-26585506D01*
X51750498Y-26695820D01*
X51714188Y-26815518D01*
X51701928Y-26940000D01*
X44524802Y-26940000D01*
X40130000Y-22545199D01*
X40130000Y-15093740D01*
X40425000Y-15093740D01*
X40425000Y-15386260D01*
X40482068Y-15673158D01*
X40594010Y-15943411D01*
X40756525Y-16186632D01*
X40963368Y-16393475D01*
X41206589Y-16555990D01*
X41476842Y-16667932D01*
X41763740Y-16725000D01*
X42056260Y-16725000D01*
X42343158Y-16667932D01*
X42613411Y-16555990D01*
X42856632Y-16393475D01*
X43063475Y-16186632D01*
X43225990Y-15943411D01*
X43337932Y-15673158D01*
X43395000Y-15386260D01*
X43395000Y-15093740D01*
X43337932Y-14806842D01*
X43225990Y-14536589D01*
X43063475Y-14293368D01*
X42856632Y-14086525D01*
X42613411Y-13924010D01*
X42343158Y-13812068D01*
X42056260Y-13755000D01*
X41763740Y-13755000D01*
X41476842Y-13812068D01*
X41206589Y-13924010D01*
X40963368Y-14086525D01*
X40756525Y-14293368D01*
X40594010Y-14536589D01*
X40482068Y-14806842D01*
X40425000Y-15093740D01*
X40130000Y-15093740D01*
X40130000Y-11723148D01*
X40191831Y-11697537D01*
X40475998Y-11507663D01*
X40717663Y-11265998D01*
X40907537Y-10981831D01*
X41038325Y-10666081D01*
X41105000Y-10330883D01*
X41105000Y-9989117D01*
X41038325Y-9653919D01*
X40907537Y-9338169D01*
X40717663Y-9054002D01*
X40475998Y-8812337D01*
X40191831Y-8622463D01*
X39876081Y-8491675D01*
X39540883Y-8425000D01*
X39199117Y-8425000D01*
X38863919Y-8491675D01*
X38548169Y-8622463D01*
X38264002Y-8812337D01*
X38022337Y-9054002D01*
X37832463Y-9338169D01*
X37701675Y-9653919D01*
X37635000Y-9989117D01*
X37635000Y-10330883D01*
X37701675Y-10666081D01*
X37832463Y-10981831D01*
X38022337Y-11265998D01*
X38264002Y-11507663D01*
X38548169Y-11697537D01*
X38610000Y-11723148D01*
X38610000Y-13293547D01*
X38509715Y-13193262D01*
X38078141Y-12904893D01*
X37598601Y-12706261D01*
X37089525Y-12605000D01*
X36570475Y-12605000D01*
X36061399Y-12706261D01*
X35581859Y-12904893D01*
X35150285Y-13193262D01*
X34783262Y-13560285D01*
X34494893Y-13991859D01*
X34296261Y-14471399D01*
X34195000Y-14980475D01*
X34195000Y-15499525D01*
X34296261Y-16008601D01*
X34494893Y-16488141D01*
X34783262Y-16919715D01*
X35150285Y-17286738D01*
X35581859Y-17575107D01*
X36061399Y-17773739D01*
X36570475Y-17875000D01*
X37089525Y-17875000D01*
X37598601Y-17773739D01*
X38078141Y-17575107D01*
X38509715Y-17286738D01*
X38610001Y-17186452D01*
X38610001Y-22822668D01*
X38606324Y-22860000D01*
X38620998Y-23008985D01*
X38664454Y-23152246D01*
X38735026Y-23284276D01*
X38802362Y-23366324D01*
X38830000Y-23400001D01*
X38858998Y-23423799D01*
X41748221Y-26313023D01*
X41589484Y-26328657D01*
X41281285Y-26422148D01*
X40997248Y-26573969D01*
X40748286Y-26778286D01*
X40543969Y-27027248D01*
X40392148Y-27311285D01*
X40298657Y-27619484D01*
X40267089Y-27940000D01*
X40298657Y-28260516D01*
X40392148Y-28568715D01*
X40543969Y-28852752D01*
X40748286Y-29101714D01*
X40997248Y-29306031D01*
X41281285Y-29457852D01*
X41589484Y-29551343D01*
X41829678Y-29575000D01*
X41990322Y-29575000D01*
X42230516Y-29551343D01*
X42538715Y-29457852D01*
X42822752Y-29306031D01*
X43071714Y-29101714D01*
X43276031Y-28852752D01*
X43427852Y-28568715D01*
X43521343Y-28260516D01*
X43536977Y-28101779D01*
X47500000Y-32064802D01*
X47500001Y-33996852D01*
X47438169Y-34022463D01*
X47154002Y-34212337D01*
X46912337Y-34454002D01*
X46722463Y-34738169D01*
X46591675Y-35053919D01*
X46525000Y-35389117D01*
X46525000Y-35730883D01*
X46591675Y-36066081D01*
X46722463Y-36381831D01*
X46912337Y-36665998D01*
X47154002Y-36907663D01*
X47438169Y-37097537D01*
X47500001Y-37123149D01*
X47500001Y-38693548D01*
X47399715Y-38593262D01*
X46968141Y-38304893D01*
X46488601Y-38106261D01*
X45979525Y-38005000D01*
X45460475Y-38005000D01*
X44951399Y-38106261D01*
X44471859Y-38304893D01*
X44040285Y-38593262D01*
X43673262Y-38960285D01*
X43384893Y-39391859D01*
X43186261Y-39871399D01*
X43085000Y-40380475D01*
X43085000Y-40899525D01*
X43186261Y-41408601D01*
X43384893Y-41888141D01*
X43673262Y-42319715D01*
X44040285Y-42686738D01*
X44471859Y-42975107D01*
X44951399Y-43173739D01*
X45460475Y-43275000D01*
X45979525Y-43275000D01*
X46488601Y-43173739D01*
X46968141Y-42975107D01*
X47399715Y-42686738D01*
X47500001Y-42586452D01*
X47500000Y-51755198D01*
X39937912Y-59317286D01*
X39876081Y-59291675D01*
X39540883Y-59225000D01*
X39199117Y-59225000D01*
X38863919Y-59291675D01*
X38548169Y-59422463D01*
X38264002Y-59612337D01*
X38022337Y-59854002D01*
X37832463Y-60138169D01*
X37726312Y-60394441D01*
X37655246Y-60356455D01*
X37511985Y-60312998D01*
X37400332Y-60302001D01*
X37400321Y-60302001D01*
X37362999Y-60298325D01*
X37325677Y-60302001D01*
X34706803Y-60302001D01*
X31184999Y-56780198D01*
X31184999Y-52340000D01*
X39001928Y-52340000D01*
X39001928Y-54340000D01*
X39014188Y-54464482D01*
X39050498Y-54584180D01*
X39109463Y-54694494D01*
X39188815Y-54791185D01*
X39285506Y-54870537D01*
X39395820Y-54929502D01*
X39515518Y-54965812D01*
X39640000Y-54978072D01*
X41640000Y-54978072D01*
X41764482Y-54965812D01*
X41884180Y-54929502D01*
X41994494Y-54870537D01*
X42091185Y-54791185D01*
X42170537Y-54694494D01*
X42229502Y-54584180D01*
X42265812Y-54464482D01*
X42278072Y-54340000D01*
X42278072Y-53994326D01*
X42314276Y-53974974D01*
X42430001Y-53880001D01*
X42439016Y-53869016D01*
X42450001Y-53860001D01*
X42544974Y-53744276D01*
X42615546Y-53612247D01*
X42659003Y-53468986D01*
X42670000Y-53357333D01*
X42670000Y-53357323D01*
X42673676Y-53320001D01*
X42670000Y-53282678D01*
X42670000Y-39663148D01*
X42731831Y-39637537D01*
X43015998Y-39447663D01*
X43257663Y-39205998D01*
X43447537Y-38921831D01*
X43578325Y-38606081D01*
X43645000Y-38270883D01*
X43645000Y-37929117D01*
X43578325Y-37593919D01*
X43447537Y-37278169D01*
X43257663Y-36994002D01*
X43015998Y-36752337D01*
X42731831Y-36562463D01*
X42416081Y-36431675D01*
X42080883Y-36365000D01*
X41739117Y-36365000D01*
X41403919Y-36431675D01*
X41088169Y-36562463D01*
X40804002Y-36752337D01*
X40562337Y-36994002D01*
X40372463Y-37278169D01*
X40241675Y-37593919D01*
X40175000Y-37929117D01*
X40175000Y-38270883D01*
X40241675Y-38606081D01*
X40372463Y-38921831D01*
X40528261Y-39155000D01*
X40493740Y-39155000D01*
X40206842Y-39212068D01*
X39936589Y-39324010D01*
X39693368Y-39486525D01*
X39486525Y-39693368D01*
X39324010Y-39936589D01*
X39212068Y-40206842D01*
X39155000Y-40493740D01*
X39155000Y-40786260D01*
X39212068Y-41073158D01*
X39324010Y-41343411D01*
X39486525Y-41586632D01*
X39693368Y-41793475D01*
X39936589Y-41955990D01*
X40206842Y-42067932D01*
X40493740Y-42125000D01*
X40786260Y-42125000D01*
X41073158Y-42067932D01*
X41150000Y-42036103D01*
X41150001Y-51701928D01*
X39640000Y-51701928D01*
X39515518Y-51714188D01*
X39395820Y-51750498D01*
X39285506Y-51809463D01*
X39188815Y-51888815D01*
X39109463Y-51985506D01*
X39050498Y-52095820D01*
X39014188Y-52215518D01*
X39001928Y-52340000D01*
X31184999Y-52340000D01*
X31184999Y-34272324D01*
X31188675Y-34234999D01*
X31184999Y-34197674D01*
X31184999Y-34197666D01*
X31174002Y-34086013D01*
X31130545Y-33942752D01*
X31059973Y-33810723D01*
X30965000Y-33694998D01*
X30936003Y-33671201D01*
X24204802Y-26940000D01*
X30111928Y-26940000D01*
X30111928Y-28940000D01*
X30124188Y-29064482D01*
X30160498Y-29184180D01*
X30219463Y-29294494D01*
X30298815Y-29391185D01*
X30395506Y-29470537D01*
X30505820Y-29529502D01*
X30625518Y-29565812D01*
X30750000Y-29578072D01*
X32750000Y-29578072D01*
X32874482Y-29565812D01*
X32994180Y-29529502D01*
X33104494Y-29470537D01*
X33201185Y-29391185D01*
X33280537Y-29294494D01*
X33339502Y-29184180D01*
X33375812Y-29064482D01*
X33388072Y-28940000D01*
X33388072Y-28594326D01*
X33424276Y-28574974D01*
X33540001Y-28480001D01*
X33549016Y-28469016D01*
X33560001Y-28460001D01*
X33654974Y-28344276D01*
X33725546Y-28212247D01*
X33769003Y-28068986D01*
X33780000Y-27957333D01*
X33780000Y-27957323D01*
X33783676Y-27920001D01*
X33780000Y-27882678D01*
X33780000Y-14263148D01*
X33841831Y-14237537D01*
X34125998Y-14047663D01*
X34367663Y-13805998D01*
X34557537Y-13521831D01*
X34688325Y-13206081D01*
X34755000Y-12870883D01*
X34755000Y-12529117D01*
X34688325Y-12193919D01*
X34557537Y-11878169D01*
X34367663Y-11594002D01*
X34125998Y-11352337D01*
X33841831Y-11162463D01*
X33526081Y-11031675D01*
X33190883Y-10965000D01*
X32849117Y-10965000D01*
X32513919Y-11031675D01*
X32198169Y-11162463D01*
X31914002Y-11352337D01*
X31672337Y-11594002D01*
X31482463Y-11878169D01*
X31351675Y-12193919D01*
X31285000Y-12529117D01*
X31285000Y-12870883D01*
X31351675Y-13206081D01*
X31482463Y-13521831D01*
X31638261Y-13755000D01*
X31603740Y-13755000D01*
X31316842Y-13812068D01*
X31046589Y-13924010D01*
X30803368Y-14086525D01*
X30596525Y-14293368D01*
X30434010Y-14536589D01*
X30322068Y-14806842D01*
X30265000Y-15093740D01*
X30265000Y-15386260D01*
X30322068Y-15673158D01*
X30434010Y-15943411D01*
X30596525Y-16186632D01*
X30803368Y-16393475D01*
X31046589Y-16555990D01*
X31316842Y-16667932D01*
X31603740Y-16725000D01*
X31896260Y-16725000D01*
X32183158Y-16667932D01*
X32260000Y-16636103D01*
X32260001Y-26301928D01*
X30750000Y-26301928D01*
X30625518Y-26314188D01*
X30505820Y-26350498D01*
X30395506Y-26409463D01*
X30298815Y-26488815D01*
X30219463Y-26585506D01*
X30160498Y-26695820D01*
X30124188Y-26815518D01*
X30111928Y-26940000D01*
X24204802Y-26940000D01*
X21783576Y-24518775D01*
X21831300Y-24278850D01*
X21831300Y-23981150D01*
X21773222Y-23689170D01*
X21659297Y-23414131D01*
X21493904Y-23166602D01*
X21283398Y-22956096D01*
X21139580Y-22860000D01*
X21283398Y-22763904D01*
X21493904Y-22553398D01*
X21659297Y-22305869D01*
X21773222Y-22030830D01*
X21831300Y-21738850D01*
X21831300Y-21441150D01*
X21773222Y-21149170D01*
X21659297Y-20874131D01*
X21493904Y-20626602D01*
X21283398Y-20416096D01*
X21139580Y-20320000D01*
X21283398Y-20223904D01*
X21493904Y-20013398D01*
X21659297Y-19765869D01*
X21773222Y-19490830D01*
X21831300Y-19198850D01*
X21831300Y-18901150D01*
X21773222Y-18609170D01*
X21659297Y-18334131D01*
X21493904Y-18086602D01*
X21283398Y-17876096D01*
X21139580Y-17780000D01*
X21283398Y-17683904D01*
X21493904Y-17473398D01*
X21659297Y-17225869D01*
X21773222Y-16950830D01*
X21831300Y-16658850D01*
X21831300Y-16361150D01*
X21773222Y-16069170D01*
X21659297Y-15794131D01*
X21493904Y-15546602D01*
X21283398Y-15336096D01*
X21035869Y-15170703D01*
X20760830Y-15056778D01*
X20468850Y-14998700D01*
X20171150Y-14998700D01*
X19879170Y-15056778D01*
X19604131Y-15170703D01*
X19356602Y-15336096D01*
X19146096Y-15546602D01*
X18980703Y-15794131D01*
X18866778Y-16069170D01*
X18808700Y-16361150D01*
X18808700Y-16658850D01*
X18866778Y-16950830D01*
X18980703Y-17225869D01*
X19146096Y-17473398D01*
X19356602Y-17683904D01*
X19500420Y-17780000D01*
X19356602Y-17876096D01*
X19146096Y-18086602D01*
X18980703Y-18334131D01*
X18866778Y-18609170D01*
X18808700Y-18901150D01*
X18808700Y-19198850D01*
X18866778Y-19490830D01*
X18980703Y-19765869D01*
X19146096Y-20013398D01*
X19356602Y-20223904D01*
X19500420Y-20320000D01*
X19356602Y-20416096D01*
X19146096Y-20626602D01*
X18980703Y-20874131D01*
X18866778Y-21149170D01*
X18808700Y-21441150D01*
X18808700Y-21738850D01*
X18856424Y-21978775D01*
X18607702Y-22227497D01*
X18578698Y-22251300D01*
X18541849Y-22296201D01*
X18483725Y-22367025D01*
X18435331Y-22457563D01*
X18413153Y-22499055D01*
X18369696Y-22642316D01*
X18358699Y-22753969D01*
X18358699Y-22753979D01*
X18355023Y-22791301D01*
X18358699Y-22828624D01*
X18358700Y-24669293D01*
X18355023Y-24706625D01*
X18358700Y-24743958D01*
X18368738Y-24845869D01*
X18369697Y-24855610D01*
X18413153Y-24998871D01*
X18483725Y-25130901D01*
X18525920Y-25182315D01*
X18578699Y-25246626D01*
X18607697Y-25270424D01*
X19105152Y-25767880D01*
X18980703Y-25954131D01*
X18866778Y-26229170D01*
X18808700Y-26521150D01*
X18808700Y-26818850D01*
X18866778Y-27110830D01*
X18980703Y-27385869D01*
X19146096Y-27633398D01*
X19356602Y-27843904D01*
X19500420Y-27940000D01*
X19356602Y-28036096D01*
X19146096Y-28246602D01*
X19010190Y-28450000D01*
X17817322Y-28450000D01*
X17779999Y-28446324D01*
X17742677Y-28450000D01*
X17742667Y-28450000D01*
X17631014Y-28460997D01*
X17489912Y-28503799D01*
X17487753Y-28504454D01*
X17355723Y-28575026D01*
X17294165Y-28625546D01*
X17239999Y-28669999D01*
X17216201Y-28698997D01*
X13642002Y-32273197D01*
X13612998Y-32297000D01*
X13558761Y-32363088D01*
X13518025Y-32412725D01*
X13464065Y-32513677D01*
X13447453Y-32544755D01*
X13403996Y-32688016D01*
X13392999Y-32799669D01*
X13392999Y-32799679D01*
X13389323Y-32837001D01*
X13392999Y-32874323D01*
X13393000Y-44595657D01*
X13392999Y-44595667D01*
X13393000Y-47135667D01*
X13389323Y-47172999D01*
X13403997Y-47321984D01*
X13447453Y-47465245D01*
X13518025Y-47597275D01*
X13589200Y-47684001D01*
X13612999Y-47713000D01*
X13641997Y-47736798D01*
X19285000Y-53379803D01*
X19285000Y-53441939D01*
X19324774Y-53641898D01*
X19402795Y-53830256D01*
X19516063Y-53999774D01*
X19660226Y-54143937D01*
X19829744Y-54257205D01*
X20018102Y-54335226D01*
X20132265Y-54357934D01*
X18550209Y-55939990D01*
X17011202Y-55939990D01*
X15722335Y-54651124D01*
X15843023Y-54607636D01*
X15958980Y-54545656D01*
X16025960Y-54305565D01*
X15240000Y-53519605D01*
X15225858Y-53533748D01*
X15046253Y-53354143D01*
X15060395Y-53340000D01*
X15419605Y-53340000D01*
X16205565Y-54125960D01*
X16445656Y-54058980D01*
X16562756Y-53809952D01*
X16629023Y-53542865D01*
X16641910Y-53267983D01*
X16600922Y-52995867D01*
X16507636Y-52736977D01*
X16445656Y-52621020D01*
X16205565Y-52554040D01*
X15419605Y-53340000D01*
X15060395Y-53340000D01*
X14274435Y-52554040D01*
X14034344Y-52621020D01*
X13924925Y-52853714D01*
X13445646Y-52374435D01*
X14454040Y-52374435D01*
X15240000Y-53160395D01*
X16025960Y-52374435D01*
X15958980Y-52134344D01*
X15709952Y-52017244D01*
X15442865Y-51950977D01*
X15167983Y-51938090D01*
X14895867Y-51979078D01*
X14636977Y-52072364D01*
X14521020Y-52134344D01*
X14454040Y-52374435D01*
X13445646Y-52374435D01*
X12813213Y-51742002D01*
X12789410Y-51712998D01*
X12673685Y-51618025D01*
X12541656Y-51547453D01*
X12398395Y-51503996D01*
X12286742Y-51492999D01*
X12286731Y-51492999D01*
X12249409Y-51489323D01*
X12212087Y-51492999D01*
X9675561Y-51492999D01*
X9638238Y-51489323D01*
X9600915Y-51492999D01*
X9600906Y-51492999D01*
X9489253Y-51503996D01*
X9345992Y-51547453D01*
X9213962Y-51618025D01*
X9130322Y-51686667D01*
X9098238Y-51712998D01*
X9074439Y-51741997D01*
X8561997Y-52254440D01*
X8532999Y-52278238D01*
X8509201Y-52307236D01*
X8509200Y-52307237D01*
X8438025Y-52393963D01*
X8367453Y-52525993D01*
X8340620Y-52614454D01*
X8323997Y-52669253D01*
X8322443Y-52685027D01*
X8309323Y-52818239D01*
X660000Y-52818239D01*
X660000Y-26521150D01*
X3568700Y-26521150D01*
X3568700Y-26818850D01*
X3626778Y-27110830D01*
X3740703Y-27385869D01*
X3906096Y-27633398D01*
X4116602Y-27843904D01*
X4260420Y-27940000D01*
X4116602Y-28036096D01*
X3906096Y-28246602D01*
X3740703Y-28494131D01*
X3626778Y-28769170D01*
X3568700Y-29061150D01*
X3568700Y-29358850D01*
X3626778Y-29650830D01*
X3740703Y-29925869D01*
X3906096Y-30173398D01*
X4116602Y-30383904D01*
X4260420Y-30480000D01*
X4116602Y-30576096D01*
X3906096Y-30786602D01*
X3740703Y-31034131D01*
X3626778Y-31309170D01*
X3568700Y-31601150D01*
X3568700Y-31898850D01*
X3626778Y-32190830D01*
X3740703Y-32465869D01*
X3906096Y-32713398D01*
X4116602Y-32923904D01*
X4260420Y-33020000D01*
X4116602Y-33116096D01*
X3906096Y-33326602D01*
X3740703Y-33574131D01*
X3626778Y-33849170D01*
X3568700Y-34141150D01*
X3568700Y-34438850D01*
X3626778Y-34730830D01*
X3740703Y-35005869D01*
X3906096Y-35253398D01*
X4116602Y-35463904D01*
X4260420Y-35560000D01*
X4116602Y-35656096D01*
X3906096Y-35866602D01*
X3740703Y-36114131D01*
X3626778Y-36389170D01*
X3568700Y-36681150D01*
X3568700Y-36978850D01*
X3626778Y-37270830D01*
X3740703Y-37545869D01*
X3906096Y-37793398D01*
X4116602Y-38003904D01*
X4260420Y-38100000D01*
X4116602Y-38196096D01*
X3906096Y-38406602D01*
X3740703Y-38654131D01*
X3626778Y-38929170D01*
X3568700Y-39221150D01*
X3568700Y-39518850D01*
X3626778Y-39810830D01*
X3740703Y-40085869D01*
X3906096Y-40333398D01*
X4116602Y-40543904D01*
X4260420Y-40640000D01*
X4116602Y-40736096D01*
X3906096Y-40946602D01*
X3740703Y-41194131D01*
X3626778Y-41469170D01*
X3568700Y-41761150D01*
X3568700Y-42058850D01*
X3626778Y-42350830D01*
X3740703Y-42625869D01*
X3906096Y-42873398D01*
X4116602Y-43083904D01*
X4260420Y-43180000D01*
X4116602Y-43276096D01*
X3906096Y-43486602D01*
X3740703Y-43734131D01*
X3626778Y-44009170D01*
X3568700Y-44301150D01*
X3568700Y-44598850D01*
X3626778Y-44890830D01*
X3740703Y-45165869D01*
X3906096Y-45413398D01*
X4116602Y-45623904D01*
X4364131Y-45789297D01*
X4639170Y-45903222D01*
X4931150Y-45961300D01*
X5228850Y-45961300D01*
X5520830Y-45903222D01*
X5795869Y-45789297D01*
X6043398Y-45623904D01*
X6253904Y-45413398D01*
X6419297Y-45165869D01*
X6533222Y-44890830D01*
X6591300Y-44598850D01*
X6591300Y-44301150D01*
X6533222Y-44009170D01*
X6419297Y-43734131D01*
X6253904Y-43486602D01*
X6043398Y-43276096D01*
X5899580Y-43180000D01*
X6043398Y-43083904D01*
X6253904Y-42873398D01*
X6419297Y-42625869D01*
X6533222Y-42350830D01*
X6591300Y-42058850D01*
X6591300Y-41761150D01*
X6533222Y-41469170D01*
X6419297Y-41194131D01*
X6253904Y-40946602D01*
X6043398Y-40736096D01*
X5899580Y-40640000D01*
X6043398Y-40543904D01*
X6253904Y-40333398D01*
X6419297Y-40085869D01*
X6533222Y-39810830D01*
X6591300Y-39518850D01*
X6591300Y-39221150D01*
X6533222Y-38929170D01*
X6419297Y-38654131D01*
X6253904Y-38406602D01*
X6043398Y-38196096D01*
X5899580Y-38100000D01*
X6043398Y-38003904D01*
X6253904Y-37793398D01*
X6419297Y-37545869D01*
X6533222Y-37270830D01*
X6591300Y-36978850D01*
X6591300Y-36681150D01*
X6533222Y-36389170D01*
X6419297Y-36114131D01*
X6253904Y-35866602D01*
X6043398Y-35656096D01*
X5899580Y-35560000D01*
X6043398Y-35463904D01*
X6253904Y-35253398D01*
X6419297Y-35005869D01*
X6533222Y-34730830D01*
X6591300Y-34438850D01*
X6591300Y-34141150D01*
X6533222Y-33849170D01*
X6419297Y-33574131D01*
X6253904Y-33326602D01*
X6043398Y-33116096D01*
X5899580Y-33020000D01*
X6043398Y-32923904D01*
X6253904Y-32713398D01*
X6419297Y-32465869D01*
X6533222Y-32190830D01*
X6591300Y-31898850D01*
X6591300Y-31601150D01*
X6533222Y-31309170D01*
X6419297Y-31034131D01*
X6253904Y-30786602D01*
X6043398Y-30576096D01*
X5899580Y-30480000D01*
X6043398Y-30383904D01*
X6253904Y-30173398D01*
X6419297Y-29925869D01*
X6533222Y-29650830D01*
X6591300Y-29358850D01*
X6591300Y-29061150D01*
X6533222Y-28769170D01*
X6419297Y-28494131D01*
X6253904Y-28246602D01*
X6043398Y-28036096D01*
X5899580Y-27940000D01*
X6043398Y-27843904D01*
X6253904Y-27633398D01*
X6419297Y-27385869D01*
X6533222Y-27110830D01*
X6591300Y-26818850D01*
X6591300Y-26521150D01*
X6533222Y-26229170D01*
X6419297Y-25954131D01*
X6253904Y-25706602D01*
X6043398Y-25496096D01*
X5880191Y-25387045D01*
X5947563Y-25177169D01*
X5080000Y-24309605D01*
X4212437Y-25177169D01*
X4279809Y-25387045D01*
X4116602Y-25496096D01*
X3906096Y-25706602D01*
X3740703Y-25954131D01*
X3626778Y-26229170D01*
X3568700Y-26521150D01*
X660000Y-26521150D01*
X660000Y-24197491D01*
X3562887Y-24197491D01*
X3605204Y-24492167D01*
X3704198Y-24772927D01*
X3781071Y-24916746D01*
X4032831Y-24997563D01*
X4900395Y-24130000D01*
X5259605Y-24130000D01*
X6127169Y-24997563D01*
X6378929Y-24916746D01*
X6507457Y-24648221D01*
X6581129Y-24359781D01*
X6597113Y-24062509D01*
X6554796Y-23767833D01*
X6455802Y-23487073D01*
X6378929Y-23343254D01*
X6127169Y-23262437D01*
X5259605Y-24130000D01*
X4900395Y-24130000D01*
X4032831Y-23262437D01*
X3781071Y-23343254D01*
X3652543Y-23611779D01*
X3578871Y-23900219D01*
X3562887Y-24197491D01*
X660000Y-24197491D01*
X660000Y-22637169D01*
X4212437Y-22637169D01*
X4283968Y-22860000D01*
X4212437Y-23082831D01*
X5080000Y-23950395D01*
X5947563Y-23082831D01*
X5876032Y-22860000D01*
X5947563Y-22637169D01*
X5080000Y-21769605D01*
X4212437Y-22637169D01*
X660000Y-22637169D01*
X660000Y-21657491D01*
X3562887Y-21657491D01*
X3605204Y-21952167D01*
X3704198Y-22232927D01*
X3781071Y-22376746D01*
X4032831Y-22457563D01*
X4900395Y-21590000D01*
X5259605Y-21590000D01*
X6127169Y-22457563D01*
X6378929Y-22376746D01*
X6507457Y-22108221D01*
X6581129Y-21819781D01*
X6597113Y-21522509D01*
X6554796Y-21227833D01*
X6455802Y-20947073D01*
X6378929Y-20803254D01*
X6127169Y-20722437D01*
X5259605Y-21590000D01*
X4900395Y-21590000D01*
X4032831Y-20722437D01*
X3781071Y-20803254D01*
X3652543Y-21071779D01*
X3578871Y-21360219D01*
X3562887Y-21657491D01*
X660000Y-21657491D01*
X660000Y-15633700D01*
X3565628Y-15633700D01*
X3565628Y-17386300D01*
X3577888Y-17510782D01*
X3614198Y-17630480D01*
X3673163Y-17740794D01*
X3752515Y-17837485D01*
X3849206Y-17916837D01*
X3959520Y-17975802D01*
X4003542Y-17989156D01*
X3906096Y-18086602D01*
X3740703Y-18334131D01*
X3626778Y-18609170D01*
X3568700Y-18901150D01*
X3568700Y-19198850D01*
X3626778Y-19490830D01*
X3740703Y-19765869D01*
X3906096Y-20013398D01*
X4116602Y-20223904D01*
X4279809Y-20332955D01*
X4212437Y-20542831D01*
X5080000Y-21410395D01*
X5947563Y-20542831D01*
X5880191Y-20332955D01*
X6043398Y-20223904D01*
X6253904Y-20013398D01*
X6419297Y-19765869D01*
X6533222Y-19490830D01*
X6591300Y-19198850D01*
X6591300Y-18901150D01*
X6533222Y-18609170D01*
X6419297Y-18334131D01*
X6253904Y-18086602D01*
X6156458Y-17989156D01*
X6200480Y-17975802D01*
X6310794Y-17916837D01*
X6407485Y-17837485D01*
X6486837Y-17740794D01*
X6545802Y-17630480D01*
X6582112Y-17510782D01*
X6594372Y-17386300D01*
X6594372Y-15633700D01*
X6582112Y-15509218D01*
X6545802Y-15389520D01*
X6486837Y-15279206D01*
X6407485Y-15182515D01*
X6310794Y-15103163D01*
X6200480Y-15044198D01*
X6080782Y-15007888D01*
X5956300Y-14995628D01*
X4203700Y-14995628D01*
X4079218Y-15007888D01*
X3959520Y-15044198D01*
X3849206Y-15103163D01*
X3752515Y-15182515D01*
X3673163Y-15279206D01*
X3614198Y-15389520D01*
X3577888Y-15509218D01*
X3565628Y-15633700D01*
X660000Y-15633700D01*
X660000Y-660000D01*
X99670000Y-660000D01*
X99670001Y-86970000D01*
M02*
